{
.appVersion = "3134";
.formatVersion = 3;
DisplayStrings = (
"Aa Bb Cc Dd Ee Ff Gg Hh Ii Jj Kk Ll Mm Nn Oo Pp Qq Rr Tt Ss Uu Vv Ww Xx Yy Zz
!@#&?.
1234567890"
);
customParameters = (
{
name = vendorID;
value = AMMP;
},
{
name = panose;
value = (
0,
0,
7,
0,
0,
0,
0,
0,
0,
0
);
},
{
name = unicodeRanges;
value = (
0,
1,
2,
29
);
},
{
name = codePageRanges;
value = (
"1252",
"1250",
"1254",
"1257",
"1258",
"bit 29"
);
},
{
name = blueScale;
value = 0.037;
},
{
name = glyphOrder;
value = (
.notdef,
space,
A,
Aacute,
Abreve,
uni1EAE,
uni1EB6,
uni1EB0,
uni1EB2,
uni1EB4,
uni01CD,
Acircumflex,
uni1EA4,
uni1EAC,
uni1EA6,
uni1EA8,
uni1EAA,
Adieresis,
uni1EA0,
Agrave,
uni1EA2,
Amacron,
Aogonek,
Aring,
Atilde,
AE,
B,
C,
Cacute,
Ccaron,
Ccedilla,
Cdotaccent,
D,
Eth,
Dcaron,
Dcroat,
E,
Eacute,
Ecaron,
Ecircumflex,
uni1EBE,
uni1EC6,
uni1EC0,
uni1EC2,
uni1EC4,
Edieresis,
Edotaccent,
uni1EB8,
Egrave,
uni1EBA,
Emacron,
Eogonek,
uni1EBC,
F,
G,
Gbreve,
uni0122,
Gdotaccent,
H,
Hbar,
I,
Iacute,
uni01CF,
Icircumflex,
Idieresis,
Idotaccent,
uni1ECA,
Igrave,
uni1EC8,
Imacron,
Iogonek,
Itilde,
J,
K,
uni0136,
L,
Lacute,
Lcaron,
uni013B,
Lslash,
M,
N,
Nacute,
Ncaron,
uni0145,
Eng,
Ntilde,
O,
Oacute,
uni01D1,
Ocircumflex,
uni1ED0,
uni1ED8,
uni1ED2,
uni1ED4,
uni1ED6,
Odieresis,
uni1ECC,
Ograve,
uni1ECE,
Ohorn,
uni1EDA,
uni1EE2,
uni1EDC,
uni1EDE,
uni1EE0,
Ohungarumlaut,
Omacron,
Oslash,
Otilde,
OE,
P,
Thorn,
Q,
R,
Racute,
Rcaron,
uni0156,
S,
Sacute,
Scaron,
Scedilla,
uni0218,
uni1E9E,
T,
Tbar,
Tcaron,
uni0162,
uni021A,
U,
Uacute,
uni01D3,
Ucircumflex,
Udieresis,
uni01D7,
uni01D9,
uni01DB,
uni01D5,
uni1EE4,
Ugrave,
uni1EE6,
Uhorn,
uni1EE8,
uni1EF0,
uni1EEA,
uni1EEC,
uni1EEE,
Uhungarumlaut,
Umacron,
Uogonek,
Uring,
Utilde,
V,
W,
Wacute,
Wcircumflex,
Wdieresis,
Wgrave,
X,
Y,
Yacute,
Ycircumflex,
Ydieresis,
uni1EF4,
Ygrave,
uni1EF6,
uni1EF8,
Z,
Zacute,
Zcaron,
Zdotaccent,
uni1EB6.ss03,
uni1EAC.ss03,
Adieresis.ss03,
uni1EA0.ss03,
Cdotaccent.ss03,
uni1EC6.ss03,
Edieresis.ss03,
Edotaccent.ss03,

glyphs = (
{
glyphname = .notdef;
layers = (
{
hints = (
{
horizontal = 1;
place = (0, 37);
place = (0, 37);
type = Stem;
},
{
horizontal = 1;
place = (435, 38);
place = (435, 38);
type = Stem;
},
{
place = (93, 37);
place = (93, 37);
type = Stem;
},
{
place = (463, 38);
place = (463, 38);
type = Stem;
}
);
layerId = m01;
shapes = (
{
closed = 1;
nodes = (
(93,0,l),
(501,0,l),
(501,473,l),
(93,473,l)
);
},
{
closed = 1;
nodes = (
(130,37,l),
(130,435,l),
(463,435,l),
(463,37,l)
);
}
);
width = 593;
}
);
note = ".notdef";
},
{
glyphname = A;
kernLeft = A;
kernRight = A;
lastChange = "2022-12-26 08:36:32 +0000";
layers = (
{
hints = (
{
horizontal = 1;
place = (0, 21);
target = up;
type = BottomGhost;
},
{
horizontal = 1;
place = (158, 97);
place = (158, 97);
type = Stem;
},
{
horizontal = 1;
place = (697, -20);
target = down;
type = TopGhost;
},
{
place = (15, 627);
place = (15, 627);
type = Stem;
}
);
layerId = m01;
shapes = (
{
closed = 1;
nodes = (
(390,647,ls),
(377,681,o),
(352,697,o),
(316,697,cs),
(287,697,l),
(15,0,l),
(131,0,l),
(189,158,l),
(468,158,l),
(525,0,l),
(642,0,l)
);
},
{
closed = 1;
nodes = (
(224,255,l),
(329,541,l),
(433,255,l)
);
}
);
width = 657;
}
);
note = A;
unicode = 65;
},
{
glyphname = Aacute;
kernLeft = A;
kernRight = A;
layers = (
{
hints = (
{
horizontal = 1;
place = (0, 21);
target = up;
type = BottomGhost;
},
{
horizontal = 1;
place = (158, 97);
place = (158, 97);
type = Stem;
},
{
horizontal = 1;
place = (697, -20);
target = down;
type = TopGhost;
},
{
horizontal = 1;
place = (759, 142);
place = (759, 142);
type = Stem;
},
{
place = (15, 627);
place = (15, 627);
type = Stem;
}
);
layerId = m01;
shapes = (
{
closed = 1;
nodes = (
(511,901,l),
(400,901,l),
(290,759,l),
(367,759,l)
);
},
{
closed = 1;
nodes = (
(525,0,l),
(642,0,l),
(370,697,l),
(287,697,l),
(15,0,l),
(131,0,l),
(189,158,l),
(468,158,l)
);
},
{
closed = 1;
nodes = (
(224,255,l),
(329,541,l),
(433,255,l)
);
}
);
width = 657;
}
);
note = Aacute;
unicode = 193;
},
{
glyphname = Abreve;
kernLeft = A;
kernRight = A;
layers = (
{
hints = (
{
horizontal = 1;
place = (0, 21);
target = up;
type = BottomGhost;
},
{
horizontal = 1;
place = (158, 97);
place = (158, 97);
type = Stem;
},
{
horizontal = 1;
place = (697, -20);
target = down;
type = TopGhost;
},
{
horizontal = 1;
place = (769, 60);
place = (769, 60);
type = Stem;
},
{
place = (175, 73);
place = (175, 73);
type = Stem;
},
{
place = (410, 73);
place = (410, 73);
type = Stem;
}
);
layerId = m01;
shapes = (
{
closed = 1;
nodes = (
(430,769,o),
(483,812,o),
(483,901,c),
(410,901,l),
(410,855,o),
(377,829,o),
(329,829,cs),
(283,829,o),
(248,853,o),
(248,901,c),
(175,901,l),
(175,815,o),
(223,769,o),
(329,769,cs)
);
},
{
closed = 1;
nodes = (
(525,0,l),
(642,0,l),
(370,697,l),
(287,697,l),
(15,0,l),
(131,0,l),
(189,158,l),
(468,158,l)
);
},
{
closed = 1;
nodes = (
(224,255,l),
(329,541,l),
(433,255,l)
);
}
);
width = 657;
}
);
note = Abreve;
unicode = 258;
},
{
glyphname = uni1EAE;
kernLeft = A;
kernRight = A;
layers = (
{
hints = (
{
horizontal = 1;
place = (0, 21);
target = up;
type = BottomGhost;
},
{
horizontal = 1;
place = (158, 97);
place = (158, 97);
type = Stem;
},
{
horizontal = 1;
place = (697, -20);
target = down;
type = TopGhost;
},
{
horizontal = 1;
place = (769, 60);
place = (769, 60);
type = Stem;
},
{
horizontal = 1;
place = (963, 142);
place = (963, 142);
type = Stem;
},
{
place = (175, 73);
place = (175, 73);
type = Stem;
},
{
place = (410, 73);
place = (410, 73);
type = Stem;
}
);
layerId = m01;
shapes = (
{
closed = 1;
nodes = (
(511,1105,l),
(400,1105,l),
(290,963,l),
(367,963,l)
);
},
{
closed = 1;
nodes = (
(430,769,o),
(483,812,o),
(483,901,c),
(410,901,l),
(410,855,o),
(377,829,o),
(329,829,cs),
(283,829,o),
(248,853,o),
(248,901,c),
(175,901,l),
(175,815,o),
(223,769,o),
(329,769,cs)
);
},
{
closed = 1;
nodes = (
(525,0,l),
(642,0,l),
(370,697,l),
(287,697,l),
(15,0,l),
(131,0,l),
(189,158,l),
(468,158,l)
);
},
{
closed = 1;
nodes = (
(224,255,l),
(329,541,l),
(433,255,l)
);
}
);
width = 657;
}
);
note = uni1EAE;
unicode = 7854;
},
{
glyphname = uni1EB6;
kernLeft = A;
kernRight = A;
layers = (
{
hints = (
{
horizontal = 1;
place = (-173, 108);
place = (-173, 108);
type = Stem;
},
{
horizontal = 1;
place = (0, 21);
target = up;
type = BottomGhost;
},
{
horizontal = 1;
place = (158, 97);
place = (158, 97);
type = Stem;
},
{
horizontal = 1;
place = (697, -20);
target = down;
type = TopGhost;
},
{
horizontal = 1;
place = (769, 60);
place = (769, 60);
type = Stem;
},
{
place = (175, 73);
place = (175, 73);
type = Stem;
},
{
place = (274, 110);
place = (274, 110);
type = Stem;
},
{
place = (410, 73);
place = (410, 73);
type = Stem;
}
);
layerId = m01;
shapes = (
{
closed = 1;
nodes = (
(430,769,o),
(483,812,o),
(483,901,c),
(410,901,l),
(410,855,o),
(377,829,o),
(329,829,cs),
(283,829,o),
(248,853,o),
(248,901,c),
(175,901,l),
(175,815,o),
(223,769,o),
(329,769,cs)
);
},
{
closed = 1;
nodes = (
(642,0,l),
(370,697,l),
(287,697,l),
(15,0,l),
(131,0,l),
(189,158,l),
(468,158,l),
(525,0,l)
);
},
{
closed = 1;
nodes = (
(224,255,l),
(329,541,l),
(433,255,l)
);
},
{
closed = 1;
nodes = (
(274,-173,l),
(384,-173,l),
(384,-65,l),
(274,-65,l)
);
}
);
width = 657;
}
);
note = uni1EB6;
unicode = 7862;
},
{
glyphname = uni1EB0;
kernLeft = A;
kernRight = A;
layers = (
{
hints = (
{
horizontal = 1;
place = (0, 21);
target = up;
type = BottomGhost;
},
{
horizontal = 1;
place = (158, 97);
place = (158, 97);
type = Stem;
},
{
horizontal = 1;
place = (697, -20);
target = down;
type = TopGhost;
},
{
horizontal = 1;
place = (769, 60);
place = (769, 60);
type = Stem;
},
{
horizontal = 1;
place = (963, 142);
place = (963, 142);
type = Stem;
},
{
place = (175, 73);
place = (175, 73);
type = Stem;
},
{
place = (410, 73);
place = (410, 73);
type = Stem;
}
);
layerId = m01;
shapes = (
{
closed = 1;
nodes = (
(368,963,l),
(264,1105,l),
(154,1105,l),
(290,963,l)
);
},
{
closed = 1;
nodes = (
(175,901,l),
(175,815,o),
(223,769,o),
(329,769,cs),
(430,769,o),
(483,812,o),
(483,901,c),
(410,901,l),
(410,855,o),
(377,829,o),
(329,829,cs),
(283,829,o),
(248,853,o),
(248,901,c)
);
},
{
closed = 1;
nodes = (
(525,0,l),
(642,0,l),
(370,697,l),
(287,697,l),
(15,0,l),
(131,0,l),
(189,158,l),
(468,158,l)
);
},
{
closed = 1;
nodes = (
(224,255,l),
(329,541,l),
(433,255,l)
);
}
);
width = 657;
}
);
note = uni1EB0;
unicode = 7856;
},
{
glyphname = uni1EB2;
kernLeft = A;
kernRight = A;
layers = (
{
hints = (
{
horizontal = 1;
place = (0, 21);
target = up;
type = BottomGhost;
},
{
horizontal = 1;
place = (158, 97);
place = (158, 97);
type = Stem;
},
{
horizontal = 1;
place = (697, -20);
target = down;
type = TopGhost;
},
{
horizontal = 1;
place = (769, 60);
place = (769, 60);
type = Stem;
},
{
horizontal = 1;
place = (1069, 57);
place = (1069, 57);
type = Stem;
},
{
place = (175, 73);
place = (175, 73);
type = Stem;
},
{
place = (374, 66);
place = (374, 66);
type = Stem;
},
{
place = (410, 73);
place = (410, 73);
type = Stem;
}
);
layerId = m01;
shapes = (
{
closed = 1;
nodes = (
(374,996,o),
(339,990,o),
(307,986,c),
(320,940,l),
(370,949,o),
(440,960,o),
(440,1029,cs),
(440,1092,o),
(380,1126,o),
(294,1126,cs),
(279,1126,l),
(279,1069,l),
(294,1069,ls),
(334,1069,o),
(374,1064,o),
(374,1028,cs)
);
},
{
closed = 1;
nodes = (
(430,769,o),
(483,812,o),
(483,901,c),
(410,901,l),
(410,855,o),
(377,829,o),
(329,829,cs),
(283,829,o),
(248,853,o),
(248,901,c),
(175,901,l),
(175,815,o),
(223,769,o),
(329,769,cs)
);
},
{
closed = 1;
nodes = (
(525,0,l),
(642,0,l),
(370,697,l),
(287,697,l),
(15,0,l),
(131,0,l),
(189,158,l),
(468,158,l)
);
},
{
closed = 1;
nodes = (
(224,255,l),
(329,541,l),
(433,255,l)
);
}
);
width = 657;
}
);
note = uni1EB2;
unicode = 7858;
},
{
glyphname = uni1EB4;
kernLeft = A;
kernRight = A;
layers = (
{
hints = (
{
horizontal = 1;
place = (0, 21);
target = up;
type = BottomGhost;
},
{
horizontal = 1;
place = (158, 97);
place = (158, 97);
type = Stem;
},
{
horizontal = 1;
place = (697, -20);
target = down;
type = TopGhost;
},
{
horizontal = 1;
place = (769, 60);
place = (769, 60);
type = Stem;
},
{
horizontal = 1;
place = (1044, 64);
place = (1044, 64);
type = Stem;
},
{
place = (164, 60);
place = (164, 60);
type = Stem;
},
{
place = (429, 63);
place = (429, 63);
type = Stem;
},
{
horizontal = 1;
place = (969, 64);
place = (969, 64);
type = Stem;
},
{
place = (175, 73);
place = (175, 73);
type = Stem;
},
{
place = (410, 73);
place = (410, 73);
type = Stem;
}
);
layerId = m01;
shapes = (
{
closed = 1;
nodes = (
(304,1044,o),
(314,969,o),
(393,969,cs),
(453,969,o),
(492,1018,o),
(492,1105,c),
(429,1105,l),
(429,1059,o),
(414,1033,o),
(394,1033,cs),
(353,1033,o),
(337,1108,o),
(266,1108,cs),
(203,1108,o),
(164,1059,o),
(164,974,c),
(224,974,l),
(224,1019,o),
(238,1044,o),
(262,1044,cs)
);
},
{
closed = 1;
nodes = (
(283,829,o),
(248,853,o),
(248,901,c),
(175,901,l),
(175,815,o),
(223,769,o),
(329,769,cs),
(430,769,o),
(483,812,o),
(483,901,c),
(410,901,l),
(410,855,o),
(377,829,o),
(329,829,cs)
);
},
{
closed = 1;
nodes = (
(525,0,l),
(642,0,l),
(370,697,l),
(287,697,l),
(15,0,l),
(131,0,l),
(189,158,l),
(468,158,l)
);
},
{
closed = 1;
nodes = (
(224,255,l),
(329,541,l),
(433,255,l)
);
}
);
width = 657;
}
);
note = uni1EB4;
unicode = 7860;
},
{
glyphname = uni01CD;
kernLeft = A;
kernRight = A;
layers = (
{
hints = (
{
horizontal = 1;
place = (0, 21);
target = up;
type = BottomGhost;
},
{
horizontal = 1;
place = (158, 97);
place = (158, 97);
type = Stem;
},
{
horizontal = 1;
place = (697, -20);
target = down;
type = TopGhost;
},
{
place = (15, 627);
place = (15, 627);
type = Stem;
}
);
layerId = m01;
shapes = (
{
closed = 1;
nodes = (
(483,901,l),
(402,901,l),
(329,825,l),
(256,901,l),
(175,901,l),
(329,741,l)
);
},
{
closed = 1;
nodes = (
(525,0,l),
(642,0,l),
(370,697,l),
(287,697,l),
(15,0,l),
(131,0,l),
(189,158,l),
(468,158,l)
);
},
{
closed = 1;
nodes = (
(224,255,l),
(329,541,l),
(433,255,l)
);
}
);
width = 657;
}
);
note = uni01CD;
unicode = 461;
},
{
glyphname = Acircumflex;
kernLeft = A;
kernRight = A;
layers = (
{
hints = (
{
horizontal = 1;
place = (0, 21);
target = up;
type = BottomGhost;
},
{
horizontal = 1;
place = (158, 97);
place = (158, 97);
type = Stem;
},
{
horizontal = 1;
place = (697, -20);
target = down;
type = TopGhost;
},
{
place = (15, 627);
place = (15, 627);
type = Stem;
}
);
layerId = m01;
shapes = (
{
closed = 1;
nodes = (
(329,828,l),
(402,747,l),
(483,747,l),
(329,916,l),
(175,747,l),
(257,747,l)
);
},
{
closed = 1;
nodes = (
(525,0,l),
(642,0,l),
(370,697,l),
(287,697,l),
(15,0,l),
(131,0,l),
(189,158,l),
(468,158,l)
);
},
{
closed = 1;
nodes = (
(224,255,l),
(329,541,l),
(433,255,l)
);
}
);
width = 657;
}
);
note = Acircumflex;
unicode = 194;
},
{
glyphname = uni1EA4;
kernLeft = A;
kernRight = A;
layers = (
{
hints = (
{
horizontal = 1;
place = (0, 21);
target = up;
type = BottomGhost;
},
{
horizontal = 1;
place = (158, 97);
place = (158, 97);
type = Stem;
},
{
horizontal = 1;
place = (697, -20);
target = down;
type = TopGhost;
},
{
horizontal = 1;
place = (947, 142);
place = (947, 142);
type = Stem;
},
{
place = (15, 627);
place = (15, 627);
type = Stem;
}
);
layerId = m01;
shapes = (
{
closed = 1;
nodes = (
(511,1089,l),
(400,1089,l),
(290,947,l),
(367,947,l)
);
},
{
closed = 1;
nodes = (
(329,828,l),
(402,747,l),
(483,747,l),
(329,916,l),
(175,747,l),
(257,747,l)
);
},
{
closed = 1;
nodes = (
(525,0,l),
(642,0,l),
(370,697,l),
(287,697,l),
(15,0,l),
(131,0,l),
(189,158,l),
(468,158,l)
);
},
{
closed = 1;
nodes = (
(224,255,l),
(329,541,l),
(433,255,l)
);
}
);
width = 657;
}
);
note = uni1EA4;
unicode = 7844;
},
{
glyphname = uni1EAC;
kernLeft = A;
kernRight = A;
layers = (
{
hints = (
{
horizontal = 1;
place = (-173, 108);
place = (-173, 108);
type = Stem;
},
{
horizontal = 1;
place = (0, 21);
target = up;
type = BottomGhost;
},
{
horizontal = 1;
place = (158, 97);
place = (158, 97);
type = Stem;
},
{
horizontal = 1;
place = (697, -20);
target = down;
type = TopGhost;
},
{
place = (274, 110);
place = (274, 110);
type = Stem;
}
);
layerId = m01;
shapes = (
{
closed = 1;
nodes = (
(329,828,l),
(402,747,l),
(483,747,l),
(329,916,l),
(175,747,l),
(257,747,l)
);
},
{
closed = 1;
nodes = (
(642,0,l),
(370,697,l),
(287,697,l),
(15,0,l),
(131,0,l),
(189,158,l),
(468,158,l),
(525,0,l)
);
},
{
closed = 1;
nodes = (
(224,255,l),
(329,541,l),
(433,255,l)
);
},
{
closed = 1;
nodes = (
(274,-173,l),
(384,-173,l),
(384,-65,l),
(274,-65,l)
);
}
);
width = 657;
}
);
note = uni1EAC;
unicode = 7852;
},
{
glyphname = uni1EA6;
kernLeft = A;
kernRight = A;
layers = (
{
hints = (
{
horizontal = 1;
place = (0, 21);
target = up;
type = BottomGhost;
},
{
horizontal = 1;
place = (158, 97);
place = (158, 97);
type = Stem;
},
{
horizontal = 1;
place = (697, -20);
target = down;
type = TopGhost;
},
{
horizontal = 1;
place = (947, 142);
place = (947, 142);
type = Stem;
},
{
place = (15, 627);
place = (15, 627);
type = Stem;
}
);
layerId = m01;
shapes = (
{
closed = 1;
nodes = (
(368,947,l),
(264,1089,l),
(154,1089,l),
(290,947,l)
);
},
{
closed = 1;
nodes = (
(175,747,l),
(257,747,l),
(329,828,l),
(402,747,l),
(483,747,l),
(329,916,l)
);
},
{
closed = 1;
nodes = (
(525,0,l),
(642,0,l),
(370,697,l),
(287,697,l),
(15,0,l),
(131,0,l),
(189,158,l),
(468,158,l)
);
},
{
closed = 1;
nodes = (
(224,255,l),
(329,541,l),
(433,255,l)
);
}
);
width = 657;
}
);
note = uni1EA6;
unicode = 7846;
},
{
glyphname = uni1EA8;
kernLeft = A;
kernRight = A;
layers = (
{
hints = (
{
horizontal = 1;
place = (0, 21);
target = up;
type = BottomGhost;
},
{
horizontal = 1;
place = (158, 97);
place = (158, 97);
type = Stem;
},
{
horizontal = 1;
place = (697, -20);
target = down;
type = TopGhost;
},
{
horizontal = 1;
place = (1053, 57);
place = (1053, 57);
type = Stem;
},
{
place = (374, 66);
place = (374, 66);
type = Stem;
}
);
layerId = m01;
shapes = (
{
closed = 1;
nodes = (
(374,980,o),
(339,974,o),
(307,970,c),
(320,924,l),
(370,933,o),
(440,944,o),
(440,1013,cs),
(440,1076,o),
(380,1110,o),
(294,1110,cs),
(279,1110,l),
(279,1053,l),
(294,1053,ls),
(334,1053,o),
(374,1048,o),
(374,1012,cs)
);
},
{
closed = 1;
nodes = (
(329,828,l),
(402,747,l),
(483,747,l),
(329,916,l),
(175,747,l),
(257,747,l)
);
},
{
closed = 1;
nodes = (
(525,0,l),
(642,0,l),
(370,697,l),
(287,697,l),
(15,0,l),
(131,0,l),
(189,158,l),
(468,158,l)
);
},
{
closed = 1;
nodes = (
(224,255,l),
(329,541,l),
(433,255,l)
);
}
);
width = 657;
}
);
note = uni1EA8;
unicode = 7848;
},
{
glyphname = uni1EAA;
kernLeft = A;
kernRight = A;
layers = (
{
hints = (
{
horizontal = 1;
place = (0, 21);
target = up;
type = BottomGhost;
},
{
horizontal = 1;
place = (158, 97);
place = (158, 97);
type = Stem;
},
{
horizontal = 1;
place = (697, -20);
target = down;
type = TopGhost;
},
{
horizontal = 1;
place = (1028, 64);
place = (1028, 64);
type = Stem;
},
{
place = (164, 60);
place = (164, 60);
type = Stem;
},
{
place = (429, 63);
place = (429, 63);
type = Stem;
},
{
horizontal = 1;
place = (953, 64);
place = (953, 64);
type = Stem;
}
);
layerId = m01;
shapes = (
{
closed = 1;
nodes = (
(304,1028,o),
(314,953,o),
(393,953,cs),
(453,953,o),
(492,1002,o),
(492,1089,c),
(429,1089,l),
(429,1043,o),
(414,1017,o),
(394,1017,cs),
(353,1017,o),
(337,1092,o),
(266,1092,cs),
(203,1092,o),
(164,1043,o),
(164,958,c),
(224,958,l),
(224,1003,o),
(238,1028,o),
(262,1028,cs)
);
},
{
closed = 1;
nodes = (
(175,747,l),
(257,747,l),
(329,828,l),
(402,747,l),
(483,747,l),
(329,916,l)
);
},
{
closed = 1;
nodes = (
(525,0,l),
(642,0,l),
(370,697,l),
(287,697,l),
(15,0,l),
(131,0,l),
(189,158,l),
(468,158,l)
);
},
{
closed = 1;
nodes = (
(224,255,l),
(329,541,l),
(433,255,l)
);
}
);
width = 657;
}
);
note = uni1EAA;
unicode = 7850;
},
{
glyphname = Adieresis;
kernLeft = A;
kernRight = A;
layers = (
{
hints = (
{
horizontal = 1;
place = (0, 21);
target = up;
type = BottomGhost;
},
{
horizontal = 1;
place = (158, 97);
place = (158, 97);
type = Stem;
},
{
horizontal = 1;
place = (697, -20);
target = down;
type = TopGhost;
},
{
horizontal = 1;
place = (793, 108);
place = (793, 108);
type = Stem;
},
{
place = (187, 94);
place = (187, 94);
type = Stem;
},
{
place = (377, 94);
place = (377, 94);
type = Stem;
}
);
layerId = m01;
shapes = (
{
closed = 1;
nodes = (
(281,901,l),
(187,901,l),
(187,793,l),
(281,793,l)
);
},
{
closed = 1;
nodes = (
(471,901,l),
(377,901,l),
(377,793,l),
(471,793,l)
);
},
{
closed = 1;
nodes = (
(525,0,l),
(642,0,l),
(370,697,l),
(287,697,l),
(15,0,l),
(131,0,l),
(189,158,l),
(468,158,l)
);
},
{
closed = 1;
nodes = (
(224,255,l),
(329,541,l),
(433,255,l)
);
}
);
width = 657;
}
);
note = Adieresis;
unicode = 196;
},
{
glyphname = uni1EA0;
kernLeft = A;
kernRight = A;
layers = (
{
hints = (
{
horizontal = 1;
place = (-173, 108);
place = (-173, 108);
type = Stem;
},
{
horizontal = 1;
place = (0, 21);
target = up;
type = BottomGhost;
},
{
horizontal = 1;
place = (158, 97);
place = (158, 97);
type = Stem;
},
{
horizontal = 1;
place = (697, -20);
target = down;
type = TopGhost;
},
{
place = (274, 110);
place = (274, 110);
type = Stem;
}
);
layerId = m01;
shapes = (
{
closed = 1;
nodes = (
(642,0,l),
(370,697,l),
(287,697,l),
(15,0,l),
(131,0,l),
(189,158,l),
(468,158,l),
(525,0,l)
);
},
{
closed = 1;
nodes = (
(224,255,l),
(329,541,l),
(433,255,l)
);
},
{
closed = 1;
nodes = (
(274,-173,l),
(384,-173,l),
(384,-65,l),
(274,-65,l)
);
}
);
width = 657;
}
);
note = uni1EA0;
unicode = 7840;
},
{
glyphname = Agrave;
kernLeft = A;
kernRight = A;
layers = (
{
hints = (
{
horizontal = 1;
place = (0, 21);
target = up;
type = BottomGhost;
},
{
horizontal = 1;
place = (158, 97);
place = (158, 97);
type = Stem;
},
{
horizontal = 1;
place = (697, -20);
target = down;
type = TopGhost;
},
{
horizontal = 1;
place = (759, 142);
place = (759, 142);
type = Stem;
},
{
place = (15, 627);
place = (15, 627);
type = Stem;
}
);
layerId = m01;
shapes = (
{
closed = 1;
nodes = (
(368,759,l),
(264,901,l),
(154,901,l),
(290,759,l)
);
},
{
closed = 1;
nodes = (
(525,0,l),
(642,0,l),
(370,697,l),
(287,697,l),
(15,0,l),
(131,0,l),
(189,158,l),
(468,158,l)
);
},
{
closed = 1;
nodes = (
(224,255,l),
(329,541,l),
(433,255,l)
);
}
);
width = 657;
}
);
note = Agrave;
unicode = 192;
},
{
glyphname = uni1EA2;
kernLeft = A;
kernRight = A;
layers = (
{
hints = (
{
horizontal = 1;
place = (0, 21);
target = up;
type = BottomGhost;
},
{
horizontal = 1;
place = (158, 97);
place = (158, 97);
type = Stem;
},
{
horizontal = 1;
place = (697, -20);
target = down;
type = TopGhost;
},
{
horizontal = 1;
place = (865, 57);
place = (865, 57);
type = Stem;
},
{
place = (374, 66);
place = (374, 66);
type = Stem;
}
);
layerId = m01;
shapes = (
{
closed = 1;
nodes = (
(374,792,o),
(339,786,o),
(307,782,c),
(320,736,l),
(370,745,o),
(440,756,o),
(440,825,cs),
(440,888,o),
(380,922,o),
(294,922,cs),
(279,922,l),
(279,865,l),
(294,865,ls),
(334,865,o),
(374,860,o),
(374,824,cs)
);
},
{
closed = 1;
nodes = (
(525,0,l),
(642,0,l),
(370,697,l),
(287,697,l),
(15,0,l),
(131,0,l),
(189,158,l),
(468,158,l)
);
},
{
closed = 1;
nodes = (
(224,255,l),
(329,541,l),
(433,255,l)
);
}
);
width = 657;
}
);
note = uni1EA2;
unicode = 7842;
},
{
glyphname = Amacron;
kernLeft = A;
kernRight = A;
layers = (
{
hints = (
{
horizontal = 1;
place = (0, 21);
target = up;
type = BottomGhost;
},
{
horizontal = 1;
place = (158, 97);
place = (158, 97);
type = Stem;
},
{
horizontal = 1;
place = (697, -20);
target = down;
type = TopGhost;
},
{
horizontal = 1;
place = (781, 61);
place = (781, 61);
type = Stem;
},
{
place = (191, 273);
place = (191, 273);
type = Stem;
}
);
layerId = m01;
shapes = (
{
closed = 1;
nodes = (
(464,842,l),
(191,842,l),
(191,781,l),
(464,781,l)
);
},
{
closed = 1;
nodes = (
(525,0,l),
(642,0,l),
(370,697,l),
(287,697,l),
(15,0,l),
(131,0,l),
(189,158,l),
(468,158,l)
);
},
{
closed = 1;
nodes = (
(224,255,l),
(329,541,l),
(433,255,l)
);
}
);
width = 657;
}
);
note = Amacron;
unicode = 256;
},
{
glyphname = Aogonek;
kernLeft = A;
kernRight = A;
layers = (
{
hints = (
{
horizontal = 1;
place = (-219, 64);
place = (-219, 64);
type = Stem;
},
{
horizontal = 1;
place = (0, 21);
target = up;
type = BottomGhost;
},
{
horizontal = 1;
place = (158, 97);
place = (158, 97);
type = Stem;
},
{
horizontal = 1;
place = (697, -20);
target = down;
type = TopGhost;
},
{
place = (477, 63);
place = (477, 63);
type = Stem;
}
);
layerId = m01;
shapes = (
{
closed = 1;
nodes = (
(633,-127,l),
(619,-145,o),
(601,-155,o),
(580,-155,cs),
(558,-155,o),
(540,-145,o),
(540,-114,cs),
(540,-46,o),
(624,-10,o),
(642,0,c),
(370,697,l),
(287,697,l),
(15,0,l),
(131,0,l),
(189,158,l),
(468,158,l),
(525,0,l),
(559,0,l),
(524,-21,o),
(477,-63,o),
(477,-124,cs),
(477,-182,o),
(523,-219,o),
(582,-219,cs),
(628,-219,o),
(661,-197,o),
(685,-164,c)
);
},
{
closed = 1;
nodes = (
(224,255,l),
(329,541,l),
(433,255,l)
);
}
);
width = 657;
}
);
note = Aogonek;
unicode = 260;
},
{
glyphname = Aring;
kernLeft = A;
kernRight = A;
layers = (
{
hints = (
{
horizontal = 1;
place = (0, 21);
target = up;
type = BottomGhost;
},
{
horizontal = 1;
place = (158, 97);
place = (158, 97);
type = Stem;
},
{
horizontal = 1;
place = (839, 57);
place = (839, 57);
type = Stem;
},
{
place = (220, 56);
place = (220, 56);
type = Stem;
},
{
place = (380, 57);
place = (380, 57);
type = Stem;
}
);
layerId = m01;
shapes = (
{
closed = 1;
nodes = (
(525,0,l),
(642,0,l),
(373,689,l),
(411,706,o),
(437,744,o),
(437,787,cs),
(437,848,o),
(386,896,o),
(328,896,cs),
(269,896,o),
(220,847,o),
(220,787,cs),
(220,744,o),
(246,706,o),
(284,689,c),
(15,0,l),
(131,0,l),
(189,158,l),
(468,158,l)
);
},
{
closed = 1;
nodes = (
(360,839,o),
(380,818,o),
(380,788,cs),
(380,758,o),
(359,735,o),
(328,735,cs),
(299,735,o),
(276,758,o),
(276,788,cs),
(276,818,o),
(297,839,o),
(328,839,cs)
);
},
{
closed = 1;
nodes = (
(224,255,l),
(329,541,l),
(433,255,l)
);
}
);
width = 657;
}
);
note = Aring;
unicode = 197;
},
{
glyphname = Atilde;
kernLeft = A;
kernRight = A;
layers = (
{
hints = (
{
horizontal = 1;
place = (0, 21);
target = up;
type = BottomGhost;
},
{
horizontal = 1;
place = (158, 97);
place = (158, 97);
type = Stem;
},
{
horizontal = 1;
place = (697, -20);
target = down;
type = TopGhost;
},
{
horizontal = 1;
place = (840, 64);
place = (840, 64);
type = Stem;
},
{
place = (164, 60);
place = (164, 60);
type = Stem;
},
{
place = (429, 63);
place = (429, 63);
type = Stem;
},
{
horizontal = 1;
place = (765, 64);
place = (765, 64);
type = Stem;
}
);
layerId = m01;
shapes = (
{
closed = 1;
nodes = (
(304,840,o),
(314,765,o),
(393,765,cs),
(453,765,o),
(492,814,o),
(492,901,c),
(429,901,l),
(429,855,o),
(414,829,o),
(394,829,cs),
(353,829,o),
(337,904,o),
(266,904,cs),
(203,904,o),
(164,855,o),
(164,770,c),
(224,770,l),
(224,815,o),
(238,840,o),
(262,840,cs)
);
},
{
closed = 1;
nodes = (
(525,0,l),
(642,0,l),
(370,697,l),
(287,697,l),
(15,0,l),
(131,0,l),
(189,158,l),
(468,158,l)
);
},
{
closed = 1;
nodes = (
(224,255,l),
(329,541,l),
(433,255,l)
);
}
);
width = 657;
}
);
note = Atilde;
unicode = 195;
},
{
glyphname = AE;
kernLeft = A;
layers = (
{
hints = (
{
horizontal = 1;
place = (0, 97);
place = (0, 97);
type = Stem;
},
{
horizontal = 1;
place = (157, 95);
place = (157, 95);
type = Stem;
},
{
horizontal = 1;
place = (304, 90);
place = (304, 90);
type = Stem;
},
{
horizontal = 1;
place = (603, 94);
place = (603, 94);
type = Stem;
},
{
place = (400, 109);
place = (400, 109);
type = Stem;
},
{
horizontal = 1;
place = (607, 90);
place = (607, 90);
type = Stem;
}
);
layerId = m01;
shapes = (
{
closed = 1;
nodes = (
(15,0,l),
(131,0,l),
(188,157,l),
(400,157,l),
(400,0,l),
(866,0,l),
(866,97,l),
(509,97,l),
(509,304,l),
(821,304,l),
(821,394,l),
(509,394,l),
(509,603,l),
(866,603,l),
(866,697,l),
(287,697,l)
);
},
{
closed = 1;
nodes = (
(224,252,l),
(352,607,l),
(400,607,l),
(400,252,l)
);
}
);
width = 918;
}
);
note = AE;
unicode = 198;
},
{
glyphname = B;
kernLeft = B;
kernRight = B;
lastChange = "2022-12-26 08:36:43 +0000";
layers = (
{
hints = (
{
horizontal = 1;
place = (0, 99);
place = (0, 99);
type = Stem;
},
{
horizontal = 1;
place = (314, 97);
place = (314, 97);
type = Stem;
},
{
horizontal = 1;
place = (598, 99);
place = (598, 99);
type = Stem;
},
{
place = (97, 107);
place = (97, 107);
type = Stem;
},
{
place = (476, 107);
place = (476, 107);
type = Stem;
},
{
place = (440, 107);
place = (440, 107);
type = Stem;
}
);
layerId = m01;
shapes = (
{
closed = 1;
nodes = (
(112,697,ls),
(102,697,o),
(97,692,o),
(97,682,cs),
(97,0,l),
(358,0,ls),
(500,0,o),
(583,74,o),
(583,201,cs),
(583,290,o),
(542,349,o),
(465,374,c),
(517,401,o),
(547,454,o),
(547,522,cs),
(547,632,o),
(466,697,o),
(330,697,cs)
);
},
{
closed = 1;
nodes = (
(204,411,l),
(204,598,l),
(330,598,ls),
(400,598,o),
(440,564,o),
(440,503,cs),
(440,444,o),
(402,411,o),
(335,411,cs)
);
},
{
closed = 1;
nodes = (
(204,99,l),
(204,314,l),
(356,314,ls),
(433,314,o),
(476,276,o),
(476,210,cs),
(476,140,o),
(429,99,o),
(349,99,cs)
);
}
);
width = 632;
}
);
note = B;
unicode = 66;
},
{
glyphname = C;
kernLeft = C;
kernRight = C;
lastChange = "2022-12-26 08:36:55 +0000";
layers = (
{
hints = (
{
horizontal = 1;
place = (-13, 102);
place = (-13, 102);
type = Stem;
},
{
horizontal = 1;
place = (609, 102);
place = (609, 102);
type = Stem;
},
{
place = (49, 107);
place = (49, 107);
type = Stem;
}
);
layerId = m01;
shapes = (
{
closed = 1;
nodes = (
(599,223,ls),
(590,226,o),
(584,223,o),
(580,214,cs),
(545,131,o),
(476,89,o),
(380,89,cs),
(239,89,o),
(156,183,o),
(156,350,cs),
(156,516,o),
(239,609,o),
(382,609,cs),
(477,609,o),
(544,569,o),
(579,487,cs),
(583,478,o),
(590,474,o),
(599,478,cs),
(684,511,l),
(633,642,o),
(527,711,o),
(382,711,cs),
(178,711,o),
(49,573,o),
(49,349,cs),
(49,126,o),
(177,-13,o),
(380,-13,cs),
(526,-13,o),
(635,58,o),
(686,190,c)
);
}
);
width = 717;
}
);
note = C;
unicode = 67;
},
{
glyphname = Cacute;
kernLeft = C;
kernRight = C;
layers = (
{
hints = (
{
horizontal = 1;
place = (-13, 102);
place = (-13, 102);
type = Stem;
},
{
horizontal = 1;
place = (609, 102);
place = (609, 102);
type = Stem;
},
{
horizontal = 1;
place = (759, 142);
place = (759, 142);
type = Stem;
},
{
place = (49, 107);
place = (49, 107);
type = Stem;
}
);
layerId = m01;
shapes = (
{
closed = 1;
nodes = (
(348,759,l),
(425,759,l),
(569,901,l),
(458,901,l)
);
},
{
closed = 1;
nodes = (
(526,-13,o),
(635,58,o),
(686,190,c),
(585,228,l),
(552,136,o),
(481,89,o),
(380,89,cs),
(239,89,o),
(156,183,o),
(156,350,cs),
(156,516,o),
(239,609,o),
(382,609,cs),
(482,609,o),
(552,564,o),
(585,473,c),
(684,511,l),
(633,642,o),
(527,711,o),
(382,711,cs),
(178,711,o),
(49,573,o),
(49,349,cs),
(49,126,o),
(177,-13,o),
(380,-13,cs)
);
}
);
width = 717;
}
);
note = Cacute;
unicode = 262;
},
{
glyphname = Ccaron;
kernLeft = C;
kernRight = C;
layers = (
{
hints = (
{
horizontal = 1;
place = (-13, 102);
place = (-13, 102);
type = Stem;
},
{
horizontal = 1;
place = (609, 102);
place = (609, 102);
type = Stem;
},
{
place = (49, 107);
place = (49, 107);
type = Stem;
}
);
layerId = m01;
shapes = (
{
closed = 1;
nodes = (
(386,741,l),
(540,901,l),
(459,901,l),
(386,825,l),
(313,901,l),
(232,901,l)
);
},
{
closed = 1;
nodes = (
(526,-13,o),
(635,58,o),
(686,190,c),
(585,228,l),
(552,136,o),
(481,89,o),
(380,89,cs),
(239,89,o),
(156,183,o),
(156,350,cs),
(156,516,o),
(239,609,o),
(382,609,cs),
(482,609,o),
(552,564,o),
(585,473,c),
(684,511,l),
(633,642,o),
(527,711,o),
(382,711,cs),
(178,711,o),
(49,573,o),
(49,349,cs),
(49,126,o),
(177,-13,o),
(380,-13,cs)
);
}
);
width = 717;
}
);
note = Ccaron;
unicode = 268;
},
{
glyphname = Ccedilla;
kernLeft = C;
kernRight = C;
layers = (
{
hints = (
{
horizontal = 1;
place = (-257, 60);
place = (-257, 60);
type = Stem;
},
{
horizontal = 1;
place = (-12, 101);
place = (-12, 101);
type = Stem;
},
{
horizontal = 1;
place = (609, 102);
place = (609, 102);
type = Stem;
},
{
place = (49, 107);
place = (49, 107);
type = Stem;
},
{
place = (419, 60);
place = (419, 60);
type = Stem;
}
);
layerId = m01;
shapes = (
{
closed = 1;
nodes = (
(585,228,l),
(552,136,o),
(481,89,o),
(380,89,cs),
(239,89,o),
(156,183,o),
(156,350,cs),
(156,516,o),
(239,609,o),
(382,609,cs),
(482,609,o),
(552,564,o),
(585,473,c),
(684,511,l),
(633,642,o),
(527,711,o),
(382,711,cs),
(178,711,o),
(49,573,o),
(49,349,cs),
(49,138,o),
(164,2,o),
(348,-12,c),
(297,-95,l),
(322,-95,o),
(345,-97,o),
(364,-100,cs),
(394,-106,o),
(419,-122,o),
(419,-152,cs),
(419,-180,o),
(401,-197,o),
(372,-197,cs),
(356,-197,o),
(335,-191,o),
(316,-170,c),
(283,-220,l),
(309,-247,o),
(343,-257,o),
(370,-257,cs),
(434,-257,o),
(479,-211,o),
(479,-150,cs),
(479,-114,o),
(462,-88,o),
(432,-71,cs),
(417,-63,o),
(399,-58,o),
(378,-54,c),
(408,-12,l),
(540,-3,o),
(638,67,o),
(686,190,c)
);
}
);
width = 717;
}
);
note = Ccedilla;
unicode = 199;
},
{
glyphname = Cdotaccent;
kernLeft = C;
kernRight = C;
layers = (
{
hints = (
{
horizontal = 1;
place = (-13, 102);
place = (-13, 102);
type = Stem;
},
{
horizontal = 1;
place = (609, 102);
place = (609, 102);
type = Stem;
},
{
horizontal = 1;
place = (793, 108);
place = (793, 108);
type = Stem;
},
{
place = (49, 107);
place = (49, 107);
type = Stem;
},
{
place = (331, 110);
place = (331, 110);
type = Stem;
}
);
layerId = m01;
shapes = (
{
closed = 1;
nodes = (
(331,793,l),
(441,793,l),
(441,901,l),
(331,901,l)
);
},
{
closed = 1;
nodes = (
(526,-13,o),
(635,58,o),
(686,190,c),
(585,228,l),
(552,136,o),
(481,89,o),
(380,89,cs),
(239,89,o),
(156,183,o),
(156,350,cs),
(156,516,o),
(239,609,o),
(382,609,cs),
(482,609,o),
(552,564,o),
(585,473,c),
(684,511,l),
(633,642,o),
(527,711,o),
(382,711,cs),
(178,711,o),
(49,573,o),
(49,349,cs),
(49,126,o),
(177,-13,o),
(380,-13,cs)
);
}
);
width = 717;
}
);
note = Cdotaccent;
unicode = 266;
},
{
glyphname = D;
kernLeft = B;
kernRight = D;
lastChange = "2022-12-26 08:37:16 +0000";
layers = (
{
hints = (
{
horizontal = 1;
place = (0, 99);
place = (0, 99);
type = Stem;
},
{
horizontal = 1;
place = (598, 99);
place = (598, 99);
type = Stem;
},
{
place = (97, 107);
place = (97, 107);
type = Stem;
},
{
place = (547, 108);
place = (547, 108);
type = Stem;
}
);
layerId = m01;
shapes = (
{
closed = 1;
nodes = (
(97,0,l),
(293,0,ls),
(528,0,o),
(655,121,o),
(655,343,cs),
(655,569,o),
(524,697,o),
(294,697,cs),
(112,697,ls),
(104,697,o),
(97,690,o),
(97,682,cs)
);
},
{
closed = 1;
nodes = (
(204,99,l),
(204,598,l),
(293,598,ls),
(466,598,o),
(547,518,o),
(547,347,cs),
(547,175,o),
(466,99,o),
(283,99,cs)
);
}
);
width = 702;
}
);
note = D;
unicode = 68;
},
{
glyphname = Eth;
kernLeft = B;
kernRight = D;
layers = (
{
hints = (
{
horizontal = 1;
place = (0, 99);
place = (0, 99);
type = Stem;
},
{
horizontal = 1;
place = (314, 69);
place = (314, 69);
type = Stem;
},
{
horizontal = 1;
place = (598, 99);
place = (598, 99);
type = Stem;
},
{
place = (97, 107);
place = (97, 107);
type = Stem;
},
{
place = (547, 108);
place = (547, 108);
type = Stem;
}
);
layerId = m01;
shapes = (
{
closed = 1;
nodes = (
(97,697,l),
(97,383,l),
(19,383,l),
(19,314,l),
(97,314,l),
(97,0,l),
(293,0,ls),
(528,0,o),
(655,121,o),
(655,343,cs),
(655,569,o),
(524,697,o),
(294,697,cs)
);
},
{
closed = 1;
nodes = (
(204,99,l),
(204,314,l),
(324,314,l),
(324,383,l),
(204,383,l),
(204,598,l),
(293,598,ls),
(466,598,o),
(547,518,o),
(547,347,cs),
(547,175,o),
(466,99,o),
(283,99,cs)
);
}
);
width = 702;
}
);
note = Eth;
unicode = 208;
},
{
glyphname = Dcaron;
kernLeft = B;
kernRight = D;
layers = (
{
hints = (
{
horizontal = 1;
place = (0, 99);
place = (0, 99);
type = Stem;
},
{
horizontal = 1;
place = (598, 99);
place = (598, 99);
type = Stem;
},
{
place = (97, 107);
place = (97, 107);
type = Stem;
},
{
place = (547, 108);
place = (547, 108);
type = Stem;
}
);
layerId = m01;
shapes = (
{
closed = 1;
nodes = (
(352,741,l),
(506,901,l),
(425,901,l),
(352,825,l),
(279,901,l),
(198,901,l)
);
},
{
closed = 1;
nodes = (
(97,0,l),
(293,0,ls),
(528,0,o),
(655,121,o),
(655,343,cs),
(655,569,o),
(524,697,o),
(294,697,cs),
(97,697,l)
);
},
{
closed = 1;
nodes = (
(204,99,l),
(204,598,l),
(293,598,ls),
(466,598,o),
(547,518,o),
(547,347,cs),
(547,175,o),
(466,99,o),
(283,99,cs)
);
}
);
width = 702;
}
);
note = Dcaron;
unicode = 270;
},
{
glyphname = Dcroat;
kernLeft = B;
kernRight = D;
layers = (
{
hints = (
{
horizontal = 1;
place = (0, 99);
place = (0, 99);
type = Stem;
},
{
horizontal = 1;
place = (314, 69);
place = (314, 69);
type = Stem;
},
{
horizontal = 1;
place = (598, 99);
place = (598, 99);
type = Stem;
},
{
place = (97, 107);
place = (97, 107);
type = Stem;
},
{
place = (547, 108);
place = (547, 108);
type = Stem;
}
);
layerId = m01;
shapes = (
{
closed = 1;
nodes = (
(97,697,l),
(97,383,l),
(19,383,l),
(19,314,l),
(97,314,l),
(97,0,l),
(293,0,ls),
(528,0,o),
(655,121,o),
(655,343,cs),
(655,569,o),
(524,697,o),
(294,697,cs)
);
},
{
closed = 1;
nodes = (
(204,99,l),
(204,314,l),
(324,314,l),
(324,383,l),
(204,383,l),
(204,598,l),
(293,598,ls),
(466,598,o),
(547,518,o),
(547,347,cs),
(547,175,o),
(466,99,o),
(283,99,cs)
);
}
);
width = 702;
}
);
note = Dcroat;
unicode = 272;
},
{
glyphname = E;
kernLeft = B;
lastChange = "2022-12-26 08:37:29 +0000";
layers = (
{
hints = (
{
horizontal = 1;
place = (0, 99);
place = (0, 99);
type = Stem;
},
{
horizontal = 1;
place = (308, 99);
place = (308, 99);
type = Stem;
},
{
horizontal = 1;
place = (598, 99);
place = (598, 99);
type = Stem;
},
{
place = (97, 107);
place = (97, 107);
type = Stem;
}
);
layerId = m01;
shapes = (
{
closed = 1;
nodes = (
(529,392,ls),
(529,402,o),
(524,407,o),
(514,407,cs),
(204,407,l),
(204,598,l),
(558,598,l),
(558,697,l),
(97,697,l),
(97,0,l),
(558,0,l),
(558,99,l),
(204,99,l),
(204,308,l),
(529,308,l)
);
}
);
width = 617;
}
);
note = E;
unicode = 69;
},
{
glyphname = Eacute;
kernLeft = B;
layers = (
{
hints = (
{
horizontal = 1;
place = (0, 99);
place = (0, 99);
type = Stem;
},
{
horizontal = 1;
place = (308, 99);
place = (308, 99);
type = Stem;
},
{
horizontal = 1;
place = (598, 99);
place = (598, 99);
type = Stem;
},
{
horizontal = 1;
place = (759, 142);
place = (759, 142);
type = Stem;
},
{
place = (97, 107);
place = (97, 107);
type = Stem;
}
);
layerId = m01;
shapes = (
{
closed = 1;
nodes = (
(289,759,l),
(366,759,l),
(510,901,l),
(399,901,l)
);
},
{
closed = 1;
nodes = (
(97,0,l),
(558,0,l),
(558,99,l),
(204,99,l),
(204,308,l),
(529,308,l),
(529,407,l),
(204,407,l),
(204,598,l),
(558,598,l),
(558,697,l),
(97,697,l)
);
}
);
width = 617;
}
);
note = Eacute;
unicode = 201;
},
{
glyphname = Ecaron;
kernLeft = B;
layers = (
{
hints = (
{
horizontal = 1;
place = (0, 99);
place = (0, 99);
type = Stem;
},
{
horizontal = 1;
place = (308, 99);
place = (308, 99);
type = Stem;
},
{
horizontal = 1;
place = (598, 99);
place = (598, 99);
type = Stem;
},
{
place = (97, 107);
place = (97, 107);
type = Stem;
}
);
layerId = m01;
shapes = (
{
closed = 1;
nodes = (
(327,741,l),
(481,901,l),
(400,901,l),
(327,825,l),
(254,901,l),
(173,901,l)
);
},
{
closed = 1;
nodes = (
(97,0,l),
(558,0,l),
(558,99,l),
(204,99,l),
(204,308,l),
(529,308,l),
(529,407,l),
(204,407,l),
(204,598,l),
(558,598,l),
(558,697,l),
(97,697,l)
);
}
);
width = 617;
}
);
note = Ecaron;
unicode = 282;
},
{
glyphname = Ecircumflex;
kernLeft = B;
layers = (
{
hints = (
{
horizontal = 1;
place = (0, 99);
place = (0, 99);
type = Stem;
},
{
horizontal = 1;
place = (308, 99);
place = (308, 99);
type = Stem;
},
{
horizontal = 1;
place = (598, 99);
place = (598, 99);
type = Stem;
},
{
place = (97, 107);
place = (97, 107);
type = Stem;
}
);
layerId = m01;
shapes = (
{
closed = 1;
nodes = (
(173,747,l),
(255,747,l),
(327,828,l),
(400,747,l),
(481,747,l),
(327,916,l)
);
},
{
closed = 1;
nodes = (
(97,0,l),
(558,0,l),
(558,99,l),
(204,99,l),
(204,308,l),
(529,308,l),
(529,407,l),
(204,407,l),
(204,598,l),
(558,598,l),
(558,697,l),
(97,697,l)
);
}
);
width = 617;
}
);
note = Ecircumflex;
unicode = 202;
},
{
glyphname = uni1EBE;
kernLeft = B;
layers = (
{
hints = (
{
horizontal = 1;
place = (0, 99);
place = (0, 99);
type = Stem;
},
{
horizontal = 1;
place = (308, 99);
place = (308, 99);
type = Stem;
},
{
horizontal = 1;
place = (598, 99);
place = (598, 99);
type = Stem;
},
{
horizontal = 1;
place = (947, 142);
place = (947, 142);
type = Stem;
},
{
place = (97, 107);
place = (97, 107);
type = Stem;
}
);
layerId = m01;
shapes = (
{
closed = 1;
nodes = (
(289,947,l),
(366,947,l),
(510,1089,l),
(399,1089,l)
);
},
{
closed = 1;
nodes = (
(173,747,l),
(255,747,l),
(327,828,l),
(400,747,l),
(481,747,l),
(327,916,l)
);
},
{
closed = 1;
nodes = (
(97,0,l),
(558,0,l),
(558,99,l),
(204,99,l),
(204,308,l),
(529,308,l),
(529,407,l),
(204,407,l),
(204,598,l),
(558,598,l),
(558,697,l),
(97,697,l)
);
}
);
width = 617;
}
);
note = uni1EBE;
unicode = 7870;
},
{
glyphname = uni1EC6;
kernLeft = B;
layers = (
{
hints = (
{
horizontal = 1;
place = (-173, 108);
place = (-173, 108);
type = Stem;
},
{
horizontal = 1;
place = (0, 99);
place = (0, 99);
type = Stem;
},
{
horizontal = 1;
place = (308, 99);
place = (308, 99);
type = Stem;
},
{
horizontal = 1;
place = (598, 99);
place = (598, 99);
type = Stem;
},
{
place = (97, 107);
place = (97, 107);
type = Stem;
},
{
place = (272, 110);
place = (272, 110);
type = Stem;
}
);
layerId = m01;
shapes = (
{
closed = 1;
nodes = (
(173,747,l),
(255,747,l),
(327,828,l),
(400,747,l),
(481,747,l),
(327,916,l)
);
},
{
closed = 1;
nodes = (
(97,0,l),
(558,0,l),
(558,99,l),
(204,99,l),
(204,308,l),
(529,308,l),
(529,407,l),
(204,407,l),
(204,598,l),
(558,598,l),
(558,697,l),
(97,697,l)
);
},
{
closed = 1;
nodes = (
(272,-173,l),
(382,-173,l),
(382,-65,l),
(272,-65,l)
);
}
);
width = 617;
}
);
note = uni1EC6;
unicode = 7878;
},
{
glyphname = uni1EC0;
kernLeft = B;
layers = (
{
hints = (
{
horizontal = 1;
place = (0, 99);
place = (0, 99);
type = Stem;
},
{
horizontal = 1;
place = (308, 99);
place = (308, 99);
type = Stem;
},
{
horizontal = 1;
place = (598, 99);
place = (598, 99);
type = Stem;
},
{
horizontal = 1;
place = (947, 142);
place = (947, 142);
type = Stem;
},
{
place = (97, 107);
place = (97, 107);
type = Stem;
}
);
layerId = m01;
shapes = (
{
closed = 1;
nodes = (
(288,947,l),
(366,947,l),
(262,1089,l),
(152,1089,l)
);
},
{
closed = 1;
nodes = (
(173,747,l),
(255,747,l),
(327,828,l),
(400,747,l),
(481,747,l),
(327,916,l)
);
},
{
closed = 1;
nodes = (
(97,0,l),
(558,0,l),
(558,99,l),
(204,99,l),
(204,308,l),
(529,308,l),
(529,407,l),
(204,407,l),
(204,598,l),
(558,598,l),
(558,697,l),
(97,697,l)
);
}
);
width = 617;
}
);
note = uni1EC0;
unicode = 7872;
},
{
glyphname = uni1EC2;
kernLeft = B;
layers = (
{
hints = (
{
horizontal = 1;
place = (0, 99);
place = (0, 99);
type = Stem;
},
{
horizontal = 1;
place = (308, 99);
place = (308, 99);
type = Stem;
},
{
horizontal = 1;
place = (598, 99);
place = (598, 99);
type = Stem;
},
{
horizontal = 1;
place = (1053, 57);
place = (1053, 57);
type = Stem;
},
{
place = (97, 107);
place = (97, 107);
type = Stem;
},
{
place = (373, 66);
place = (373, 66);
type = Stem;
}
);
layerId = m01;
shapes = (
{
closed = 1;
nodes = (
(319,924,l),
(369,933,o),
(439,944,o),
(439,1013,cs),
(439,1076,o),
(379,1110,o),
(293,1110,cs),
(278,1110,l),
(278,1053,l),
(293,1053,ls),
(333,1053,o),
(373,1048,o),
(373,1012,cs),
(373,980,o),
(338,974,o),
(306,970,c)
);
},
{
closed = 1;
nodes = (
(173,747,l),
(255,747,l),
(327,828,l),
(400,747,l),
(481,747,l),
(327,916,l)
);
},
{
closed = 1;
nodes = (
(97,0,l),
(558,0,l),
(558,99,l),
(204,99,l),
(204,308,l),
(529,308,l),
(529,407,l),
(204,407,l),
(204,598,l),
(558,598,l),
(558,697,l),
(97,697,l)
);
}
);
width = 617;
}
);
note = uni1EC2;
unicode = 7874;
},
{
glyphname = uni1EC4;
kernLeft = B;
layers = (
{
hints = (
{
horizontal = 1;
place = (0, 99);
place = (0, 99);
type = Stem;
},
{
horizontal = 1;
place = (308, 99);
place = (308, 99);
type = Stem;
},
{
horizontal = 1;
place = (598, 99);
place = (598, 99);
type = Stem;
},
{
horizontal = 1;
place = (953, 64);
place = (953, 64);
type = Stem;
},
{
horizontal = 1;
place = (1028, 64);
place = (1028, 64);
type = Stem;
},
{
place = (97, 107);
place = (97, 107);
type = Stem;
},
{
place = (428, 63);
place = (428, 63);
type = Stem;
},
{
place = (163, 60);
place = (163, 60);
type = Stem;
}
);
layerId = m01;
shapes = (
{
closed = 1;
nodes = (
(452,953,o),
(491,1002,o),
(491,1089,c),
(428,1089,l),
(428,1043,o),
(413,1017,o),
(393,1017,cs),
(352,1017,o),
(336,1092,o),
(265,1092,cs),
(202,1092,o),
(163,1043,o),
(163,958,c),
(223,958,l),
(223,1003,o),
(237,1028,o),
(261,1028,cs),
(303,1028,o),
(313,953,o),
(392,953,cs)
);
},
{
closed = 1;
nodes = (
(173,747,l),
(255,747,l),
(327,828,l),
(400,747,l),
(481,747,l),
(327,916,l)
);
},
{
closed = 1;
nodes = (
(97,0,l),
(558,0,l),
(558,99,l),
(204,99,l),
(204,308,l),
(529,308,l),
(529,407,l),
(204,407,l),
(204,598,l),
(558,598,l),
(558,697,l),
(97,697,l)
);
}
);
width = 617;
}
);
note = uni1EC4;
unicode = 7876;
},
{
glyphname = Edieresis;
kernLeft = B;
layers = (
{
hints = (
{
horizontal = 1;
place = (0, 99);
place = (0, 99);
type = Stem;
},
{
horizontal = 1;
place = (308, 99);
place = (308, 99);
type = Stem;
},
{
horizontal = 1;
place = (598, 99);
place = (598, 99);
type = Stem;
},
{
horizontal = 1;
place = (793, 108);
place = (793, 108);
type = Stem;
},
{
place = (186, 94);
place = (186, 94);
type = Stem;
},
{
place = (376, 94);
place = (376, 94);
type = Stem;
},
{
place = (97, 107);
place = (97, 107);
type = Stem;
}
);
layerId = m01;
shapes = (
{
closed = 1;
nodes = (
(186,793,l),
(280,793,l),
(280,901,l),
(186,901,l)
);
},
{
closed = 1;
nodes = (
(376,793,l),
(470,793,l),
(470,901,l),
(376,901,l)
);
},
{
closed = 1;
nodes = (
(97,0,l),
(558,0,l),
(558,99,l),
(204,99,l),
(204,308,l),
(529,308,l),
(529,407,l),
(204,407,l),
(204,598,l),
(558,598,l),
(558,697,l),
(97,697,l)
);
}
);
width = 617;
}
);
note = Edieresis;
unicode = 203;
},
{
glyphname = Edotaccent;
kernLeft = B;
layers = (
{
hints = (
{
horizontal = 1;
place = (0, 99);
place = (0, 99);
type = Stem;
},
{
horizontal = 1;
place = (308, 99);
place = (308, 99);
type = Stem;
},
{
horizontal = 1;
place = (598, 99);
place = (598, 99);
type = Stem;
},
{
horizontal = 1;
place = (793, 108);
place = (793, 108);
type = Stem;
},
{
place = (97, 107);
place = (97, 107);
type = Stem;
},
{
place = (272, 110);
place = (272, 110);
type = Stem;
}
);
layerId = m01;
shapes = (
{
closed = 1;
nodes = (
(272,793,l),
(382,793,l),
(382,901,l),
(272,901,l)
);
},
{
closed = 1;
nodes = (
(97,0,l),
(558,0,l),
(558,99,l),
(204,99,l),
(204,308,l),
(529,308,l),
(529,407,l),
(204,407,l),
(204,598,l),
(558,598,l),
(558,697,l),
(97,697,l)
);
}
);
width = 617;
}
);
note = Edotaccent;
unicode = 278;
},
{
glyphname = uni1EB8;
kernLeft = B;
layers = (
{
hints = (
{
horizontal = 1;
place = (-173, 108);
place = (-173, 108);
type = Stem;
},
{
horizontal = 1;
place = (0, 99);
place = (0, 99);
type = Stem;
},
{
horizontal = 1;
place = (308, 99);
place = (308, 99);
type = Stem;
},
{
horizontal = 1;
place = (598, 99);
place = (598, 99);
type = Stem;
},
{
place = (97, 107);
place = (97, 107);
type = Stem;
},
{
place = (272, 110);
place = (272, 110);
type = Stem;
}
);
layerId = m01;
shapes = (
{
closed = 1;
nodes = (
(97,0,l),
(558,0,l),
(558,99,l),
(204,99,l),
(204,308,l),
(529,308,l),
(529,407,l),
(204,407,l),
(204,598,l),
(558,598,l),
(558,697,l),
(97,697,l)
);
},
{
closed = 1;
nodes = (
(272,-173,l),
(382,-173,l),
(382,-65,l),
(272,-65,l)
);
}
);
width = 617;
}
);
note = uni1EB8;
unicode = 7864;
},
{
glyphname = Egrave;
kernLeft = B;
layers = (
{
hints = (
{
horizontal = 1;
place = (0, 99);
place = (0, 99);
type = Stem;
},
{
horizontal = 1;
place = (308, 99);
place = (308, 99);
type = Stem;
},
{
horizontal = 1;
place = (598, 99);
place = (598, 99);
type = Stem;
},
{
horizontal = 1;
place = (759, 142);
place = (759, 142);
type = Stem;
},
{
place = (97, 107);
place = (97, 107);
type = Stem;
}
);
layerId = m01;
shapes = (
{
closed = 1;
nodes = (
(288,759,l),
(366,759,l),
(262,901,l),
(152,901,l)
);
},
{
closed = 1;
nodes = (
(97,0,l),
(558,0,l),
(558,99,l),
(204,99,l),
(204,308,l),
(529,308,l),
(529,407,l),
(204,407,l),
(204,598,l),
(558,598,l),
(558,697,l),
(97,697,l)
);
}
);
width = 617;
}
);
note = Egrave;
unicode = 200;
},
{
glyphname = uni1EBA;
kernLeft = B;
layers = (
{
hints = (
{
horizontal = 1;
place = (0, 99);
place = (0, 99);
type = Stem;
},
{
horizontal = 1;
place = (308, 99);
place = (308, 99);
type = Stem;
},
{
horizontal = 1;
place = (598, 99);
place = (598, 99);
type = Stem;
},
{
horizontal = 1;
place = (865, 57);
place = (865, 57);
type = Stem;
},
{
place = (97, 107);
place = (97, 107);
type = Stem;
},
{
place = (373, 66);
place = (373, 66);
type = Stem;
}
);
layerId = m01;
shapes = (
{
closed = 1;
nodes = (
(319,736,l),
(369,745,o),
(439,756,o),
(439,825,cs),
(439,888,o),
(379,922,o),
(293,922,cs),
(278,922,l),
(278,865,l),
(293,865,ls),
(333,865,o),
(373,860,o),
(373,824,cs),
(373,792,o),
(338,786,o),
(306,782,c)
);
},
{
closed = 1;
nodes = (
(97,0,l),
(558,0,l),
(558,99,l),
(204,99,l),
(204,308,l),
(529,308,l),
(529,407,l),
(204,407,l),
(204,598,l),
(558,598,l),
(558,697,l),
(97,697,l)
);
}
);
width = 617;
}
);
note = uni1EBA;
unicode = 7866;
},
{
glyphname = Emacron;
kernLeft = B;
layers = (
{
hints = (
{
horizontal = 1;
place = (0, 99);
place = (0, 99);
type = Stem;
},
{
horizontal = 1;
place = (308, 99);
place = (308, 99);
type = Stem;
},
{
horizontal = 1;
place = (598, 99);
place = (598, 99);
type = Stem;
},
{
horizontal = 1;
place = (781, 61);
place = (781, 61);
type = Stem;
},
{
place = (190, 273);
place = (190, 273);
type = Stem;
},
{
place = (97, 107);
place = (97, 107);
type = Stem;
}
);
layerId = m01;
shapes = (
{
closed = 1;
nodes = (
(190,781,l),
(463,781,l),
(463,842,l),
(190,842,l)
);
},
{
closed = 1;
nodes = (
(97,0,l),
(558,0,l),
(558,99,l),
(204,99,l),
(204,308,l),
(529,308,l),
(529,407,l),
(204,407,l),
(204,598,l),
(558,598,l),
(558,697,l),
(97,697,l)
);
}
);
width = 617;
}
);
note = Emacron;
unicode = 274;
},
{
glyphname = Eogonek;
kernLeft = B;
layers = (
{
hints = (
{
horizontal = 1;
place = (-219, 64);
place = (-219, 64);
type = Stem;
},
{
horizontal = 1;
place = (0, 99);
place = (0, 99);
type = Stem;
},
{
horizontal = 1;
place = (308, 99);
place = (308, 99);
type = Stem;
},
{
horizontal = 1;
place = (598, 99);
place = (598, 99);
type = Stem;
},
{
place = (97, 107);
place = (97, 107);
type = Stem;
},
{
place = (393, 63);
place = (393, 63);
type = Stem;
},
{
place = (475, 83);
place = (475, 83);
type = Stem;
}
);
layerId = m01;
shapes = (
{
closed = 1;
nodes = (
(549,-127,l),
(535,-145,o),
(517,-155,o),
(496,-155,cs),
(474,-155,o),
(456,-145,o),
(456,-114,cs),
(456,-46,o),
(540,-10,o),
(558,0,c),
(558,99,l),
(204,99,l),
(204,308,l),
(529,308,l),
(529,407,l),
(204,407,l),
(204,598,l),
(558,598,l),
(558,697,l),
(97,697,l),
(97,0,l),
(475,0,l),
(440,-21,o),
(393,-63,o),
(393,-124,cs),
(393,-182,o),
(439,-219,o),
(498,-219,cs),
(544,-219,o),
(577,-197,o),
(601,-164,c)
);
}
);
width = 617;
}
);
note = Eogonek;
unicode = 280;
},
{
glyphname = uni1EBC;
kernLeft = B;
layers = (
{
hints = (
{
horizontal = 1;
place = (0, 99);
place = (0, 99);
type = Stem;
},
{
horizontal = 1;
place = (308, 99);
place = (308, 99);
type = Stem;
},
{
horizontal = 1;
place = (598, 99);
place = (598, 99);
type = Stem;
},
{
horizontal = 1;
place = (765, 64);
place = (765, 64);
type = Stem;
},
{
horizontal = 1;
place = (840, 64);
place = (840, 64);
type = Stem;
},
{
place = (97, 107);
place = (97, 107);
type = Stem;
},
{
place = (428, 63);
place = (428, 63);
type = Stem;
},
{
place = (163, 60);
place = (163, 60);
type = Stem;
}
);
layerId = m01;
shapes = (
{
closed = 1;
nodes = (
(452,765,o),
(491,814,o),
(491,901,c),
(428,901,l),
(428,855,o),
(413,829,o),
(393,829,cs),
(352,829,o),
(336,904,o),
(265,904,cs),
(202,904,o),
(163,855,o),
(163,770,c),
(223,770,l),
(223,815,o),
(237,840,o),
(261,840,cs),
(303,840,o),
(313,765,o),
(392,765,cs)
);
},
{
closed = 1;
nodes = (
(97,0,l),
(558,0,l),
(558,99,l),
(204,99,l),
(204,308,l),
(529,308,l),
(529,407,l),
(204,407,l),
(204,598,l),
(558,598,l),
(558,697,l),
(97,697,l)
);
}
);
width = 617;
}
);
note = uni1EBC;
unicode = 7868;
},
{
glyphname = F;
kernLeft = B;
kernRight = F;
lastChange = "2022-12-26 08:37:38 +0000";
layers = (
{
hints = (
{
horizontal = 1;
place = (0, 21);
target = up;
type = BottomGhost;
},
{
horizontal = 1;
place = (308, 99);
place = (308, 99);
type = Stem;
},
{
horizontal = 1;
place = (598, 99);
place = (598, 99);
type = Stem;
},
{
place = (97, 107);
place = (97, 107);
type = Stem;
}
);
layerId = m01;
shapes = (
{
closed = 1;
nodes = (
(569,598,ls),
(579,598,o),
(584,603,o),
(584,613,cs),
(584,697,l),
(97,697,l),
(97,0,l),
(150,0,l),
(204,50,l),
(204,308,l),
(538,308,l),
(538,407,l),
(204,407,l),
(204,598,l)
);
}
);
width = 613;
}
);
note = F;
unicode = 70;
},
{
glyphname = G;
kernLeft = C;
kernRight = G;
lastChange = "2022-12-26 08:37:59 +0000";
layers = (
{
hints = (
{
horizontal = 1;
place = (-13, 102);
place = (-13, 102);
type = Stem;
},
{
horizontal = 1;
place = (275, 96);
place = (275, 96);
type = Stem;
},
{
horizontal = 1;
place = (609, 102);
place = (609, 102);
type = Stem;
},
{
place = (48, 107);
place = (48, 107);
type = Stem;
},
{
place = (582, 105);
place = (582, 105);
type = Stem;
},
{
horizontal = 1;
place = (0, 21);
target = up;
type = BottomGhost;
}
);
layerId = m01;
shapes = (
{
closed = 1;
nodes = (
(437,371,ls),
(427,371,o),
(422,366,o),
(422,356,cs),
(422,275,l),
(582,275,l),
(582,262,ls),
(582,146,o),
(503,89,o),
(388,89,cs),
(236,89,o),
(155,190,o),
(155,352,cs),
(155,511,o),
(235,609,o),
(381,609,cs),
(482,609,o),
(551,562,o),
(584,473,c),
(668,506,ls),
(677,510,o),
(680,516,o),
(676,525,cs),
(625,644,o),
(521,711,o),
(382,711,cs),
(171,711,o),
(48,557,o),
(48,350,cs),
(48,133,o),
(184,-13,o),
(381,-13,cs),
(477,-13,o),
(555,21,o),
(595,82,c),
(609,0,l),
(649,0,l),
(687,50,l),
(687,371,l)
);
}
);
width = 759;
}
);
note = G;
unicode = 71;
},
{
glyphname = Gbreve;
kernLeft = C;
kernRight = G;
layers = (
{
hints = (
{
horizontal = 1;
place = (-13, 102);
place = (-13, 102);
type = Stem;
},
{
horizontal = 1;
place = (275, 96);
place = (275, 96);
type = Stem;
},
{
horizontal = 1;
place = (609, 102);
place = (609, 102);
type = Stem;
},
{
horizontal = 1;
place = (769, 60);
place = (769, 60);
type = Stem;
},
{
place = (48, 107);
place = (48, 107);
type = Stem;
},
{
place = (225, 73);
place = (225, 73);
type = Stem;
},
{
place = (460, 73);
place = (460, 73);
type = Stem;
},
{
place = (582, 105);
place = (582, 105);
type = Stem;
},
{
horizontal = 1;
place = (0, 21);
target = up;
type = BottomGhost;
}
);
layerId = m01;
shapes = (
{
closed = 1;
nodes = (
(480,769,o),
(533,812,o),
(533,901,c),
(460,901,l),
(460,855,o),
(427,829,o),
(379,829,cs),
(333,829,o),
(298,853,o),
(298,901,c),
(225,901,l),
(225,815,o),
(273,769,o),
(379,769,cs)
);
},
{
closed = 1;
nodes = (
(422,371,l),
(422,275,l),
(582,275,l),
(582,262,ls),
(582,146,o),
(503,89,o),
(388,89,cs),
(236,89,o),
(155,190,o),
(155,352,cs),
(155,511,o),
(235,609,o),
(381,609,cs),
(482,609,o),
(551,562,o),
(584,473,c),
(682,511,l),
(633,639,o),
(526,711,o),
(382,711,cs),
(171,711,o),
(48,557,o),
(48,350,cs),
(48,133,o),
(184,-13,o),
(381,-13,cs),
(477,-13,o),
(555,21,o),
(595,82,c),
(609,0,l),
(687,0,l),
(687,371,l)
);
}
);
width = 759;
}
);
note = Gbreve;
unicode = 286;
},
{
glyphname = uni0122;
kernLeft = C;
kernRight = G;
layers = (
{
hints = (
{
horizontal = 1;
place = (-13, 102);
place = (-13, 102);
type = Stem;
},
{
horizontal = 1;
place = (275, 96);
place = (275, 96);
type = Stem;
},
{
horizontal = 1;
place = (609, 102);
place = (609, 102);
type = Stem;
},
{
place = (48, 107);
place = (48, 107);
type = Stem;
},
{
place = (582, 105);
place = (582, 105);
type = Stem;
},
{
horizontal = 1;
place = (-224, 170);
place = (-224, 170);
type = Stem;
},
{
horizontal = 1;
place = (0, 21);
target = up;
type = BottomGhost;
}
);
layerId = m01;
shapes = (
{
closed = 1;
nodes = (
(422,371,l),
(422,275,l),
(582,275,l),
(582,262,ls),
(582,146,o),
(503,89,o),
(388,89,cs),
(236,89,o),
(155,190,o),
(155,352,cs),
(155,511,o),
(235,609,o),
(381,609,cs),
(482,609,o),
(551,562,o),
(584,473,c),
(682,511,l),
(633,639,o),
(526,711,o),
(382,711,cs),
(171,711,o),
(48,557,o),
(48,350,cs),
(48,133,o),
(184,-13,o),
(381,-13,cs),
(477,-13,o),
(555,21,o),
(595,82,c),
(609,0,l),
(687,0,l),
(687,371,l)
);
},
{
closed = 1;
nodes = (
(251,-224,l),
(312,-224,l),
(432,-54,l),
(325,-54,l)
);
}
);
width = 759;
}
);
note = uni0122;
unicode = 290;
},
{
glyphname = Gdotaccent;
kernLeft = C;
kernRight = G;
layers = (
{
hints = (
{
horizontal = 1;
place = (-13, 102);
place = (-13, 102);
type = Stem;
},
{
horizontal = 1;
place = (275, 96);
place = (275, 96);
type = Stem;
},
{
horizontal = 1;
place = (609, 102);
place = (609, 102);
type = Stem;
},
{
horizontal = 1;
place = (793, 108);
place = (793, 108);
type = Stem;
},
{
place = (48, 107);
place = (48, 107);
type = Stem;
},
{
place = (324, 110);
place = (324, 110);
type = Stem;
},
{
place = (582, 105);
place = (582, 105);
type = Stem;
},
{
horizontal = 1;
place = (0, 21);
target = up;
type = BottomGhost;
}
);
layerId = m01;
shapes = (
{
closed = 1;
nodes = (
(434,901,l),
(324,901,l),
(324,793,l),
(434,793,l)
);
},
{
closed = 1;
nodes = (
(422,371,l),
(422,275,l),
(582,275,l),
(582,262,ls),
(582,146,o),
(503,89,o),
(388,89,cs),
(236,89,o),
(155,190,o),
(155,352,cs),
(155,511,o),
(235,609,o),
(381,609,cs),
(482,609,o),
(551,562,o),
(584,473,c),
(682,511,l),
(633,639,o),
(526,711,o),
(382,711,cs),
(171,711,o),
(48,557,o),
(48,350,cs),
(48,133,o),
(184,-13,o),
(381,-13,cs),
(477,-13,o),
(555,21,o),
(595,82,c),
(609,0,l),
(687,0,l),
(687,371,l)
);
}
);
width = 759;
}
);
note = Gdotaccent;
unicode = 288;
},
{
glyphname = H;
kernLeft = B;
kernRight = H;
layers = (
{
hints = (
{
horizontal = 1;
place = (0, 21);
target = up;
type = BottomGhost;
},
{
horizontal = 1;
place = (308, 99);
place = (308, 99);
type = Stem;
},
{
horizontal = 1;
place = (697, -20);
target = down;
type = TopGhost;
},
{
place = (97, 107);
place = (97, 107);
type = Stem;
},
{
place = (528, 107);
place = (528, 107);
type = Stem;
}
);
layerId = m01;
shapes = (
{
closed = 1;
nodes = (
(97,0,l),
(204,0,l),
(204,308,l),
(528,308,l),
(528,0,l),
(635,0,l),
(635,697,l),
(528,697,l),
(528,407,l),
(204,407,l),
(204,697,l),
(97,697,l)
);
}
);
width = 732;
}
);
note = H;
unicode = 72;
},
{
glyphname = Hbar;
kernLeft = B;
kernRight = H;
layers = (
{
hints = (
{
horizontal = 1;
place = (0, 21);
target = up;
type = BottomGhost;
},
{
horizontal = 1;
place = (308, 99);
place = (308, 99);
type = Stem;
},
{
horizontal = 1;
place = (525, 61);
place = (525, 61);
type = Stem;
},
{
place = (97, 107);
place = (97, 107);
type = Stem;
},
{
place = (528, 107);
place = (528, 107);
type = Stem;
},
{
horizontal = 1;
place = (525, 172);
place = (525, 172);
type = Stem;
}
);
layerId = m01;
shapes = (
{
closed = 1;
nodes = (
(690,586,l),
(635,586,l),
(635,697,l),
(528,697,l),
(528,586,l),
(204,586,l),
(204,697,l),
(97,697,l),
(97,586,l),
(41,586,l),
(41,525,l),
(97,525,l),
(97,0,l),
(204,0,l),
(204,308,l),
(528,308,l),
(528,0,l),
(635,0,l),
(635,525,l),
(690,525,l)
);
},
{
closed = 1;
nodes = (
(528,407,l),
(204,407,l),
(204,525,l),
(528,525,l)
);
}
);
width = 732;
}
);
note = Hbar;
unicode = 294;
},
{
glyphname = I;
kernLeft = B;
kernRight = H;
layers = (
{
hints = (
{
horizontal = 1;
place = (0, 21);
target = up;
type = BottomGhost;
},
{
horizontal = 1;
place = (697, -20);
target = down;
type = TopGhost;
},
{
place = (97, 107);
place = (97, 107);
type = Stem;
}
);
layerId = m01;
shapes = (
{
closed = 1;
nodes = (
(97,0,l),
(204,0,l),
(204,697,l),
(97,697,l)
);
}
);
width = 300;
}
);
note = I;
unicode = 73;
},
{
glyphname = Iacute;
kernLeft = B;
kernRight = H;
layers = (
{
hints = (
{
horizontal = 1;
place = (0, 21);
target = up;
type = BottomGhost;
},
{
horizontal = 1;
place = (697, -20);
target = down;
type = TopGhost;
},
{
horizontal = 1;
place = (759, 142);
place = (759, 142);
type = Stem;
},
{
place = (97, 107);
place = (97, 107);
type = Stem;
}
);
layerId = m01;
shapes = (
{
closed = 1;
nodes = (
(112,759,l),
(189,759,l),
(333,901,l),
(222,901,l)
);
},
{
closed = 1;
nodes = (
(97,0,l),
(204,0,l),
(204,697,l),
(97,697,l)
);
}
);
width = 300;
}
);
note = Iacute;
unicode = 205;
},
{
glyphname = uni01CF;
layers = (
{
hints = (
{
horizontal = 1;
place = (0, 21);
target = up;
type = BottomGhost;
},
{
horizontal = 1;
place = (697, -20);
target = down;
type = TopGhost;
},
{
place = (97, 107);
place = (97, 107);
type = Stem;
}
);
layerId = m01;
shapes = (
{
closed = 1;
nodes = (
(151,741,l),
(305,901,l),
(224,901,l),
(151,825,l),
(78,901,l),
(-3,901,l)
);
},
{
closed = 1;
nodes = (
(97,0,l),
(204,0,l),
(204,697,l),
(97,697,l)
);
}
);
width = 300;
}
);
note = uni01CF;
unicode = 463;
},
{
glyphname = Icircumflex;
kernLeft = B;
kernRight = H;
layers = (
{
hints = (
{
horizontal = 1;
place = (0, 21);
target = up;
type = BottomGhost;
},
{
horizontal = 1;
place = (697, -20);
target = down;
type = TopGhost;
},
{
place = (97, 107);
place = (97, 107);
type = Stem;
}
);
layerId = m01;
shapes = (
{
closed = 1;
nodes = (
(-3,747,l),
(79,747,l),
(151,828,l),
(224,747,l),
(305,747,l),
(151,916,l)
);
},
{
closed = 1;
nodes = (
(97,0,l),
(204,0,l),
(204,697,l),
(97,697,l)
);
}
);
width = 300;
}
);
note = Icircumflex;
unicode = 206;
},
{
glyphname = Idieresis;
kernLeft = B;
kernRight = H;
layers = (
{
hints = (
{
horizontal = 1;
place = (0, 21);
target = up;
type = BottomGhost;
},
{
horizontal = 1;
place = (697, -20);
target = down;
type = TopGhost;
},
{
horizontal = 1;
place = (793, 108);
place = (793, 108);
type = Stem;
},
{
place = (9, 94);
place = (9, 94);
type = Stem;
},
{
place = (199, 94);
place = (199, 94);
type = Stem;
},
{
place = (97, 107);
place = (97, 107);
type = Stem;
}
);
layerId = m01;
shapes = (
{
closed = 1;
nodes = (
(9,793,l),
(103,793,l),
(103,901,l),
(9,901,l)
);
},
{
closed = 1;
nodes = (
(199,793,l),
(293,793,l),
(293,901,l),
(199,901,l)
);
},
{
closed = 1;
nodes = (
(97,0,l),
(204,0,l),
(204,697,l),
(97,697,l)
);
}
);
width = 300;
}
);
note = Idieresis;
unicode = 207;
},
{
glyphname = Idotaccent;
kernLeft = B;
kernRight = H;
layers = (
{
hints = (
{
horizontal = 1;
place = (0, 21);
target = up;
type = BottomGhost;
},
{
horizontal = 1;
place = (697, -20);
target = down;
type = TopGhost;
},
{
horizontal = 1;
place = (793, 108);
place = (793, 108);
type = Stem;
},
{
place = (96, 110);
place = (96, 110);
type = Stem;
},
{
place = (97, 107);
place = (97, 107);
type = Stem;
}
);
layerId = m01;
shapes = (
{
closed = 1;
nodes = (
(96,793,l),
(206,793,l),
(206,901,l),
(96,901,l)
);
},
{
closed = 1;
nodes = (
(97,0,l),
(204,0,l),
(204,697,l),
(97,697,l)
);
}
);
width = 300;
}
);
note = Idotaccent;
unicode = 304;
},
{
glyphname = uni1ECA;
layers = (
{
hints = (
{
horizontal = 1;
place = (-173, 108);
place = (-173, 108);
type = Stem;
},
{
horizontal = 1;
place = (0, 21);
target = up;
type = BottomGhost;
},
{
horizontal = 1;
place = (697, -20);
target = down;
type = TopGhost;
},
{
place = (97, 107);
place = (97, 107);
type = Stem;
},
{
place = (96, 108);
place = (96, 108);
type = Stem;
},
{
place = (97, 109);
place = (97, 109);
type = Stem;
}
);
layerId = m01;
shapes = (
{
closed = 1;
nodes = (
(97,0,l),
(204,0,l),
(204,697,l),
(97,697,l)
);
},
{
closed = 1;
nodes = (
(96,-173,l),
(206,-173,l),
(206,-65,l),
(96,-65,l)
);
}
);
width = 300;
}
);
note = uni1ECA;
unicode = 7882;
},
{
glyphname = Igrave;
kernLeft = B;
kernRight = H;
layers = (
{
hints = (
{
horizontal = 1;
place = (0, 21);
target = up;
type = BottomGhost;
},
{
horizontal = 1;
place = (697, -20);
target = down;
type = TopGhost;
},
{
horizontal = 1;
place = (759, 142);
place = (759, 142);
type = Stem;
},
{
place = (97, 107);
place = (97, 107);
type = Stem;
}
);
layerId = m01;
shapes = (
{
closed = 1;
nodes = (
(112,759,l),
(190,759,l),
(86,901,l),
(-24,901,l)
);
},
{
closed = 1;
nodes = (
(97,0,l),
(204,0,l),
(204,697,l),
(97,697,l)
);
}
);
width = 300;
}
);
note = Igrave;
unicode = 204;
},
{
glyphname = uni1EC8;
layers = (
{
hints = (
{
horizontal = 1;
place = (0, 21);
target = up;
type = BottomGhost;
},
{
horizontal = 1;
place = (697, -20);
target = down;
type = TopGhost;
},
{
horizontal = 1;
place = (865, 57);
place = (865, 57);
type = Stem;
},
{
place = (97, 107);
place = (97, 107);
type = Stem;
},
{
place = (196, 66);
place = (196, 66);
type = Stem;
}
);
layerId = m01;
shapes = (
{
closed = 1;
nodes = (
(142,736,l),
(192,745,o),
(262,756,o),
(262,825,cs),
(262,888,o),
(202,922,o),
(116,922,cs),
(101,922,l),
(101,865,l),
(116,865,ls),
(156,865,o),
(196,860,o),
(196,824,cs),
(196,792,o),
(161,786,o),
(129,782,c)
);
},
{
closed = 1;
nodes = (
(97,0,l),
(204,0,l),
(204,697,l),
(97,697,l)
);
}
);
width = 300;
}
);
note = uni1EC8;
unicode = 7880;
},
{
glyphname = Imacron;
kernLeft = B;
kernRight = H;
layers = (
{
hints = (
{
horizontal = 1;
place = (0, 21);
target = up;
type = BottomGhost;
},
{
horizontal = 1;
place = (697, -20);
target = down;
type = TopGhost;
},
{
horizontal = 1;
place = (781, 61);
place = (781, 61);
type = Stem;
},
{
place = (97, 107);
place = (97, 107);
type = Stem;
}
);
layerId = m01;
shapes = (
{
closed = 1;
nodes = (
(13,781,l),
(286,781,l),
(286,842,l),
(13,842,l)
);
},
{
closed = 1;
nodes = (
(97,0,l),
(204,0,l),
(204,697,l),
(97,697,l)
);
}
);
width = 300;
}
);
note = Imacron;
unicode = 298;
},
{
glyphname = Iogonek;
kernLeft = B;
kernRight = H;
layers = (
{
hints = (
{
horizontal = 1;
place = (-219, 64);
place = (-219, 64);
type = Stem;
},
{
horizontal = 1;
place = (0, 21);
target = up;
type = BottomGhost;
},
{
horizontal = 1;
place = (697, -20);
target = down;
type = TopGhost;
},
{
place = (39, 63);
place = (39, 63);
type = Stem;
},
{
place = (97, 107);
place = (97, 107);
type = Stem;
}
);
layerId = m01;
shapes = (
{
closed = 1;
nodes = (
(195,-127,l),
(181,-145,o),
(163,-155,o),
(142,-155,cs),
(120,-155,o),
(102,-145,o),
(102,-114,cs),
(102,-46,o),
(186,-10,o),
(204,0,c),
(204,697,l),
(97,697,l),
(97,0,l),
(121,0,l),
(86,-21,o),
(39,-63,o),
(39,-124,cs),
(39,-182,o),
(85,-219,o),
(144,-219,cs),
(190,-219,o),
(223,-197,o),
(247,-164,c)
);
}
);
width = 300;
}
);
note = Iogonek;
unicode = 302;
},
{
glyphname = Itilde;
layers = (
{
hints = (
{
horizontal = 1;
place = (0, 21);
target = up;
type = BottomGhost;
},
{
horizontal = 1;
place = (697, -20);
target = down;
type = TopGhost;
},
{
horizontal = 1;
place = (765, 64);
place = (765, 64);
type = Stem;
},
{
horizontal = 1;
place = (840, 64);
place = (840, 64);
type = Stem;
},
{
place = (97, 107);
place = (97, 107);
type = Stem;
},
{
place = (251, 63);
place = (251, 63);
type = Stem;
},
{
place = (-14, 60);
place = (-14, 60);
type = Stem;
}
);
layerId = m01;
shapes = (
{
closed = 1;
nodes = (
(275,765,o),
(314,814,o),
(314,901,c),
(251,901,l),
(251,855,o),
(236,829,o),
(216,829,cs),
(175,829,o),
(159,904,o),
(88,904,cs),
(25,904,o),
(-14,855,o),
(-14,770,c),
(46,770,l),
(46,815,o),
(60,840,o),
(84,840,cs),
(126,840,o),
(136,765,o),
(215,765,cs)
);
},
{
closed = 1;
nodes = (
(97,0,l),
(204,0,l),
(204,697,l),
(97,697,l)
);
}
);
width = 300;
}
);
note = Itilde;
unicode = 296;
},
{
glyphname = J;
kernLeft = J;
kernRight = J;
lastChange = "2022-12-26 08:38:14 +0000";
layers = (
{
hints = (
{
horizontal = 1;
place = (-13, 99);
place = (-13, 99);
type = Stem;
},
{
horizontal = 1;
place = (598, 99);
place = (598, 99);
type = Stem;
},
{
place = (23, 105);
place = (23, 105);
type = Stem;
},
{
place = (377, 107);
place = (377, 107);
type = Stem;
}
);
layerId = m01;
shapes = (
{
closed = 1;
nodes = (
(38,215,ls),
(28,214,o),
(23,208,o),
(24,198,cs),
(39,65,o),
(126,-13,o),
(254,-13,cs),
(398,-13,o),
(484,82,o),
(484,244,cs),
(484,697,l),
(158,697,l),
(108,652,l),
(108,598,l),
(377,598,l),
(377,250,ls),
(377,139,o),
(337,86,o),
(254,86,cs),
(177,86,o),
(134,131,o),
(128,225,c)
);
}
);
width = 568;
}
);
note = J;
unicode = 74;
},
{
glyphname = K;
kernLeft = B;
kernRight = K;
lastChange = "2022-12-26 08:38:57 +0000";
layers = (
{
hints = (
{
horizontal = 1;
place = (0, 21);
target = up;
type = BottomGhost;
},
{
horizontal = 1;
place = (697, -20);
target = down;
type = TopGhost;
},
{
place = (97, 107);
place = (97, 107);
type = Stem;
}
);
layerId = m01;
shapes = (
{
closed = 1;
nodes = (
(629,0,ls),
(639,0,o),
(641,4,o),
(636,13,cs),
(396,408,l),
(680,697,l),
(539,697,l),
(204,346,l),
(204,697,l),
(147,697,l),
(97,647,l),
(97,0,l),
(204,0,l),
(204,212,l),
(323,333,l),
(520,0,l)
);
}
);
width = 706;
}
);
note = K;
unicode = 75;
},
{
glyphname = uni0136;
kernLeft = B;
kernRight = K;
layers = (
{
hints = (
{
horizontal = 1;
place = (-224, 170);
place = (-224, 170);
type = Stem;
},
{
horizontal = 1;
place = (0, 21);
target = up;
type = BottomGhost;
},
{
horizontal = 1;
place = (697, -20);
target = down;
type = TopGhost;
},
{
place = (97, 107);
place = (97, 107);
type = Stem;
}
);
layerId = m01;
shapes = (
{
closed = 1;
nodes = (
(424,437,l),
(680,697,l),
(539,697,l),
(204,346,l),
(204,697,l),
(97,697,l),
(97,0,l),
(204,0,l),
(204,212,l),
(351,362,l),
(565,0,l),
(689,0,l)
);
},
{
closed = 1;
nodes = (
(225,-224,l),
(286,-224,l),
(406,-54,l),
(299,-54,l)
);
}
);
width = 706;
}
);
note = uni0136;
unicode = 310;
},
{
glyphname = L;
kernLeft = B;
kernRight = L;
layers = (
{
hints = (
{
horizontal = 1;
place = (0, 99);
place = (0, 99);
type = Stem;
},
{
horizontal = 1;
place = (697, -20);
target = down;
type = TopGhost;
},
{
place = (97, 107);
place = (97, 107);
type = Stem;
}
);
layerId = m01;
shapes = (
{
closed = 1;
nodes = (
(97,0,l),
(508,0,l),
(508,99,l),
(204,99,l),
(204,697,l),
(97,697,l)
);
}
);
width = 526;
}
);
note = L;
unicode = 76;
},
{
glyphname = Lacute;
kernLeft = B;
kernRight = L;
layers = (
{
hints = (
{
horizontal = 1;
place = (0, 99);
place = (0, 99);
type = Stem;
},
{
horizontal = 1;
place = (697, -20);
target = down;
type = TopGhost;
},
{
horizontal = 1;
place = (759, 142);
place = (759, 142);
type = Stem;
},
{
place = (97, 107);
place = (97, 107);
type = Stem;
}
);
layerId = m01;
shapes = (
{
closed = 1;
nodes = (
(112,759,l),
(189,759,l),
(333,901,l),
(222,901,l)
);
},
{
closed = 1;
nodes = (
(97,0,l),
(508,0,l),
(508,99,l),
(204,99,l),
(204,697,l),
(97,697,l)
);
}
);
width = 526;
}
);
note = Lacute;
unicode = 313;
},
{
glyphname = Lcaron;
kernLeft = B;
kernRight = L;
layers = (
{
hints = (
{
horizontal = 1;
place = (0, 99);
place = (0, 99);
type = Stem;
},
{
horizontal = 1;
place = (697, -20);
target = down;
type = TopGhost;
},
{
place = (97, 107);
place = (97, 107);
type = Stem;
},
{
horizontal = 1;
place = (478, 219);
place = (478, 219);
type = Stem;
}
);
layerId = m01;
shapes = (
{
closed = 1;
nodes = (
(97,0,l),
(508,0,l),
(508,99,l),
(204,99,l),
(204,697,l),
(97,697,l)
);
},
{
closed = 1;
nodes = (
(337,478,l),
(398,478,l),
(502,697,l),
(394,697,l)
);
}
);
width = 526;
}
);
note = Lcaron;
unicode = 317;
},
{
glyphname = uni013B;
kernLeft = B;
kernRight = L;
layers = (
{
hints = (
{
horizontal = 1;
place = (-224, 170);
place = (-224, 170);
type = Stem;
},
{
horizontal = 1;
place = (0, 99);
place = (0, 99);
type = Stem;
},
{
horizontal = 1;
place = (697, -20);
target = down;
type = TopGhost;
},
{
place = (97, 107);
place = (97, 107);
type = Stem;
}
);
layerId = m01;
shapes = (
{
closed = 1;
nodes = (
(97,0,l),
(508,0,l),
(508,99,l),
(204,99,l),
(204,697,l),
(97,697,l)
);
},
{
closed = 1;
nodes = (
(175,-224,l),
(236,-224,l),
(356,-54,l),
(249,-54,l)
);
}
);
width = 526;
}
);
note = uni013B;
unicode = 315;
},
{
glyphname = Lslash;
layers = (
{
hints = (
{
horizontal = 1;
place = (0, 99);
place = (0, 99);
type = Stem;
},
{
horizontal = 1;
place = (697, -20);
target = down;
type = TopGhost;
},
{
place = (97, 107);
place = (97, 107);
type = Stem;
}
);
layerId = m01;
shapes = (
{
closed = 1;
nodes = (
(204,99,l),
(204,306,l),
(332,408,l),
(332,513,l),
(204,412,l),
(204,697,l),
(97,697,l),
(97,328,l),
(38,281,l),
(38,174,l),
(97,221,l),
(97,0,l),
(508,0,l),
(508,99,l)
);
}
);
width = 526;
}
);
note = Lslash;
unicode = 321;
},
{
glyphname = M;
kernLeft = B;
kernRight = H;
lastChange = "2022-12-26 08:39:31 +0000";
layers = (
{
hints = (
{
horizontal = 1;
place = (0, 21);
target = up;
type = BottomGhost;
},
{
horizontal = 1;
place = (697, -20);
target = down;
type = TopGhost;
},
{
place = (97, 107);
place = (97, 107);
type = Stem;
},
{
place = (689, 107);
place = (689, 107);
type = Stem;
},
{
horizontal = 1;
place = (549, 148);
place = (549, 148);
type = Stem;
}
);
layerId = m01;
shapes = (
{
closed = 1;
nodes = (
(189,0,ls),
(199,0,o),
(204,5,o),
(204,15,cs),
(204,549,l),
(394,60,l),
(498,60,l),
(689,549,l),
(689,15,ls),
(689,5,o),
(694,0,o),
(704,0,cs),
(796,0,l),
(796,697,l),
(642,697,l),
(446,183,l),
(251,697,l),
(97,697,l),
(97,0,l)
);
}
);
width = 893;
}
);
note = M;
unicode = 77;
},
{
glyphname = N;
kernLeft = B;
kernRight = H;
lastChange = "2022-12-26 08:39:40 +0000";
layers = (
{
hints = (
{
horizontal = 1;
place = (0, 21);
target = up;
type = BottomGhost;
},
{
horizontal = 1;
place = (697, -20);
target = down;
type = TopGhost;
},
{
place = (97, 107);
place = (97, 107);
type = Stem;
},
{
place = (518, 107);
place = (518, 107);
type = Stem;
}
);
layerId = m01;
shapes = (
{
closed = 1;
nodes = (
(518,697,l),
(518,187,l),
(208,697,l),
(97,697,l),
(97,0,l),
(148,0,l),
(204,50,l),
(204,513,l),
(513,0,l),
(625,0,l),
(625,697,l)
);
}
);
width = 722;
}
);
note = N;
unicode = 78;
},
{
glyphname = Nacute;
kernLeft = B;
kernRight = H;
layers = (
{
hints = (
{
horizontal = 1;
place = (0, 21);
target = up;
type = BottomGhost;
},
{
horizontal = 1;
place = (697, -20);
target = down;
type = TopGhost;
},
{
horizontal = 1;
place = (759, 142);
place = (759, 142);
type = Stem;
},
{
place = (97, 107);
place = (97, 107);
type = Stem;
},
{
place = (518, 107);
place = (518, 107);
type = Stem;
}
);
layerId = m01;
shapes = (
{
closed = 1;
nodes = (
(544,901,l),
(433,901,l),
(323,759,l),
(400,759,l)
);
},
{
closed = 1;
nodes = (
(518,697,l),
(518,187,l),
(208,697,l),
(97,697,l),
(97,0,l),
(204,0,l),
(204,513,l),
(513,0,l),
(625,0,l),
(625,697,l)
);
}
);
width = 722;
}
);
note = Nacute;
unicode = 323;
},
{
glyphname = Ncaron;
kernLeft = B;
kernRight = H;
layers = (
{
hints = (
{
horizontal = 1;
place = (0, 21);
target = up;
type = BottomGhost;
},
{
horizontal = 1;
place = (697, -20);
target = down;
type = TopGhost;
},
{
place = (97, 107);
place = (97, 107);
type = Stem;
},
{
place = (518, 107);
place = (518, 107);
type = Stem;
}
);
layerId = m01;
shapes = (
{
closed = 1;
nodes = (
(515,901,l),
(434,901,l),
(361,825,l),
(288,901,l),
(207,901,l),
(361,741,l)
);
},
{
closed = 1;
nodes = (
(518,697,l),
(518,187,l),
(208,697,l),
(97,697,l),
(97,0,l),
(204,0,l),
(204,513,l),
(513,0,l),
(625,0,l),
(625,697,l)
);
}
);
width = 722;
}
);
note = Ncaron;
unicode = 327;
},
{
glyphname = uni0145;
kernLeft = B;
kernRight = H;
layers = (
{
hints = (
{
horizontal = 1;
place = (-224, 170);
place = (-224, 170);
type = Stem;
},
{
horizontal = 1;
place = (0, 21);
target = up;
type = BottomGhost;
},
{
horizontal = 1;
place = (697, -20);
target = down;
type = TopGhost;
},
{
place = (97, 107);
place = (97, 107);
type = Stem;
},
{
place = (518, 107);
place = (518, 107);
type = Stem;
}
);
layerId = m01;
shapes = (
{
closed = 1;
nodes = (
(518,697,l),
(518,187,l),
(208,697,l),
(97,697,l),
(97,0,l),
(204,0,l),
(204,513,l),
(513,0,l),
(625,0,l),
(625,697,l)
);
},
{
closed = 1;
nodes = (
(233,-224,l),
(294,-224,l),
(414,-54,l),
(307,-54,l)
);
}
);
width = 722;
}
);
note = uni0145;
unicode = 325;
},
{
glyphname = Eng;
kernLeft = B;
kernRight = H;
layers = (
{
hints = (
{
horizontal = 1;
place = (-178, 71);
place = (-178, 71);
type = Stem;
},
{
horizontal = 1;
place = (0, 21);
target = up;
type = BottomGhost;
},
{
horizontal = 1;
place = (697, -20);
target = down;
type = TopGhost;
},
{
place = (97, 107);
place = (97, 107);
type = Stem;
},
{
place = (518, 107);
place = (518, 107);
type = Stem;
},
{
place = (523, 102);
place = (523, 102);
type = Stem;
}
);
layerId = m01;
shapes = (
{
closed = 1;
nodes = (
(518,697,l),
(518,191,l),
(208,697,l),
(97,697,l),
(97,0,l),
(204,0,l),
(204,508,l),
(513,0,ls),
(520,-12,o),
(523,-26,o),
(523,-38,cs),
(523,-74,o),
(496,-107,o),
(435,-107,cs),
(423,-107,o),
(408,-106,o),
(393,-102,c),
(392,-171,l),
(418,-176,o),
(442,-178,o),
(463,-178,cs),
(582,-178,o),
(625,-95,o),
(625,-4,cs),
(625,697,l)
);
}
);
width = 723;
}
);
note = Eng;
unicode = 330;
},
{
glyphname = Ntilde;
kernLeft = B;
kernRight = H;
layers = (
{
hints = (
{
horizontal = 1;
place = (0, 21);
target = up;
type = BottomGhost;
},
{
horizontal = 1;
place = (697, -20);
target = down;
type = TopGhost;
},
{
horizontal = 1;
place = (840, 64);
place = (840, 64);
type = Stem;
},
{
place = (197, 60);
place = (197, 60);
type = Stem;
},
{
place = (462, 63);
place = (462, 63);
type = Stem;
},
{
horizontal = 1;
place = (765, 64);
place = (765, 64);
type = Stem;
},
{
place = (97, 107);
place = (97, 107);
type = Stem;
},
{
place = (518, 107);
place = (518, 107);
type = Stem;
}
);
layerId = m01;
shapes = (
{
closed = 1;
nodes = (
(337,840,o),
(347,765,o),
(426,765,cs),
(486,765,o),
(525,814,o),
(525,901,c),
(462,901,l),
(462,855,o),
(447,829,o),
(427,829,cs),
(386,829,o),
(370,904,o),
(299,904,cs),
(236,904,o),
(197,855,o),
(197,770,c),
(257,770,l),
(257,815,o),
(271,840,o),
(295,840,cs)
);
},
{
closed = 1;
nodes = (
(518,697,l),
(518,187,l),
(208,697,l),
(97,697,l),
(97,0,l),
(204,0,l),
(204,513,l),
(513,0,l),
(625,0,l),
(625,697,l)
);
}
);
width = 722;
}
);
note = Ntilde;
unicode = 209;
},
{
glyphname = O;
kernLeft = C;
kernRight = D;
lastChange = "2022-12-26 08:40:01 +0000";
layers = (
{
hints = (
{
horizontal = 1;
place = (-13, 102);
place = (-13, 102);
type = Stem;
},
{
horizontal = 1;
place = (608, 102);
place = (608, 102);
type = Stem;
},
{
place = (48, 107);
place = (48, 107);
type = Stem;
},
{
place = (598, 107);
place = (598, 107);
type = Stem;
}
);
layerId = m01;
shapes = (
{
closed = 1;
nodes = (
(572,-13,o),
(705,131,o),
(705,348,cs),
(705,566,o),
(573,710,o),
(377,710,cs),
(181,710,o),
(48,566,o),
(48,348,cs),
(48,131,o),
(181,-13,o),
(377,-13,cs)
);
},
{
closed = 1;
nodes = (
(242,65,o),
(155,188,o),
(155,348,cs),
(155,509,o),
(242,634,o),
(377,634,cs),
(512,634,o),
(598,508,o),
(598,348,cs),
(598,189,o),
(512,65,o),
(377,65,cs)
);
}
);
width = 753;
}
);
note = O;
unicode = 79;
},
{
glyphname = Oacute;
kernLeft = C;
kernRight = D;
layers = (
{
hints = (
{
horizontal = 1;
place = (-13, 102);
place = (-13, 102);
type = Stem;
},
{
horizontal = 1;
place = (608, 102);
place = (608, 102);
type = Stem;
},
{
horizontal = 1;
place = (759, 142);
place = (759, 142);
type = Stem;
},
{
place = (48, 107);
place = (48, 107);
type = Stem;
},
{
place = (598, 107);
place = (598, 107);
type = Stem;
}
);
layerId = m01;
shapes = (
{
closed = 1;
nodes = (
(338,759,l),
(415,759,l),
(559,901,l),
(448,901,l)
);
},
{
closed = 1;
nodes = (
(572,-13,o),
(705,131,o),
(705,348,cs),
(705,566,o),
(573,710,o),
(377,710,cs),
(181,710,o),
(48,566,o),
(48,348,cs),
(48,131,o),
(181,-13,o),
(377,-13,cs)
);
},
{
closed = 1;
nodes = (
(242,89,o),
(155,188,o),
(155,348,cs),
(155,509,o),
(242,608,o),
(377,608,cs),
(512,608,o),
(598,508,o),
(598,348,cs),
(598,189,o),
(512,89,o),
(377,89,cs)
);
}
);
width = 753;
}
);
note = Oacute;
unicode = 211;
},
{
glyphname = uni01D1;
kernLeft = C;
kernRight = D;
layers = (
{
hints = (
{
horizontal = 1;
place = (-13, 102);
place = (-13, 102);
type = Stem;
},
{
horizontal = 1;
place = (608, 102);
place = (608, 102);
type = Stem;
},
{
place = (48, 107);
place = (48, 107);
type = Stem;
},
{
place = (598, 107);
place = (598, 107);
type = Stem;
}
);
layerId = m01;
shapes = (
{
closed = 1;
nodes = (
(377,741,l),
(531,901,l),
(450,901,l),
(377,825,l),
(304,901,l),
(223,901,l)
);
},
{
closed = 1;
nodes = (
(572,-13,o),
(705,131,o),
(705,348,cs),
(705,566,o),
(573,710,o),
(377,710,cs),
(181,710,o),
(48,566,o),
(48,348,cs),
(48,131,o),
(181,-13,o),
(377,-13,cs)
);
},
{
closed = 1;
nodes = (
(242,89,o),
(155,188,o),
(155,348,cs),
(155,509,o),
(242,608,o),
(377,608,cs),
(512,608,o),
(598,508,o),
(598,348,cs),
(598,189,o),
(512,89,o),
(377,89,cs)
);
}
);
width = 753;
}
);
note = uni01D1;
unicode = 465;
},
{
glyphname = Ocircumflex;
kernLeft = C;
kernRight = D;
layers = (
{
hints = (
{
horizontal = 1;
place = (-13, 102);
place = (-13, 102);
type = Stem;
},
{
horizontal = 1;
place = (608, 102);
place = (608, 102);
type = Stem;
},
{
place = (48, 107);
place = (48, 107);
type = Stem;
},
{
place = (598, 107);
place = (598, 107);
type = Stem;
}
);
layerId = m01;
shapes = (
{
closed = 1;
nodes = (
(223,747,l),
(305,747,l),
(377,828,l),
(450,747,l),
(531,747,l),
(377,916,l)
);
},
{
closed = 1;
nodes = (
(572,-13,o),
(705,131,o),
(705,348,cs),
(705,566,o),
(573,710,o),
(377,710,cs),
(181,710,o),
(48,566,o),
(48,348,cs),
(48,131,o),
(181,-13,o),
(377,-13,cs)
);
},
{
closed = 1;
nodes = (
(242,89,o),
(155,188,o),
(155,348,cs),
(155,509,o),
(242,608,o),
(377,608,cs),
(512,608,o),
(598,508,o),
(598,348,cs),
(598,189,o),
(512,89,o),
(377,89,cs)
);
}
);
width = 753;
}
);
note = Ocircumflex;
unicode = 212;
},
{
glyphname = uni1ED0;
kernLeft = C;
kernRight = D;
layers = (
{
hints = (
{
horizontal = 1;
place = (-13, 102);
place = (-13, 102);
type = Stem;
},
{
horizontal = 1;
place = (608, 102);
place = (608, 102);
type = Stem;
},
{
horizontal = 1;
place = (947, 142);
place = (947, 142);
type = Stem;
},
{
place = (48, 107);
place = (48, 107);
type = Stem;
},
{
place = (598, 107);
place = (598, 107);
type = Stem;
}
);
layerId = m01;
shapes = (
{
closed = 1;
nodes = (
(338,947,l),
(415,947,l),
(559,1089,l),
(448,1089,l)
);
},
{
closed = 1;
nodes = (
(223,747,l),
(305,747,l),
(377,828,l),
(450,747,l),
(531,747,l),
(377,916,l)
);
},
{
closed = 1;
nodes = (
(572,-13,o),
(705,131,o),
(705,348,cs),
(705,566,o),
(573,710,o),
(377,710,cs),
(181,710,o),
(48,566,o),
(48,348,cs),
(48,131,o),
(181,-13,o),
(377,-13,cs)
);
},
{
closed = 1;
nodes = (
(242,89,o),
(155,188,o),
(155,348,cs),
(155,509,o),
(242,608,o),
(377,608,cs),
(512,608,o),
(598,508,o),
(598,348,cs),
(598,189,o),
(512,89,o),
(377,89,cs)
);
}
);
width = 753;
}
);
note = uni1ED0;
unicode = 7888;
},
{
glyphname = uni1ED8;
kernLeft = C;
kernRight = D;
layers = (
{
hints = (
{
horizontal = 1;
place = (-173, 108);
place = (-173, 108);
type = Stem;
},
{
horizontal = 1;
place = (-13, 102);
place = (-13, 102);
type = Stem;
},
{
horizontal = 1;
place = (608, 102);
place = (608, 102);
type = Stem;
},
{
place = (48, 107);
place = (48, 107);
type = Stem;
},
{
place = (322, 110);
place = (322, 110);
type = Stem;
},
{
place = (598, 107);
place = (598, 107);
type = Stem;
}
);
layerId = m01;
shapes = (
{
closed = 1;
nodes = (
(223,747,l),
(305,747,l),
(377,828,l),
(450,747,l),
(531,747,l),
(377,916,l)
);
},
{
closed = 1;
nodes = (
(572,-13,o),
(705,131,o),
(705,348,cs),
(705,566,o),
(573,710,o),
(377,710,cs),
(181,710,o),
(48,566,o),
(48,348,cs),
(48,131,o),
(181,-13,o),
(377,-13,cs)
);
},
{
closed = 1;
nodes = (
(242,89,o),
(155,188,o),
(155,348,cs),
(155,509,o),
(242,608,o),
(377,608,cs),
(512,608,o),
(598,508,o),
(598,348,cs),
(598,189,o),
(512,89,o),
(377,89,cs)
);
},
{
closed = 1;
nodes = (
(322,-173,l),
(432,-173,l),
(432,-65,l),
(322,-65,l)
);
}
);
width = 753;
}
);
note = uni1ED8;
unicode = 7896;
},
{
glyphname = uni1ED2;
kernLeft = C;
kernRight = D;
layers = (
{
hints = (
{
horizontal = 1;
place = (-13, 102);
place = (-13, 102);
type = Stem;
},
{
horizontal = 1;
place = (608, 102);
place = (608, 102);
type = Stem;
},
{
horizontal = 1;
place = (947, 142);
place = (947, 142);
type = Stem;
},
{
place = (48, 107);
place = (48, 107);
type = Stem;
},
{
place = (598, 107);
place = (598, 107);
type = Stem;
}
);
layerId = m01;
shapes = (
{
closed = 1;
nodes = (
(338,947,l),
(416,947,l),
(312,1089,l),
(202,1089,l)
);
},
{
closed = 1;
nodes = (
(223,747,l),
(305,747,l),
(377,828,l),
(450,747,l),
(531,747,l),
(377,916,l)
);
},
{
closed = 1;
nodes = (
(572,-13,o),
(705,131,o),
(705,348,cs),
(705,566,o),
(573,710,o),
(377,710,cs),
(181,710,o),
(48,566,o),
(48,348,cs),
(48,131,o),
(181,-13,o),
(377,-13,cs)
);
},
{
closed = 1;
nodes = (
(242,89,o),
(155,188,o),
(155,348,cs),
(155,509,o),
(242,608,o),
(377,608,cs),
(512,608,o),
(598,508,o),
(598,348,cs),
(598,189,o),
(512,89,o),
(377,89,cs)
);
}
);
width = 753;
}
);
note = uni1ED2;
unicode = 7890;
},
{
glyphname = uni1ED4;
kernLeft = C;
kernRight = D;
layers = (
{
hints = (
{
horizontal = 1;
place = (-13, 102);
place = (-13, 102);
type = Stem;
},
{
horizontal = 1;
place = (608, 102);
place = (608, 102);
type = Stem;
},
{
horizontal = 1;
place = (1053, 57);
place = (1053, 57);
type = Stem;
},
{
place = (48, 107);
place = (48, 107);
type = Stem;
},
{
place = (422, 66);
place = (422, 66);
type = Stem;
},
{
place = (598, 107);
place = (598, 107);
type = Stem;
}
);
layerId = m01;
shapes = (
{
closed = 1;
nodes = (
(368,924,l),
(418,933,o),
(488,944,o),
(488,1013,cs),
(488,1076,o),
(428,1110,o),
(342,1110,cs),
(327,1110,l),
(327,1053,l),
(342,1053,ls),
(382,1053,o),
(422,1048,o),
(422,1012,cs),
(422,980,o),
(387,974,o),
(355,970,c)
);
},
{
closed = 1;
nodes = (
(223,747,l),
(305,747,l),
(377,828,l),
(450,747,l),
(531,747,l),
(377,916,l)
);
},
{
closed = 1;
nodes = (
(572,-13,o),
(705,131,o),
(705,348,cs),
(705,566,o),
(573,710,o),
(377,710,cs),
(181,710,o),
(48,566,o),
(48,348,cs),
(48,131,o),
(181,-13,o),
(377,-13,cs)
);
},
{
closed = 1;
nodes = (
(242,89,o),
(155,188,o),
(155,348,cs),
(155,509,o),
(242,608,o),
(377,608,cs),
(512,608,o),
(598,508,o),
(598,348,cs),
(598,189,o),
(512,89,o),
(377,89,cs)
);
}
);
width = 753;
}
);
note = uni1ED4;
unicode = 7892;
},
{
glyphname = uni1ED6;
kernLeft = C;
kernRight = D;
layers = (
{
hints = (
{
horizontal = 1;
place = (-13, 102);
place = (-13, 102);
type = Stem;
},
{
horizontal = 1;
place = (608, 102);
place = (608, 102);
type = Stem;
},
{
horizontal = 1;
place = (953, 64);
place = (953, 64);
type = Stem;
},
{
horizontal = 1;
place = (1028, 64);
place = (1028, 64);
type = Stem;
},
{
place = (48, 107);
place = (48, 107);
type = Stem;
},
{
place = (477, 63);
place = (477, 63);
type = Stem;
},
{
place = (598, 107);
place = (598, 107);
type = Stem;
},
{
place = (212, 60);
place = (212, 60);
type = Stem;
}
);
layerId = m01;
shapes = (
{
closed = 1;
nodes = (
(501,953,o),
(540,1002,o),
(540,1089,c),
(477,1089,l),
(477,1043,o),
(462,1017,o),
(442,1017,cs),
(401,1017,o),
(385,1092,o),
(314,1092,cs),
(251,1092,o),
(212,1043,o),
(212,958,c),
(272,958,l),
(272,1003,o),
(286,1028,o),
(310,1028,cs),
(352,1028,o),
(362,953,o),
(441,953,cs)
);
},
{
closed = 1;
nodes = (
(223,747,l),
(305,747,l),
(377,828,l),
(450,747,l),
(531,747,l),
(377,916,l)
);
},
{
closed = 1;
nodes = (
(572,-13,o),
(705,131,o),
(705,348,cs),
(705,566,o),
(573,710,o),
(377,710,cs),
(181,710,o),
(48,566,o),
(48,348,cs),
(48,131,o),
(181,-13,o),
(377,-13,cs)
);
},
{
closed = 1;
nodes = (
(242,89,o),
(155,188,o),
(155,348,cs),
(155,509,o),
(242,608,o),
(377,608,cs),
(512,608,o),
(598,508,o),
(598,348,cs),
(598,189,o),
(512,89,o),
(377,89,cs)
);
}
);
width = 753;
}
);
note = uni1ED6;
unicode = 7894;
},
{
glyphname = Odieresis;
kernLeft = C;
kernRight = D;
layers = (
{
hints = (
{
horizontal = 1;
place = (-13, 102);
place = (-13, 102);
type = Stem;
},
{
horizontal = 1;
place = (608, 102);
place = (608, 102);
type = Stem;
},
{
horizontal = 1;
place = (793, 108);
place = (793, 108);
type = Stem;
},
{
place = (48, 107);
place = (48, 107);
type = Stem;
},
{
place = (235, 94);
place = (235, 94);
type = Stem;
},
{
place = (425, 94);
place = (425, 94);
type = Stem;
},
{
place = (598, 107);
place = (598, 107);
type = Stem;
}
);
layerId = m01;
shapes = (
{
closed = 1;
nodes = (
(235,793,l),
(329,793,l),
(329,901,l),
(235,901,l)
);
},
{
closed = 1;
nodes = (
(425,793,l),
(519,793,l),
(519,901,l),
(425,901,l)
);
},
{
closed = 1;
nodes = (
(572,-13,o),
(705,131,o),
(705,348,cs),
(705,566,o),
(573,710,o),
(377,710,cs),
(181,710,o),
(48,566,o),
(48,348,cs),
(48,131,o),
(181,-13,o),
(377,-13,cs)
);
},
{
closed = 1;
nodes = (
(242,89,o),
(155,188,o),
(155,348,cs),
(155,509,o),
(242,608,o),
(377,608,cs),
(512,608,o),
(598,508,o),
(598,348,cs),
(598,189,o),
(512,89,o),
(377,89,cs)
);
}
);
width = 753;
}
);
note = Odieresis;
unicode = 214;
},
{
glyphname = uni1ECC;
kernLeft = C;
kernRight = D;
layers = (
{
hints = (
{
horizontal = 1;
place = (-173, 108);
place = (-173, 108);
type = Stem;
},
{
horizontal = 1;
place = (-13, 102);
place = (-13, 102);
type = Stem;
},
{
horizontal = 1;
place = (608, 102);
place = (608, 102);
type = Stem;
},
{
place = (48, 107);
place = (48, 107);
type = Stem;
},
{
place = (322, 110);
place = (322, 110);
type = Stem;
},
{
place = (598, 107);
place = (598, 107);
type = Stem;
}
);
layerId = m01;
shapes = (
{
closed = 1;
nodes = (
(572,-13,o),
(705,131,o),
(705,348,cs),
(705,566,o),
(573,710,o),
(377,710,cs),
(181,710,o),
(48,566,o),
(48,348,cs),
(48,131,o),
(181,-13,o),
(377,-13,cs)
);
},
{
closed = 1;
nodes = (
(242,89,o),
(155,188,o),
(155,348,cs),
(155,509,o),
(242,608,o),
(377,608,cs),
(512,608,o),
(598,508,o),
(598,348,cs),
(598,189,o),
(512,89,o),
(377,89,cs)
);
},
{
closed = 1;
nodes = (
(322,-173,l),
(432,-173,l),
(432,-65,l),
(322,-65,l)
);
}
);
width = 753;
}
);
note = uni1ECC;
unicode = 7884;
},
{
glyphname = Ograve;
kernLeft = C;
kernRight = D;
layers = (
{
hints = (
{
horizontal = 1;
place = (-13, 102);
place = (-13, 102);
type = Stem;
},
{
horizontal = 1;
place = (608, 102);
place = (608, 102);
type = Stem;
},
{
horizontal = 1;
place = (759, 142);
place = (759, 142);
type = Stem;
},
{
place = (48, 107);
place = (48, 107);
type = Stem;
},
{
place = (598, 107);
place = (598, 107);
type = Stem;
}
);
layerId = m01;
shapes = (
{
closed = 1;
nodes = (
(338,759,l),
(416,759,l),
(312,901,l),
(202,901,l)
);
},
{
closed = 1;
nodes = (
(572,-13,o),
(705,131,o),
(705,348,cs),
(705,566,o),
(573,710,o),
(377,710,cs),
(181,710,o),
(48,566,o),
(48,348,cs),
(48,131,o),
(181,-13,o),
(377,-13,cs)
);
},
{
closed = 1;
nodes = (
(242,89,o),
(155,188,o),
(155,348,cs),
(155,509,o),
(242,608,o),
(377,608,cs),
(512,608,o),
(598,508,o),
(598,348,cs),
(598,189,o),
(512,89,o),
(377,89,cs)
);
}
);
width = 753;
}
);
note = Ograve;
unicode = 210;
},
{
glyphname = uni1ECE;
kernLeft = C;
kernRight = D;
layers = (
{
hints = (
{
horizontal = 1;
place = (-13, 102);
place = (-13, 102);
type = Stem;
},
{
horizontal = 1;
place = (608, 102);
place = (608, 102);
type = Stem;
},
{
horizontal = 1;
place = (865, 57);
place = (865, 57);
type = Stem;
},
{
place = (48, 107);
place = (48, 107);
type = Stem;
},
{
place = (422, 66);
place = (422, 66);
type = Stem;
},
{
place = (598, 107);
place = (598, 107);
type = Stem;
}
);
layerId = m01;
shapes = (
{
closed = 1;
nodes = (
(368,736,l),
(418,745,o),
(488,756,o),
(488,825,cs),
(488,888,o),
(428,922,o),
(342,922,cs),
(327,922,l),
(327,865,l),
(342,865,ls),
(382,865,o),
(422,860,o),
(422,824,cs),
(422,792,o),
(387,786,o),
(355,782,c)
);
},
{
closed = 1;
nodes = (
(572,-13,o),
(705,131,o),
(705,348,cs),
(705,566,o),
(573,710,o),
(377,710,cs),
(181,710,o),
(48,566,o),
(48,348,cs),
(48,131,o),
(181,-13,o),
(377,-13,cs)
);
},
{
closed = 1;
nodes = (
(242,89,o),
(155,188,o),
(155,348,cs),
(155,509,o),
(242,608,o),
(377,608,cs),
(512,608,o),
(598,508,o),
(598,348,cs),
(598,189,o),
(512,89,o),
(377,89,cs)
);
}
);
width = 753;
}
);
note = uni1ECE;
unicode = 7886;
},
{
glyphname = Ohorn;
kernLeft = C;
kernRight = D;
layers = (
{
hints = (
{
horizontal = 1;
place = (-13, 102);
place = (-13, 102);
type = Stem;
},
{
horizontal = 1;
place = (503, -20);
target = down;
type = TopGhost;
},
{
horizontal = 1;
place = (697, -20);
target = down;
type = TopGhost;
},
{
place = (48, 107);
place = (48, 107);
type = Stem;
},
{
place = (690, 79);
place = (690, 79);
type = Stem;
},
{
horizontal = 1;
place = (608, 102);
place = (608, 102);
type = Stem;
},
{
place = (598, 107);
place = (598, 107);
type = Stem;
}
);
layerId = m01;
shapes = (
{
closed = 1;
nodes = (
(690,697,l),
(690,647,ls),
(690,615,o),
(681,580,o),
(647,568,c),
(591,657,o),
(496,710,o),
(377,710,cs),
(181,710,o),
(48,566,o),
(48,348,cs),
(48,131,o),
(181,-13,o),
(377,-13,cs),
(572,-13,o),
(705,131,o),
(705,348,cs),
(705,405,o),
(696,457,o),
(679,503,c),
(742,525,o),
(769,584,o),
(769,655,cs),
(769,697,l)
);
},
{
closed = 1;
nodes = (
(242,89,o),
(155,188,o),
(155,348,cs),
(155,509,o),
(242,608,o),
(377,608,cs),
(512,608,o),
(598,508,o),
(598,348,cs),
(598,189,o),
(512,89,o),
(377,89,cs)
);
}
);
width = 753;
}
);
note = Ohorn;
unicode = 416;
},
{
glyphname = uni1EDA;
kernLeft = C;
kernRight = D;
layers = (
{
hints = (
{
horizontal = 1;
place = (-13, 102);
place = (-13, 102);
type = Stem;
},
{
horizontal = 1;
place = (503, -20);
target = down;
type = TopGhost;
},
{
horizontal = 1;
place = (697, -20);
target = down;
type = TopGhost;
},
{
horizontal = 1;
place = (759, 142);
place = (759, 142);
type = Stem;
},
{
place = (48, 107);
place = (48, 107);
type = Stem;
},
{
place = (598, 107);
place = (598, 107);
type = Stem;
},
{
place = (690, 79);
place = (690, 79);
type = Stem;
},
{
horizontal = 1;
place = (608, 102);
place = (608, 102);
type = Stem;
}
);
layerId = m01;
shapes = (
{
closed = 1;
nodes = (
(559,901,l),
(448,901,l),
(338,759,l),
(415,759,l)
);
},
{
closed = 1;
nodes = (
(690,697,l),
(690,647,ls),
(690,615,o),
(681,580,o),
(647,568,c),
(591,657,o),
(496,710,o),
(377,710,cs),
(181,710,o),
(48,566,o),
(48,348,cs),
(48,131,o),
(181,-13,o),
(377,-13,cs),
(572,-13,o),
(705,131,o),
(705,348,cs),
(705,405,o),
(696,457,o),
(679,503,c),
(742,525,o),
(769,584,o),
(769,655,cs),
(769,697,l)
);
},
{
closed = 1;
nodes = (
(242,89,o),
(155,188,o),
(155,348,cs),
(155,509,o),
(242,608,o),
(377,608,cs),
(512,608,o),
(598,508,o),
(598,348,cs),
(598,189,o),
(512,89,o),
(377,89,cs)
);
}
);
width = 753;
}
);
note = uni1EDA;
unicode = 7898;
},
{
glyphname = uni1EE2;
kernLeft = C;
kernRight = D;
layers = (
{
hints = (
{
horizontal = 1;
place = (-173, 108);
place = (-173, 108);
type = Stem;
},
{
horizontal = 1;
place = (-13, 102);
place = (-13, 102);
type = Stem;
},
{
horizontal = 1;
place = (503, -20);
target = down;
type = TopGhost;
},
{
horizontal = 1;
place = (697, -20);
target = down;
type = TopGhost;
},
{
place = (48, 107);
place = (48, 107);
type = Stem;
},
{
place = (322, 110);
place = (322, 110);
type = Stem;
},
{
place = (690, 79);
place = (690, 79);
type = Stem;
},
{
horizontal = 1;
place = (608, 102);
place = (608, 102);
type = Stem;
},
{
place = (598, 107);
place = (598, 107);
type = Stem;
}
);
layerId = m01;
shapes = (
{
closed = 1;
nodes = (
(690,697,l),
(690,647,ls),
(690,615,o),
(681,580,o),
(647,568,c),
(591,657,o),
(496,710,o),
(377,710,cs),
(181,710,o),
(48,566,o),
(48,348,cs),
(48,131,o),
(181,-13,o),
(377,-13,cs),
(572,-13,o),
(705,131,o),
(705,348,cs),
(705,405,o),
(696,457,o),
(679,503,c),
(742,525,o),
(769,584,o),
(769,655,cs),
(769,697,l)
);
},
{
closed = 1;
nodes = (
(242,89,o),
(155,188,o),
(155,348,cs),
(155,509,o),
(242,608,o),
(377,608,cs),
(512,608,o),
(598,508,o),
(598,348,cs),
(598,189,o),
(512,89,o),
(377,89,cs)
);
},
{
closed = 1;
nodes = (
(322,-173,l),
(432,-173,l),
(432,-65,l),
(322,-65,l)
);
}
);
width = 753;
}
);
note = uni1EE2;
unicode = 7906;
},
{
glyphname = uni1EDC;
kernLeft = C;
kernRight = D;
layers = (
{
hints = (
{
horizontal = 1;
place = (-13, 102);
place = (-13, 102);
type = Stem;
},
{
horizontal = 1;
place = (503, -20);
target = down;
type = TopGhost;
},
{
horizontal = 1;
place = (697, -20);
target = down;
type = TopGhost;
},
{
horizontal = 1;
place = (759, 142);
place = (759, 142);
type = Stem;
},
{
place = (48, 107);
place = (48, 107);
type = Stem;
},
{
place = (598, 107);
place = (598, 107);
type = Stem;
},
{
place = (690, 79);
place = (690, 79);
type = Stem;
},
{
horizontal = 1;
place = (608, 102);
place = (608, 102);
type = Stem;
}
);
layerId = m01;
shapes = (
{
closed = 1;
nodes = (
(416,759,l),
(312,901,l),
(202,901,l),
(338,759,l)
);
},
{
closed = 1;
nodes = (
(690,697,l),
(690,647,ls),
(690,615,o),
(681,580,o),
(647,568,c),
(591,657,o),
(496,710,o),
(377,710,cs),
(181,710,o),
(48,566,o),
(48,348,cs),
(48,131,o),
(181,-13,o),
(377,-13,cs),
(572,-13,o),
(705,131,o),
(705,348,cs),
(705,405,o),
(696,457,o),
(679,503,c),
(742,525,o),
(769,584,o),
(769,655,cs),
(769,697,l)
);
},
{
closed = 1;
nodes = (
(242,89,o),
(155,188,o),
(155,348,cs),
(155,509,o),
(242,608,o),
(377,608,cs),
(512,608,o),
(598,508,o),
(598,348,cs),
(598,189,o),
(512,89,o),
(377,89,cs)
);
}
);
width = 753;
}
);
note = uni1EDC;
unicode = 7900;
},
{
glyphname = uni1EDE;
kernLeft = C;
kernRight = D;
layers = (
{
hints = (
{
horizontal = 1;
place = (-13, 102);
place = (-13, 102);
type = Stem;
},
{
horizontal = 1;
place = (503, -20);
target = down;
type = TopGhost;
},
{
horizontal = 1;
place = (697, -20);
target = down;
type = TopGhost;
},
{
horizontal = 1;
place = (865, 57);
place = (865, 57);
type = Stem;
},
{
place = (48, 107);
place = (48, 107);
type = Stem;
},
{
place = (422, 66);
place = (422, 66);
type = Stem;
},
{
place = (598, 107);
place = (598, 107);
type = Stem;
},
{
place = (690, 79);
place = (690, 79);
type = Stem;
},
{
horizontal = 1;
place = (608, 102);
place = (608, 102);
type = Stem;
}
);
layerId = m01;
shapes = (
{
closed = 1;
nodes = (
(422,792,o),
(387,786,o),
(355,782,c),
(368,736,l),
(418,745,o),
(488,756,o),
(488,825,cs),
(488,888,o),
(428,922,o),
(342,922,cs),
(327,922,l),
(327,865,l),
(342,865,ls),
(382,865,o),
(422,860,o),
(422,824,cs)
);
},
{
closed = 1;
nodes = (
(690,697,l),
(690,647,ls),
(690,615,o),
(681,580,o),
(647,568,c),
(591,657,o),
(496,710,o),
(377,710,cs),
(181,710,o),
(48,566,o),
(48,348,cs),
(48,131,o),
(181,-13,o),
(377,-13,cs),
(572,-13,o),
(705,131,o),
(705,348,cs),
(705,405,o),
(696,457,o),
(679,503,c),
(742,525,o),
(769,584,o),
(769,655,cs),
(769,697,l)
);
},
{
closed = 1;
nodes = (
(242,89,o),
(155,188,o),
(155,348,cs),
(155,509,o),
(242,608,o),
(377,608,cs),
(512,608,o),
(598,508,o),
(598,348,cs),
(598,189,o),
(512,89,o),
(377,89,cs)
);
}
);
width = 753;
}
);
note = uni1EDE;
unicode = 7902;
},
{
glyphname = uni1EE0;
kernLeft = C;
kernRight = D;
layers = (
{
hints = (
{
horizontal = 1;
place = (-13, 102);
place = (-13, 102);
type = Stem;
},
{
horizontal = 1;
place = (503, -20);
target = down;
type = TopGhost;
},
{
horizontal = 1;
place = (697, -20);
target = down;
type = TopGhost;
},
{
horizontal = 1;
place = (840, 64);
place = (840, 64);
type = Stem;
},
{
place = (48, 107);
place = (48, 107);
type = Stem;
},
{
place = (212, 60);
place = (212, 60);
type = Stem;
},
{
place = (477, 63);
place = (477, 63);
type = Stem;
},
{
place = (598, 107);
place = (598, 107);
type = Stem;
},
{
horizontal = 1;
place = (765, 64);
place = (765, 64);
type = Stem;
},
{
place = (690, 79);
place = (690, 79);
type = Stem;
},
{
horizontal = 1;
place = (608, 102);
place = (608, 102);
type = Stem;
}
);
layerId = m01;
shapes = (
{
closed = 1;
nodes = (
(352,840,o),
(362,765,o),
(441,765,cs),
(501,765,o),
(540,814,o),
(540,901,c),
(477,901,l),
(477,855,o),
(462,829,o),
(442,829,cs),
(401,829,o),
(385,904,o),
(314,904,cs),
(251,904,o),
(212,855,o),
(212,770,c),
(272,770,l),
(272,815,o),
(286,840,o),
(310,840,cs)
);
},
{
closed = 1;
nodes = (
(690,697,l),
(690,647,ls),
(690,615,o),
(681,580,o),
(647,568,c),
(591,657,o),
(496,710,o),
(377,710,cs),
(181,710,o),
(48,566,o),
(48,348,cs),
(48,131,o),
(181,-13,o),
(377,-13,cs),
(572,-13,o),
(705,131,o),
(705,348,cs),
(705,405,o),
(696,457,o),
(679,503,c),
(742,525,o),
(769,584,o),
(769,655,cs),
(769,697,l)
);
},
{
closed = 1;
nodes = (
(242,89,o),
(155,188,o),
(155,348,cs),
(155,509,o),
(242,608,o),
(377,608,cs),
(512,608,o),
(598,508,o),
(598,348,cs),
(598,189,o),
(512,89,o),
(377,89,cs)
);
}
);
width = 753;
}
);
note = uni1EE0;
unicode = 7904;
},
{
glyphname = Ohungarumlaut;
kernLeft = C;
kernRight = D;
layers = (
{
hints = (
{
horizontal = 1;
place = (-13, 102);
place = (-13, 102);
type = Stem;
},
{
horizontal = 1;
place = (608, 102);
place = (608, 102);
type = Stem;
},
{
horizontal = 1;
place = (742, 159);
place = (742, 159);
type = Stem;
},
{
place = (48, 107);
place = (48, 107);
type = Stem;
},
{
place = (598, 107);
place = (598, 107);
type = Stem;
}
);
layerId = m01;
shapes = (
{
closed = 1;
nodes = (
(246,742,l),
(323,742,l),
(449,901,l),
(356,901,l)
);
},
{
closed = 1;
nodes = (
(431,742,l),
(507,742,l),
(651,901,l),
(541,901,l)
);
},
{
closed = 1;
nodes = (
(572,-13,o),
(705,131,o),
(705,348,cs),
(705,566,o),
(573,710,o),
(377,710,cs),
(181,710,o),
(48,566,o),
(48,348,cs),
(48,131,o),
(181,-13,o),
(377,-13,cs)
);
},
{
closed = 1;
nodes = (
(242,89,o),
(155,188,o),
(155,348,cs),
(155,509,o),
(242,608,o),
(377,608,cs),
(512,608,o),
(598,508,o),
(598,348,cs),
(598,189,o),
(512,89,o),
(377,89,cs)
);
}
);
width = 753;
}
);
note = Ohungarumlaut;
unicode = 336;
},
{
glyphname = Omacron;
kernLeft = C;
kernRight = D;
layers = (
{
hints = (
{
horizontal = 1;
place = (-13, 102);
place = (-13, 102);
type = Stem;
},
{
horizontal = 1;
place = (608, 102);
place = (608, 102);
type = Stem;
},
{
horizontal = 1;
place = (781, 61);
place = (781, 61);
type = Stem;
},
{
place = (48, 107);
place = (48, 107);
type = Stem;
},
{
place = (239, 273);
place = (239, 273);
type = Stem;
},
{
place = (598, 107);
place = (598, 107);
type = Stem;
}
);
layerId = m01;
shapes = (
{
closed = 1;
nodes = (
(239,781,l),
(512,781,l),
(512,842,l),
(239,842,l)
);
},
{
closed = 1;
nodes = (
(572,-13,o),
(705,131,o),
(705,348,cs),
(705,566,o),
(573,710,o),
(377,710,cs),
(181,710,o),
(48,566,o),
(48,348,cs),
(48,131,o),
(181,-13,o),
(377,-13,cs)
);
},
{
closed = 1;
nodes = (
(242,89,o),
(155,188,o),
(155,348,cs),
(155,509,o),
(242,608,o),
(377,608,cs),
(512,608,o),
(598,508,o),
(598,348,cs),
(598,189,o),
(512,89,o),
(377,89,cs)
);
}
);
width = 753;
}
);
note = Omacron;
unicode = 332;
},
{
glyphname = Oslash;
kernLeft = C;
kernRight = D;
layers = (
{
hints = (
{
horizontal = 1;
place = (-13, 102);
place = (-13, 102);
type = Stem;
},
{
horizontal = 1;
place = (620, 77);
place = (620, 77);
type = Stem;
},
{
place = (48, 107);
place = (48, 107);
type = Stem;
},
{
place = (598, 107);
place = (598, 107);
type = Stem;
},
{
horizontal = 1;
place = (0, 78);
place = (0, 78);
type = Stem;
},
{
horizontal = 1;
place = (608, 102);
place = (608, 102);
type = Stem;
},
{
horizontal = 1;
place = (697, -20);
target = down;
type = TopGhost;
}
);
layerId = m01;
shapes = (
{
closed = 1;
nodes = (
(660,697,l),
(577,697,l),
(553,662,l),
(504,693,o),
(444,710,o),
(377,710,cs),
(181,710,o),
(48,566,o),
(48,348,cs),
(48,235,o),
(84,141,o),
(147,78,c),
(93,0,l),
(176,0,l),
(200,35,l),
(250,4,o),
(310,-13,o),
(377,-13,cs),
(572,-13,o),
(705,131,o),
(705,348,cs),
(705,462,o),
(669,556,o),
(606,620,c)
);
},
{
closed = 1;
nodes = (
(155,509,o),
(242,608,o),
(377,608,cs),
(422,608,o),
(461,597,o),
(493,577,c),
(209,167,l),
(174,211,o),
(155,273,o),
(155,348,cs)
);
},
{
closed = 1;
nodes = (
(332,89,o),
(292,100,o),
(260,120,c),
(544,530,l),
(579,486,o),
(598,424,o),
(598,348,cs),
(598,189,o),
(512,89,o),
(377,89,cs)
);
}
);
width = 753;
}
);
note = Oslash;
unicode = 216;
},
{
glyphname = Otilde;
kernLeft = C;
kernRight = D;
layers = (
{
hints = (
{
horizontal = 1;
place = (-13, 102);
place = (-13, 102);
type = Stem;
},
{
horizontal = 1;
place = (608, 102);
place = (608, 102);
type = Stem;
},
{
horizontal = 1;
place = (765, 64);
place = (765, 64);
type = Stem;
},
{
horizontal = 1;
place = (840, 64);
place = (840, 64);
type = Stem;
},
{
place = (48, 107);
place = (48, 107);
type = Stem;
},
{
place = (477, 63);
place = (477, 63);
type = Stem;
},
{
place = (598, 107);
place = (598, 107);
type = Stem;
},
{
place = (212, 60);
place = (212, 60);
type = Stem;
}
);
layerId = m01;
shapes = (
{
closed = 1;
nodes = (
(501,765,o),
(540,814,o),
(540,901,c),
(477,901,l),
(477,855,o),
(462,829,o),
(442,829,cs),
(401,829,o),
(385,904,o),
(314,904,cs),
(251,904,o),
(212,855,o),
(212,770,c),
(272,770,l),
(272,815,o),
(286,840,o),
(310,840,cs),
(352,840,o),
(362,765,o),
(441,765,cs)
);
},
{
closed = 1;
nodes = (
(572,-13,o),
(705,131,o),
(705,348,cs),
(705,566,o),
(573,710,o),
(377,710,cs),
(181,710,o),
(48,566,o),
(48,348,cs),
(48,131,o),
(181,-13,o),
(377,-13,cs)
);
},
{
closed = 1;
nodes = (
(242,89,o),
(155,188,o),
(155,348,cs),
(155,509,o),
(242,608,o),
(377,608,cs),
(512,608,o),
(598,508,o),
(598,348,cs),
(598,189,o),
(512,89,o),
(377,89,cs)
);
}
);
width = 753;
}
);
note = Otilde;
unicode = 213;
},
{
glyphname = OE;
kernLeft = C;
layers = (
{
hints = (
{
horizontal = 1;
place = (0, 99);
place = (0, 99);
type = Stem;
},
{
horizontal = 1;
place = (308, 99);
place = (308, 99);
type = Stem;
},
{
horizontal = 1;
place = (598, 99);
place = (598, 99);
type = Stem;
},
{
place = (48, 107);
place = (48, 107);
type = Stem;
},
{
place = (598, 108);
place = (598, 108);
type = Stem;
},
{
place = (599, 107);
place = (599, 107);
type = Stem;
},
{
horizontal = 1;
place = (-13, 102);
place = (-13, 102);
type = Stem;
},
{
horizontal = 1;
place = (608, 102);
place = (608, 102);
type = Stem;
}
);
layerId = m01;
shapes = (
{
closed = 1;
nodes = (
(1061,598,l),
(1061,697,l),
(599,697,l),
(599,627,l),
(543,680,o),
(467,710,o),
(377,710,cs),
(181,710,o),
(48,566,o),
(48,348,cs),
(48,131,o),
(181,-13,o),
(377,-13,cs),
(466,-13,o),
(543,17,o),
(599,71,c),
(599,0,l),
(1061,0,l),
(1061,99,l),
(706,99,l),
(706,308,l),
(1032,308,l),
(1032,407,l),
(706,407,l),
(706,598,l)
);
},
{
closed = 1;
nodes = (
(242,89,o),
(155,188,o),
(155,348,cs),
(155,509,o),
(242,608,o),
(377,608,cs),
(512,608,o),
(598,508,o),
(598,348,cs),
(598,189,o),
(512,89,o),
(377,89,cs)
);
}
);
width = 1120;
}
);
note = OE;
unicode = 338;
},
{
glyphname = P;
kernLeft = B;
kernRight = P;
lastChange = "2022-12-26 08:40:14 +0000";
layers = (
{
hints = (
{
horizontal = 1;
place = (0, 21);
target = up;
type = BottomGhost;
},
{
horizontal = 1;
place = (294, 99);
place = (294, 99);
type = Stem;
},
{
horizontal = 1;
place = (598, 99);
place = (598, 99);
type = Stem;
},
{
place = (97, 106);
place = (97, 106);
type = Stem;
},
{
place = (442, 108);
place = (442, 108);
type = Stem;
}
);
layerId = m01;
shapes = (
{
closed = 1;
nodes = (
(97,0,l),
(150,0,l),
(205,50,l),
(205,294,l),
(316,294,ls),
(467,294,o),
(550,366,o),
(550,498,cs),
(550,628,o),
(468,697,o),
(316,697,cs),
(97,697,l)
);
},
{
closed = 1;
nodes = (
(205,393,l),
(205,598,l),
(305,598,ls),
(400,598,o),
(442,567,o),
(442,496,cs),
(442,426,o),
(399,393,o),
(305,393,cs)
);
}
);
width = 581;
}
);
note = P;
unicode = 80;
},
{
glyphname = Thorn;
kernLeft = B;
kernRight = Thorn;
layers = (
{
hints = (
{
horizontal = 1;
place = (0, 21);
target = up;
type = BottomGhost;
},
{
horizontal = 1;
place = (199, 89);
place = (199, 89);
type = Stem;
},
{
horizontal = 1;
place = (515, 182);
place = (515, 182);
type = Stem;
},
{
place = (97, 97);
place = (97, 97);
type = Stem;
},
{
place = (442, 98);
place = (442, 98);
type = Stem;
},
{
horizontal = 1;
place = (515, 85);
place = (515, 85);
type = Stem;
}
);
layerId = m01;
shapes = (
{
closed = 1;
nodes = (
(97,0,l),
(194,0,l),
(194,199,l),
(302,199,ls),
(452,199,o),
(540,275,o),
(540,404,cs),
(540,527,o),
(461,600,o),
(325,600,cs),
(194,600,l),
(194,697,l),
(97,697,l)
);
},
{
closed = 1;
nodes = (
(194,288,l),
(194,515,l),
(302,515,ls),
(394,515,o),
(442,475,o),
(442,400,cs),
(442,326,o),
(395,288,o),
(302,288,cs)
);
}
);
width = 571;
}
);
note = Thorn;
unicode = 222;
},
{
glyphname = Q;
kernLeft = C;
kernRight = Q;
lastChange = "2022-12-26 08:40:25 +0000";
layers = (
{
hints = (
{
horizontal = 1;
place = (-13, 21);
target = up;
type = BottomGhost;
},
{
horizontal = 1;
place = (608, 102);
place = (608, 102);
type = Stem;
},
{
place = (47, 107);
place = (47, 107);
type = Stem;
},
{
place = (596, 107);
place = (596, 107);
type = Stem;
},
{
horizontal = 1;
place = (-13, 102);
place = (-13, 102);
type = Stem;
}
);
layerId = m01;
shapes = (
{
closed = 1;
nodes = (
(710,-13,l),
(703,32,l),
(628,105,l),
(676,167,o),
(703,250,o),
(703,348,cs),
(703,566,o),
(571,710,o),
(375,710,cs),
(179,710,o),
(47,566,o),
(47,348,cs),
(47,131,o),
(179,-13,o),
(375,-13,cs),
(447,-13,o),
(510,6,o),
(562,42,c),
(664,-57,l)
);
},
{
closed = 1;
nodes = (
(240,89,o),
(154,188,o),
(154,348,cs),
(154,509,o),
(240,608,o),
(375,608,cs),
(510,608,o),
(596,508,o),
(596,348,cs),
(596,280,o),
(580,223,o),
(552,180,c),
(452,277,l),
(386,212,l),
(485,116,l),
(454,99,o),
(417,89,o),
(375,89,cs)
);
}
);
width = 771;
}
);
note = Q;
unicode = 81;
},
{
glyphname = R;
kernLeft = B;
kernRight = R;
lastChange = "2022-12-26 08:40:55 +0000";
layers = (
{
hints = (
{
horizontal = 1;
place = (0, 21);
target = up;
type = BottomGhost;
},
{
horizontal = 1;
place = (296, 98);
place = (296, 98);
type = Stem;
},
{
horizontal = 1;
place = (598, 99);
place = (598, 99);
type = Stem;
},
{
place = (97, 106);
place = (97, 106);
type = Stem;
},
{
place = (442, 108);
place = (442, 108);
type = Stem;
}
);
layerId = m01;
shapes = (
{
closed = 1;
nodes = (
(567,0,ls),
(577,0,o),
(579,4,o),
(574,13,cs),
(393,309,l),
(513,345,o),
(550,400,o),
(550,499,cs),
(550,624,o),
(476,697,o),
(316,697,cs),
(97,697,l),
(97,0,l),
(150,0,l),
(205,50,l),
(205,296,l),
(267,296,l),
(288,296,l),
(457,0,l)
);
},
{
closed = 1;
nodes = (
(205,394,l),
(205,598,l),
(305,598,ls),
(395,598,o),
(442,571,o),
(442,497,cs),
(442,423,o),
(395,394,o),
(305,394,cs)
);
}
);
width = 626;
}
);
note = R;
unicode = 82;
},
{
glyphname = Racute;
kernLeft = B;
kernRight = R;
layers = (
{
hints = (
{
horizontal = 1;
place = (0, 21);
target = up;
type = BottomGhost;
},
{
horizontal = 1;
place = (296, 98);
place = (296, 98);
type = Stem;
},
{
horizontal = 1;
place = (598, 99);
place = (598, 99);
type = Stem;
},
{
horizontal = 1;
place = (759, 142);
place = (759, 142);
type = Stem;
},
{
place = (97, 106);
place = (97, 106);
type = Stem;
},
{
place = (442, 108);
place = (442, 108);
type = Stem;
}
);
layerId = m01;
shapes = (
{
closed = 1;
nodes = (
(496,901,l),
(385,901,l),
(275,759,l),
(352,759,l)
);
},
{
closed = 1;
nodes = (
(605,0,l),
(416,309,l),
(503,335,o),
(550,400,o),
(550,499,cs),
(550,624,o),
(476,697,o),
(315,697,cs),
(97,697,l),
(97,0,l),
(203,0,l),
(203,296,l),
(266,296,l),
(310,296,l),
(480,0,l)
);
},
{
closed = 1;
nodes = (
(203,394,l),
(203,598,l),
(304,598,ls),
(395,598,o),
(442,571,o),
(442,497,cs),
(442,423,o),
(395,394,o),
(304,394,cs)
);
}
);
width = 626;
}
);
note = Racute;
unicode = 340;
},
{
glyphname = Rcaron;
kernLeft = B;
kernRight = R;
layers = (
{
hints = (
{
horizontal = 1;
place = (0, 21);
target = up;
type = BottomGhost;
},
{
horizontal = 1;
place = (296, 98);
place = (296, 98);
type = Stem;
},
{
horizontal = 1;
place = (598, 99);
place = (598, 99);
type = Stem;
},
{
place = (97, 106);
place = (97, 106);
type = Stem;
},
{
place = (442, 108);
place = (442, 108);
type = Stem;
}
);
layerId = m01;
shapes = (
{
closed = 1;
nodes = (
(467,901,l),
(386,901,l),
(313,825,l),
(240,901,l),
(159,901,l),
(313,741,l)
);
},
{
closed = 1;
nodes = (
(605,0,l),
(416,309,l),
(503,335,o),
(550,400,o),
(550,499,cs),
(550,624,o),
(476,697,o),
(315,697,cs),
(97,697,l),
(97,0,l),
(203,0,l),
(203,296,l),
(266,296,l),
(310,296,l),
(480,0,l)
);
},
{
closed = 1;
nodes = (
(203,394,l),
(203,598,l),
(304,598,ls),
(395,598,o),
(442,571,o),
(442,497,cs),
(442,423,o),
(395,394,o),
(304,394,cs)
);
}
);
width = 626;
}
);
note = Rcaron;
unicode = 344;
},
{
glyphname = uni0156;
kernLeft = B;
kernRight = R;
layers = (
{
hints = (
{
horizontal = 1;
place = (-224, 170);
place = (-224, 170);
type = Stem;
},
{
horizontal = 1;
place = (0, 21);
target = up;
type = BottomGhost;
},
{
horizontal = 1;
place = (296, 98);
place = (296, 98);
type = Stem;
},
{
horizontal = 1;
place = (598, 99);
place = (598, 99);
type = Stem;
},
{
place = (97, 106);
place = (97, 106);
type = Stem;
},
{
place = (442, 108);
place = (442, 108);
type = Stem;
}
);
layerId = m01;
shapes = (
{
closed = 1;
nodes = (
(416,309,l),
(503,335,o),
(550,400,o),
(550,499,cs),
(550,624,o),
(476,697,o),
(315,697,cs),
(97,697,l),
(97,0,l),
(203,0,l),
(203,296,l),
(266,296,l),
(310,296,l),
(480,0,l),
(605,0,l)
);
},
{
closed = 1;
nodes = (
(203,394,l),
(203,598,l),
(304,598,ls),
(395,598,o),
(442,571,o),
(442,497,cs),
(442,423,o),
(395,394,o),
(304,394,cs)
);
},
{
closed = 1;
nodes = (
(185,-224,l),
(246,-224,l),
(366,-54,l),
(259,-54,l)
);
}
);
width = 626;
}
);
note = uni0156;
unicode = 342;
},
{
glyphname = S;
kernLeft = S;
kernRight = S;
layers = (
{
hints = (
{
horizontal = 1;
place = (-12, 95);
place = (-12, 95);
type = Stem;
},
{
horizontal = 1;
place = (615, 95);
place = (615, 95);
type = Stem;
},
{
place = (76, 107);
place = (76, 107);
type = Stem;
},
{
place = (419, 107);
place = (419, 107);
type = Stem;
}
);
layerId = m01;
shapes = (
{
closed = 1;
nodes = (
(433,-12,o),
(526,70,o),
(526,196,cs),
(526,294,o),
(479,348,o),
(328,406,cs),
(221,447,o),
(183,476,o),
(183,528,cs),
(183,576,o),
(225,615,o),
(283,615,cs),
(334,615,o),
(379,586,o),
(405,533,c),
(494,588,l),
(451,669,o),
(378,710,o),
(286,710,cs),
(160,710,o),
(76,636,o),
(76,525,cs),
(76,427,o),
(127,375,o),
(271,320,cs),
(381,277,o),
(419,244,o),
(419,187,cs),
(419,124,o),
(372,83,o),
(292,83,cs),
(206,83,o),
(147,134,o),
(137,219,c),
(30,193,l),
(50,69,o),
(154,-12,o),
(290,-12,cs)
);
}
);
width = 563;
}
);
note = S;
unicode = 83;
},
{
glyphname = Sacute;
kernLeft = S;
kernRight = S;
layers = (
{
hints = (
{
horizontal = 1;
place = (-12, 95);
place = (-12, 95);
type = Stem;
},
{
horizontal = 1;
place = (615, 95);
place = (615, 95);
type = Stem;
},
{
horizontal = 1;
place = (759, 142);
place = (759, 142);
type = Stem;
},
{
place = (76, 107);
place = (76, 107);
type = Stem;
},
{
place = (419, 107);
place = (419, 107);
type = Stem;
}
);
layerId = m01;
shapes = (
{
closed = 1;
nodes = (
(243,759,l),
(320,759,l),
(464,901,l),
(353,901,l)
);
},
{
closed = 1;
nodes = (
(433,-12,o),
(526,70,o),
(526,196,cs),
(526,294,o),
(479,348,o),
(328,406,cs),
(221,447,o),
(183,476,o),
(183,528,cs),
(183,576,o),
(225,615,o),
(283,615,cs),
(334,615,o),
(379,586,o),
(405,533,c),
(494,588,l),
(451,669,o),
(378,710,o),
(286,710,cs),
(160,710,o),
(76,636,o),
(76,525,cs),
(76,427,o),
(127,375,o),
(271,320,cs),
(381,277,o),
(419,244,o),
(419,187,cs),
(419,124,o),
(372,83,o),
(292,83,cs),
(206,83,o),
(147,134,o),
(137,219,c),
(30,193,l),
(50,69,o),
(154,-12,o),
(290,-12,cs)
);
}
);
width = 563;
}
);
note = Sacute;
unicode = 346;
},
{
glyphname = Scaron;
kernLeft = S;
kernRight = S;
layers = (
{
hints = (
{
horizontal = 1;
place = (-12, 95);
place = (-12, 95);
type = Stem;
},
{
horizontal = 1;
place = (615, 95);
place = (615, 95);
type = Stem;
},
{
place = (76, 107);
place = (76, 107);
type = Stem;
},
{
place = (419, 107);
place = (419, 107);
type = Stem;
}
);
layerId = m01;
shapes = (
{
closed = 1;
nodes = (
(282,741,l),
(436,901,l),
(355,901,l),
(282,825,l),
(209,901,l),
(128,901,l)
);
},
{
closed = 1;
nodes = (
(433,-12,o),
(526,70,o),
(526,196,cs),
(526,294,o),
(479,348,o),
(328,406,cs),
(221,447,o),
(183,476,o),
(183,528,cs),
(183,576,o),
(225,615,o),
(283,615,cs),
(334,615,o),
(379,586,o),
(405,533,c),
(494,588,l),
(451,669,o),
(378,710,o),
(286,710,cs),
(160,710,o),
(76,636,o),
(76,525,cs),
(76,427,o),
(127,375,o),
(271,320,cs),
(381,277,o),
(419,244,o),
(419,187,cs),
(419,124,o),
(372,83,o),
(292,83,cs),
(206,83,o),
(147,134,o),
(137,219,c),
(30,193,l),
(50,69,o),
(154,-12,o),
(290,-12,cs)
);
}
);
width = 563;
}
);
note = Scaron;
unicode = 352;
},
{
glyphname = Scedilla;
kernLeft = S;
kernRight = S;
layers = (
{
hints = (
{
horizontal = 1;
place = (-257, 60);
place = (-257, 60);
type = Stem;
},
{
horizontal = 1;
place = (-9, 21);
target = up;
type = BottomGhost;
},
{
horizontal = 1;
place = (615, 95);
place = (615, 95);
type = Stem;
},
{
place = (76, 107);
place = (76, 107);
type = Stem;
},
{
place = (314, 60);
place = (314, 60);
type = Stem;
},
{
place = (419, 107);
place = (419, 107);
type = Stem;
},
{
horizontal = 1;
place = (-95, 178);
place = (-95, 178);
type = Stem;
}
);
layerId = m01;
shapes = (
{
closed = 1;
nodes = (
(526,294,o),
(479,348,o),
(328,406,cs),
(221,447,o),
(183,476,o),
(183,528,cs),
(183,576,o),
(225,615,o),
(283,615,cs),
(334,615,o),
(379,586,o),
(405,533,c),
(494,588,l),
(451,669,o),
(378,710,o),
(286,710,cs),
(160,710,o),
(76,636,o),
(76,525,cs),
(76,427,o),
(127,375,o),
(271,320,cs),
(381,277,o),
(419,244,o),
(419,187,cs),
(419,124,o),
(372,83,o),
(292,83,cs),
(206,83,o),
(147,134,o),
(137,219,c),
(30,193,l),
(48,83,o),
(131,7,o),
(245,-9,c),
(192,-95,l),
(217,-95,o),
(240,-97,o),
(259,-100,cs),
(289,-106,o),
(314,-122,o),
(314,-152,cs),
(314,-180,o),
(296,-197,o),
(267,-197,cs),
(251,-197,o),
(230,-191,o),
(211,-170,c),
(178,-220,l),
(204,-247,o),
(238,-257,o),
(265,-257,cs),
(329,-257,o),
(374,-211,o),
(374,-150,cs),
(374,-114,o),
(357,-88,o),
(327,-71,cs),
(312,-63,o),
(294,-58,o),
(273,-54,c),
(304,-12,l),
(439,-7,o),
(526,74,o),
(526,196,cs)
);
}
);
width = 563;
}
);
note = Scedilla;
unicode = 350;
},
{
glyphname = uni0218;
kernLeft = S;
kernRight = S;
layers = (
{
hints = (
{
horizontal = 1;
place = (-224, 170);
place = (-224, 170);
type = Stem;
},
{
horizontal = 1;
place = (-12, 95);
place = (-12, 95);
type = Stem;
},
{
horizontal = 1;
place = (615, 95);
place = (615, 95);
type = Stem;
},
{
place = (76, 107);
place = (76, 107);
type = Stem;
},
{
place = (419, 107);
place = (419, 107);
type = Stem;
}
);
layerId = m01;
shapes = (
{
closed = 1;
nodes = (
(433,-12,o),
(526,70,o),
(526,196,cs),
(526,294,o),
(479,348,o),
(328,406,cs),
(221,447,o),
(183,476,o),
(183,528,cs),
(183,576,o),
(225,615,o),
(283,615,cs),
(334,615,o),
(379,586,o),
(405,533,c),
(494,588,l),
(451,669,o),
(378,710,o),
(286,710,cs),
(160,710,o),
(76,636,o),
(76,525,cs),
(76,427,o),
(127,375,o),
(271,320,cs),
(381,277,o),
(419,244,o),
(419,187,cs),
(419,124,o),
(372,83,o),
(292,83,cs),
(206,83,o),
(147,134,o),
(137,219,c),
(30,193,l),
(50,69,o),
(154,-12,o),
(290,-12,cs)
);
},
{
closed = 1;
nodes = (
(154,-224,l),
(215,-224,l),
(335,-54,l),
(228,-54,l)
);
}
);
width = 563;
}
);
note = uni0218;
unicode = 536;
},
{
glyphname = uni1E9E;
layers = (
{
hints = (
{
horizontal = 1;
place = (-13, 100);
place = (-13, 100);
type = Stem;
},
{
horizontal = 1;
place = (593, 104);
place = (593, 104);
type = Stem;
},
{
place = (81, 107);
place = (81, 107);
type = Stem;
},
{
place = (287, 108);
place = (287, 108);
type = Stem;
},
{
place = (537, 117);
place = (537, 117);
type = Stem;
},
{
horizontal = 1;
place = (0, 21);
target = up;
type = BottomGhost;
}
);
layerId = m01;
shapes = (
{
closed = 1;
nodes = (
(575,-13,o),
(654,54,o),
(654,144,cs),
(654,329,o),
(395,278,o),
(395,362,cs),
(395,380,o),
(408,398,o),
(419,411,cs),
(586,607,l),
(586,697,l),
(335,697,ls),
(105,697,o),
(81,544,o),
(81,431,cs),
(81,0,l),
(188,0,l),
(188,431,ls),
(188,541,o),
(226,593,o),
(335,593,cs),
(448,593,l),
(346,474,ls),
(318,440,o),
(287,412,o),
(287,354,cs),
(287,189,o),
(537,244,o),
(537,141,cs),
(537,108,o),
(513,87,o),
(465,87,cs),
(400,87,o),
(360,125,o),
(340,174,c),
(249,126,l),
(273,48,o),
(354,-13,o),
(462,-13,cs)
);
}
);
width = 684;
}
);
note = uni1E9E;
unicode = 7838;
},
{
glyphname = T;
kernLeft = T;
kernRight = T;
lastChange = "2022-12-26 08:41:07 +0000";
layers = (
{
hints = (
{
horizontal = 1;
place = (0, 21);
target = up;
type = BottomGhost;
},
{
horizontal = 1;
place = (598, 99);
place = (598, 99);
type = Stem;
},
{
place = (242, 108);
place = (242, 108);
type = Stem;
}
);
layerId = m01;
shapes = (
{
closed = 1;
nodes = (
(242,0,l),
(295,0,l),
(350,50,l),
(350,598,l),
(576,598,l),
(576,697,l),
(17,697,l),
(17,598,l),
(242,598,l)
);
}
);
width = 593;
}
);
note = T;
unicode = 84;
},
{
glyphname = Tbar;
kernLeft = T;
kernRight = T;
layers = (
{
hints = (
{
horizontal = 1;
place = (0, 21);
target = up;
type = BottomGhost;
},
{
horizontal = 1;
place = (314, 69);
place = (314, 69);
type = Stem;
},
{
horizontal = 1;
place = (598, 99);
place = (598, 99);
type = Stem;
},
{
place = (242, 108);
place = (242, 108);
type = Stem;
}
);
layerId = m01;
shapes = (
{
closed = 1;
nodes = (
(576,598,l),
(576,697,l),
(17,697,l),
(17,598,l),
(242,598,l),
(242,383,l),
(143,383,l),
(143,314,l),
(242,314,l),
(242,0,l),
(350,0,l),
(350,314,l),
(448,314,l),
(448,383,l),
(350,383,l),
(350,598,l)
);
}
);
width = 593;
}
);
note = Tbar;
unicode = 358;
},
{
glyphname = Tcaron;
kernLeft = T;
kernRight = T;
layers = (
{
hints = (
{
horizontal = 1;
place = (0, 21);
target = up;
type = BottomGhost;
},
{
horizontal = 1;
place = (598, 99);
place = (598, 99);
type = Stem;
},
{
place = (242, 108);
place = (242, 108);
type = Stem;
}
);
layerId = m01;
shapes = (
{
closed = 1;
nodes = (
(296,741,l),
(450,901,l),
(369,901,l),
(296,825,l),
(223,901,l),
(142,901,l)
);
},
{
closed = 1;
nodes = (
(242,0,l),
(350,0,l),
(350,598,l),
(576,598,l),
(576,697,l),
(17,697,l),
(17,598,l),
(242,598,l)
);
}
);
width = 593;
}
);
note = Tcaron;
unicode = 356;
},
{
glyphname = uni0162;
kernLeft = T;
kernRight = T;
layers = (
{
hints = (
{
horizontal = 1;
place = (-257, 60);
place = (-257, 60);
type = Stem;
},
{
horizontal = 1;
place = (0, 21);
target = up;
type = BottomGhost;
},
{
horizontal = 1;
place = (598, 99);
place = (598, 99);
type = Stem;
},
{
place = (242, 108);
place = (242, 108);
type = Stem;
},
{
place = (329, 60);
place = (329, 60);
type = Stem;
}
);
layerId = m01;
shapes = (
{
closed = 1;
nodes = (
(350,0,l),
(350,598,l),
(576,598,l),
(576,697,l),
(17,697,l),
(17,598,l),
(242,598,l),
(242,0,l),
(265,0,l),
(207,-95,l),
(232,-95,o),
(255,-97,o),
(274,-100,cs),
(304,-106,o),
(329,-122,o),
(329,-152,cs),
(329,-180,o),
(311,-197,o),
(282,-197,cs),
(266,-197,o),
(245,-191,o),
(226,-170,c),
(193,-220,l),
(219,-247,o),
(253,-257,o),
(280,-257,cs),
(344,-257,o),
(389,-211,o),
(389,-150,cs),
(389,-114,o),
(372,-88,o),
(342,-71,cs),
(327,-63,o),
(309,-58,o),
(288,-54,c),
(327,0,l)
);
}
);
width = 593;
}
);
note = uni0162;
unicode = 354;
},
{
glyphname = uni021A;
kernLeft = T;
kernRight = T;
layers = (
{
hints = (
{
horizontal = 1;
place = (-224, 170);
place = (-224, 170);
type = Stem;
},
{
horizontal = 1;
place = (0, 21);
target = up;
type = BottomGhost;
},
{
horizontal = 1;
place = (598, 99);
place = (598, 99);
type = Stem;
},
{
place = (242, 108);
place = (242, 108);
type = Stem;
}
);
layerId = m01;
shapes = (
{
closed = 1;
nodes = (
(242,0,l),
(350,0,l),
(350,598,l),
(576,598,l),
(576,697,l),
(17,697,l),
(17,598,l),
(242,598,l)
);
},
{
closed = 1;
nodes = (
(168,-224,l),
(229,-224,l),
(349,-54,l),
(242,-54,l)
);
}
);
width = 593;
}
);
note = uni021A;
unicode = 538;
},
{
glyphname = U;
kernLeft = U;
kernRight = J;
lastChange = "2022-12-26 08:41:23 +0000";
layers = (
{
hints = (
{
horizontal = 1;
place = (-13, 104);
place = (-13, 104);
type = Stem;
},
{
horizontal = 1;
place = (697, -20);
target = down;
type = TopGhost;
},
{
place = (82, 107);
place = (82, 107);
type = Stem;
},
{
place = (498, 107);
place = (498, 107);
type = Stem;
}
);
layerId = m01;
shapes = (
{
closed = 1;
nodes = (
(513,697,ls),
(503,697,o),
(498,692,o),
(498,682,cs),
(498,265,ls),
(498,141,o),
(452,91,o),
(343,91,cs),
(234,91,o),
(189,140,o),
(189,264,cs),
(189,682,ls),
(189,692,o),
(184,697,o),
(174,697,cs),
(82,697,l),
(82,252,ls),
(82,76,o),
(172,-13,o),
(343,-13,cs),
(515,-13,o),
(605,78,o),
(605,257,cs),
(605,697,l)
);
}
);
width = 687;
}
);
note = U;
unicode = 85;
},
{
glyphname = Uacute;
kernLeft = U;
kernRight = J;
layers = (
{
hints = (
{
horizontal = 1;
place = (-13, 104);
place = (-13, 104);
type = Stem;
},
{
horizontal = 1;
place = (697, -20);
target = down;
type = TopGhost;
},
{
horizontal = 1;
place = (759, 142);
place = (759, 142);
type = Stem;
},
{
place = (82, 107);
place = (82, 107);
type = Stem;
},
{
place = (498, 107);
place = (498, 107);
type = Stem;
}
);
layerId = m01;
shapes = (
{
closed = 1;
nodes = (
(306,759,l),
(383,759,l),
(527,901,l),
(416,901,l)
);
},
{
closed = 1;
nodes = (
(515,-13,o),
(605,78,o),
(605,257,cs),
(605,697,l),
(498,697,l),
(498,265,ls),
(498,141,o),
(452,91,o),
(343,91,cs),
(234,91,o),
(189,140,o),
(189,264,cs),
(189,697,l),
(82,697,l),
(82,252,ls),
(82,76,o),
(172,-13,o),
(343,-13,cs)
);
}
);
width = 687;
}
);
note = Uacute;
unicode = 218;
},
{
glyphname = uni01D3;
kernLeft = U;
kernRight = J;
layers = (
{
hints = (
{
horizontal = 1;
place = (-13, 104);
place = (-13, 104);
type = Stem;
},
{
horizontal = 1;
place = (697, -20);
target = down;
type = TopGhost;
},
{
place = (82, 107);
place = (82, 107);
type = Stem;
},
{
place = (498, 107);
place = (498, 107);
type = Stem;
}
);
layerId = m01;
shapes = (
{
closed = 1;
nodes = (
(344,741,l),
(498,901,l),
(417,901,l),
(344,825,l),
(271,901,l),
(190,901,l)
);
},
{
closed = 1;
nodes = (
(515,-13,o),
(605,78,o),
(605,257,cs),
(605,697,l),
(498,697,l),
(498,265,ls),
(498,141,o),
(452,91,o),
(343,91,cs),
(234,91,o),
(189,140,o),
(189,264,cs),
(189,697,l),
(82,697,l),
(82,252,ls),
(82,76,o),
(172,-13,o),
(343,-13,cs)
);
}
);
width = 687;
}
);
note = uni01D3;
unicode = 467;
},
{
glyphname = Ucircumflex;
kernLeft = U;
kernRight = J;
layers = (
{
hints = (
{
horizontal = 1;
place = (-13, 104);
place = (-13, 104);
type = Stem;
},
{
horizontal = 1;
place = (697, -20);
target = down;
type = TopGhost;
},
{
place = (82, 107);
place = (82, 107);
type = Stem;
},
{
place = (498, 107);
place = (498, 107);
type = Stem;
}
);
layerId = m01;
shapes = (
{
closed = 1;
nodes = (
(190,747,l),
(272,747,l),
(344,828,l),
(417,747,l),
(498,747,l),
(344,916,l)
);
},
{
closed = 1;
nodes = (
(515,-13,o),
(605,78,o),
(605,257,cs),
(605,697,l),
(498,697,l),
(498,265,ls),
(498,141,o),
(452,91,o),
(343,91,cs),
(234,91,o),
(189,140,o),
(189,264,cs),
(189,697,l),
(82,697,l),
(82,252,ls),
(82,76,o),
(172,-13,o),
(343,-13,cs)
);
}
);
width = 687;
}
);
note = Ucircumflex;
unicode = 219;
},
{
glyphname = Udieresis;
kernLeft = U;
kernRight = J;
layers = (
{
hints = (
{
horizontal = 1;
place = (-13, 104);
place = (-13, 104);
type = Stem;
},
{
horizontal = 1;
place = (697, -20);
target = down;
type = TopGhost;
},
{
horizontal = 1;
place = (793, 108);
place = (793, 108);
type = Stem;
},
{
place = (82, 107);
place = (82, 107);
type = Stem;
},
{
place = (202, 94);
place = (202, 94);
type = Stem;
},
{
place = (392, 94);
place = (392, 94);
type = Stem;
},
{
place = (498, 107);
place = (498, 107);
type = Stem;
}
);
layerId = m01;
shapes = (
{
closed = 1;
nodes = (
(202,793,l),
(296,793,l),
(296,901,l),
(202,901,l)
);
},
{
closed = 1;
nodes = (
(392,793,l),
(486,793,l),
(486,901,l),
(392,901,l)
);
},
{
closed = 1;
nodes = (
(515,-13,o),
(605,78,o),
(605,257,cs),
(605,697,l),
(498,697,l),
(498,265,ls),
(498,141,o),
(452,91,o),
(343,91,cs),
(234,91,o),
(189,140,o),
(189,264,cs),
(189,697,l),
(82,697,l),
(82,252,ls),
(82,76,o),
(172,-13,o),
(343,-13,cs)
);
}
);
width = 687;
}
);
note = Udieresis;
unicode = 220;
},
{
glyphname = uni01D7;
kernLeft = U;
kernRight = J;
layers = (
{
hints = (
{
horizontal = 1;
place = (-13, 104);
place = (-13, 104);
type = Stem;
},
{
horizontal = 1;
place = (697, -20);
target = down;
type = TopGhost;
},
{
horizontal = 1;
place = (793, 108);
place = (793, 108);
type = Stem;
},
{
horizontal = 1;
place = (963, 142);
place = (963, 142);
type = Stem;
},
{
place = (82, 107);
place = (82, 107);
type = Stem;
},
{
place = (498, 107);
place = (498, 107);
type = Stem;
},
{
place = (202, 94);
place = (202, 94);
type = Stem;
},
{
place = (392, 94);
place = (392, 94);
type = Stem;
}
);
layerId = m01;
shapes = (
{
closed = 1;
nodes = (
(306,963,l),
(383,963,l),
(527,1105,l),
(416,1105,l)
);
},
{
closed = 1;
nodes = (
(202,793,l),
(296,793,l),
(296,901,l),
(202,901,l)
);
},
{
closed = 1;
nodes = (
(392,793,l),
(486,793,l),
(486,901,l),
(392,901,l)
);
},
{
closed = 1;
nodes = (
(515,-13,o),
(605,78,o),
(605,257,cs),
(605,697,l),
(498,697,l),
(498,265,ls),
(498,141,o),
(452,91,o),
(343,91,cs),
(234,91,o),
(189,140,o),
(189,264,cs),
(189,697,l),
(82,697,l),
(82,252,ls),
(82,76,o),
(172,-13,o),
(343,-13,cs)
);
}
);
width = 687;
}
);
note = uni01D7;
unicode = 471;
},
{
glyphname = uni01D9;
kernLeft = U;
kernRight = J;
layers = (
{
hints = (
{
horizontal = 1;
place = (-13, 104);
place = (-13, 104);
type = Stem;
},
{
horizontal = 1;
place = (697, -20);
target = down;
type = TopGhost;
},
{
horizontal = 1;
place = (793, 108);
place = (793, 108);
type = Stem;
},
{
place = (82, 107);
place = (82, 107);
type = Stem;
},
{
place = (498, 107);
place = (498, 107);
type = Stem;
},
{
place = (202, 94);
place = (202, 94);
type = Stem;
},
{
place = (392, 94);
place = (392, 94);
type = Stem;
}
);
layerId = m01;
shapes = (
{
closed = 1;
nodes = (
(344,945,l),
(498,1105,l),
(417,1105,l),
(344,1029,l),
(271,1105,l),
(190,1105,l)
);
},
{
closed = 1;
nodes = (
(202,793,l),
(296,793,l),
(296,901,l),
(202,901,l)
);
},
{
closed = 1;
nodes = (
(392,793,l),
(486,793,l),
(486,901,l),
(392,901,l)
);
},
{
closed = 1;
nodes = (
(515,-13,o),
(605,78,o),
(605,257,cs),
(605,697,l),
(498,697,l),
(498,265,ls),
(498,141,o),
(452,91,o),
(343,91,cs),
(234,91,o),
(189,140,o),
(189,264,cs),
(189,697,l),
(82,697,l),
(82,252,ls),
(82,76,o),
(172,-13,o),
(343,-13,cs)
);
}
);
width = 687;
}
);
note = uni01D9;
unicode = 473;
},
{
glyphname = uni01DB;
kernLeft = U;
kernRight = J;
layers = (
{
hints = (
{
horizontal = 1;
place = (-13, 104);
place = (-13, 104);
type = Stem;
},
{
horizontal = 1;
place = (697, -20);
target = down;
type = TopGhost;
},
{
horizontal = 1;
place = (793, 108);
place = (793, 108);
type = Stem;
},
{
horizontal = 1;
place = (963, 142);
place = (963, 142);
type = Stem;
},
{
place = (82, 107);
place = (82, 107);
type = Stem;
},
{
place = (498, 107);
place = (498, 107);
type = Stem;
},
{
place = (202, 94);
place = (202, 94);
type = Stem;
},
{
place = (392, 94);
place = (392, 94);
type = Stem;
}
);
layerId = m01;
shapes = (
{
closed = 1;
nodes = (
(305,963,l),
(383,963,l),
(279,1105,l),
(169,1105,l)
);
},
{
closed = 1;
nodes = (
(202,793,l),
(296,793,l),
(296,901,l),
(202,901,l)
);
},
{
closed = 1;
nodes = (
(392,793,l),
(486,793,l),
(486,901,l),
(392,901,l)
);
},
{
closed = 1;
nodes = (
(515,-13,o),
(605,78,o),
(605,257,cs),
(605,697,l),
(498,697,l),
(498,265,ls),
(498,141,o),
(452,91,o),
(343,91,cs),
(234,91,o),
(189,140,o),
(189,264,cs),
(189,697,l),
(82,697,l),
(82,252,ls),
(82,76,o),
(172,-13,o),
(343,-13,cs)
);
}
);
width = 687;
}
);
note = uni01DB;
unicode = 475;
},
{
glyphname = uni01D5;
kernLeft = U;
kernRight = J;
layers = (
{
hints = (
{
horizontal = 1;
place = (-13, 104);
place = (-13, 104);
type = Stem;
},
{
horizontal = 1;
place = (697, -20);
target = down;
type = TopGhost;
},
{
horizontal = 1;
place = (793, 108);
place = (793, 108);
type = Stem;
},
{
horizontal = 1;
place = (985, 61);
place = (985, 61);
type = Stem;
},
{
place = (82, 107);
place = (82, 107);
type = Stem;
},
{
place = (498, 107);
place = (498, 107);
type = Stem;
},
{
place = (202, 94);
place = (202, 94);
type = Stem;
},
{
place = (392, 94);
place = (392, 94);
type = Stem;
}
);
layerId = m01;
shapes = (
{
closed = 1;
nodes = (
(207,985,l),
(480,985,l),
(480,1046,l),
(207,1046,l)
);
},
{
closed = 1;
nodes = (
(202,793,l),
(296,793,l),
(296,901,l),
(202,901,l)
);
},
{
closed = 1;
nodes = (
(392,793,l),
(486,793,l),
(486,901,l),
(392,901,l)
);
},
{
closed = 1;
nodes = (
(515,-13,o),
(605,78,o),
(605,257,cs),
(605,697,l),
(498,697,l),
(498,265,ls),
(498,141,o),
(452,91,o),
(343,91,cs),
(234,91,o),
(189,140,o),
(189,264,cs),
(189,697,l),
(82,697,l),
(82,252,ls),
(82,76,o),
(172,-13,o),
(343,-13,cs)
);
}
);
width = 687;
}
);
note = uni01D5;
unicode = 469;
},
{
glyphname = uni1EE4;
kernLeft = U;
kernRight = J;
layers = (
{
hints = (
{
horizontal = 1;
place = (-173, 108);
place = (-173, 108);
type = Stem;
},
{
horizontal = 1;
place = (-13, 104);
place = (-13, 104);
type = Stem;
},
{
horizontal = 1;
place = (697, -20);
target = down;
type = TopGhost;
},
{
place = (82, 107);
place = (82, 107);
type = Stem;
},
{
place = (289, 110);
place = (289, 110);
type = Stem;
},
{
place = (498, 107);
place = (498, 107);
type = Stem;
}
);
layerId = m01;
shapes = (
{
closed = 1;
nodes = (
(515,-13,o),
(605,78,o),
(605,257,cs),
(605,697,l),
(498,697,l),
(498,265,ls),
(498,141,o),
(452,91,o),
(343,91,cs),
(234,91,o),
(189,140,o),
(189,264,cs),
(189,697,l),
(82,697,l),
(82,252,ls),
(82,76,o),
(172,-13,o),
(343,-13,cs)
);
},
{
closed = 1;
nodes = (
(289,-173,l),
(399,-173,l),
(399,-65,l),
(289,-65,l)
);
}
);
width = 687;
}
);
note = uni1EE4;
unicode = 7908;
},
{
glyphname = Ugrave;
kernLeft = U;
kernRight = J;
layers = (
{
hints = (
{
horizontal = 1;
place = (-13, 104);
place = (-13, 104);
type = Stem;
},
{
horizontal = 1;
place = (697, -20);
target = down;
type = TopGhost;
},
{
horizontal = 1;
place = (759, 142);
place = (759, 142);
type = Stem;
},
{
place = (82, 107);
place = (82, 107);
type = Stem;
},
{
place = (498, 107);
place = (498, 107);
type = Stem;
}
);
layerId = m01;
shapes = (
{
closed = 1;
nodes = (
(305,759,l),
(383,759,l),
(279,901,l),
(169,901,l)
);
},
{
closed = 1;
nodes = (
(515,-13,o),
(605,78,o),
(605,257,cs),
(605,697,l),
(498,697,l),
(498,265,ls),
(498,141,o),
(452,91,o),
(343,91,cs),
(234,91,o),
(189,140,o),
(189,264,cs),
(189,697,l),
(82,697,l),
(82,252,ls),
(82,76,o),
(172,-13,o),
(343,-13,cs)
);
}
);
width = 687;
}
);
note = Ugrave;
unicode = 217;
},
{
glyphname = uni1EE6;
kernLeft = U;
kernRight = J;
layers = (
{
hints = (
{
horizontal = 1;
place = (-13, 104);
place = (-13, 104);
type = Stem;
},
{
horizontal = 1;
place = (697, -20);
target = down;
type = TopGhost;
},
{
horizontal = 1;
place = (865, 57);
place = (865, 57);
type = Stem;
},
{
place = (82, 107);
place = (82, 107);
type = Stem;
},
{
place = (389, 66);
place = (389, 66);
type = Stem;
},
{
place = (498, 107);
place = (498, 107);
type = Stem;
}
);
layerId = m01;
shapes = (
{
closed = 1;
nodes = (
(335,736,l),
(385,745,o),
(455,756,o),
(455,825,cs),
(455,888,o),
(395,922,o),
(309,922,cs),
(294,922,l),
(294,865,l),
(309,865,ls),
(349,865,o),
(389,860,o),
(389,824,cs),
(389,792,o),
(354,786,o),
(322,782,c)
);
},
{
closed = 1;
nodes = (
(515,-13,o),
(605,78,o),
(605,257,cs),
(605,697,l),
(498,697,l),
(498,265,ls),
(498,141,o),
(452,91,o),
(343,91,cs),
(234,91,o),
(189,140,o),
(189,264,cs),
(189,697,l),
(82,697,l),
(82,252,ls),
(82,76,o),
(172,-13,o),
(343,-13,cs)
);
}
);
width = 687;
}
);
note = uni1EE6;
unicode = 7910;
},
{
glyphname = Uhorn;
kernLeft = U;
kernRight = J;
layers = (
{
hints = (
{
horizontal = 1;
place = (-13, 104);
place = (-13, 104);
type = Stem;
},
{
horizontal = 1;
place = (697, -20);
target = down;
type = TopGhost;
},
{
place = (82, 107);
place = (82, 107);
type = Stem;
},
{
place = (498, 107);
place = (498, 107);
type = Stem;
},
{
place = (668, 79);
place = (668, 79);
type = Stem;
}
);
layerId = m01;
shapes = (
{
closed = 1;
nodes = (
(668,697,l),
(668,647,ls),
(668,609,o),
(655,567,o),
(605,563,c),
(605,697,l),
(498,697,l),
(498,265,ls),
(498,141,o),
(452,91,o),
(343,91,cs),
(234,91,o),
(189,140,o),
(189,264,cs),
(189,697,l),
(82,697,l),
(82,252,ls),
(82,76,o),
(172,-13,o),
(343,-13,cs),
(515,-13,o),
(605,78,o),
(605,257,cs),
(605,494,l),
(706,498,o),
(747,567,o),
(747,655,cs),
(747,697,l)
);
}
);
width = 687;
}
);
note = Uhorn;
unicode = 431;
},
{
glyphname = uni1EE8;
kernLeft = U;
kernRight = J;
layers = (
{
hints = (
{
horizontal = 1;
place = (-13, 104);
place = (-13, 104);
type = Stem;
},
{
horizontal = 1;
place = (697, -20);
target = down;
type = TopGhost;
},
{
horizontal = 1;
place = (759, 142);
place = (759, 142);
type = Stem;
},
{
place = (82, 107);
place = (82, 107);
type = Stem;
},
{
place = (498, 107);
place = (498, 107);
type = Stem;
},
{
place = (668, 79);
place = (668, 79);
type = Stem;
}
);
layerId = m01;
shapes = (
{
closed = 1;
nodes = (
(527,901,l),
(416,901,l),
(306,759,l),
(383,759,l)
);
},
{
closed = 1;
nodes = (
(668,697,l),
(668,647,ls),
(668,609,o),
(655,567,o),
(605,563,c),
(605,697,l),
(498,697,l),
(498,265,ls),
(498,141,o),
(452,91,o),
(343,91,cs),
(234,91,o),
(189,140,o),
(189,264,cs),
(189,697,l),
(82,697,l),
(82,252,ls),
(82,76,o),
(172,-13,o),
(343,-13,cs),
(515,-13,o),
(605,78,o),
(605,257,cs),
(605,494,l),
(706,498,o),
(747,567,o),
(747,655,cs),
(747,697,l)
);
}
);
width = 687;
}
);
note = uni1EE8;
unicode = 7912;
},
{
glyphname = uni1EF0;
kernLeft = U;
kernRight = J;
layers = (
{
hints = (
{
horizontal = 1;
place = (-173, 108);
place = (-173, 108);
type = Stem;
},
{
horizontal = 1;
place = (-13, 104);
place = (-13, 104);
type = Stem;
},
{
horizontal = 1;
place = (697, -20);
target = down;
type = TopGhost;
},
{
place = (82, 107);
place = (82, 107);
type = Stem;
},
{
place = (289, 110);
place = (289, 110);
type = Stem;
},
{
place = (498, 107);
place = (498, 107);
type = Stem;
},
{
place = (668, 79);
place = (668, 79);
type = Stem;
}
);
layerId = m01;
shapes = (
{
closed = 1;
nodes = (
(668,697,l),
(668,647,ls),
(668,609,o),
(655,567,o),
(605,563,c),
(605,697,l),
(498,697,l),
(498,265,ls),
(498,141,o),
(452,91,o),
(343,91,cs),
(234,91,o),
(189,140,o),
(189,264,cs),
(189,697,l),
(82,697,l),
(82,252,ls),
(82,76,o),
(172,-13,o),
(343,-13,cs),
(515,-13,o),
(605,78,o),
(605,257,cs),
(605,494,l),
(706,498,o),
(747,567,o),
(747,655,cs),
(747,697,l)
);
},
{
closed = 1;
nodes = (
(289,-173,l),
(399,-173,l),
(399,-65,l),
(289,-65,l)
);
}
);
width = 687;
}
);
note = uni1EF0;
unicode = 7920;
},
{
glyphname = uni1EEA;
kernLeft = U;
kernRight = J;
layers = (
{
hints = (
{
horizontal = 1;
place = (-13, 104);
place = (-13, 104);
type = Stem;
},
{
horizontal = 1;
place = (697, -20);
target = down;
type = TopGhost;
},
{
horizontal = 1;
place = (759, 142);
place = (759, 142);
type = Stem;
},
{
place = (82, 107);
place = (82, 107);
type = Stem;
},
{
place = (498, 107);
place = (498, 107);
type = Stem;
},
{
place = (668, 79);
place = (668, 79);
type = Stem;
}
);
layerId = m01;
shapes = (
{
closed = 1;
nodes = (
(383,759,l),
(279,901,l),
(169,901,l),
(305,759,l)
);
},
{
closed = 1;
nodes = (
(668,697,l),
(668,647,ls),
(668,609,o),
(655,567,o),
(605,563,c),
(605,697,l),
(498,697,l),
(498,265,ls),
(498,141,o),
(452,91,o),
(343,91,cs),
(234,91,o),
(189,140,o),
(189,264,cs),
(189,697,l),
(82,697,l),
(82,252,ls),
(82,76,o),
(172,-13,o),
(343,-13,cs),
(515,-13,o),
(605,78,o),
(605,257,cs),
(605,494,l),
(706,498,o),
(747,567,o),
(747,655,cs),
(747,697,l)
);
}
);
width = 687;
}
);
note = uni1EEA;
unicode = 7914;
},
{
glyphname = uni1EEC;
kernLeft = U;
kernRight = J;
layers = (
{
hints = (
{
horizontal = 1;
place = (-13, 104);
place = (-13, 104);
type = Stem;
},
{
horizontal = 1;
place = (697, -20);
target = down;
type = TopGhost;
},
{
horizontal = 1;
place = (865, 57);
place = (865, 57);
type = Stem;
},
{
place = (82, 107);
place = (82, 107);
type = Stem;
},
{
place = (389, 66);
place = (389, 66);
type = Stem;
},
{
place = (498, 107);
place = (498, 107);
type = Stem;
},
{
place = (668, 79);
place = (668, 79);
type = Stem;
}
);
layerId = m01;
shapes = (
{
closed = 1;
nodes = (
(389,792,o),
(354,786,o),
(322,782,c),
(335,736,l),
(385,745,o),
(455,756,o),
(455,825,cs),
(455,888,o),
(395,922,o),
(309,922,cs),
(294,922,l),
(294,865,l),
(309,865,ls),
(349,865,o),
(389,860,o),
(389,824,cs)
);
},
{
closed = 1;
nodes = (
(668,697,l),
(668,647,ls),
(668,609,o),
(655,567,o),
(605,563,c),
(605,697,l),
(498,697,l),
(498,265,ls),
(498,141,o),
(452,91,o),
(343,91,cs),
(234,91,o),
(189,140,o),
(189,264,cs),
(189,697,l),
(82,697,l),
(82,252,ls),
(82,76,o),
(172,-13,o),
(343,-13,cs),
(515,-13,o),
(605,78,o),
(605,257,cs),
(605,494,l),
(706,498,o),
(747,567,o),
(747,655,cs),
(747,697,l)
);
}
);
width = 687;
}
);
note = uni1EEC;
unicode = 7916;
},
{
glyphname = uni1EEE;
kernLeft = U;
kernRight = J;
layers = (
{
hints = (
{
horizontal = 1;
place = (-13, 104);
place = (-13, 104);
type = Stem;
},
{
horizontal = 1;
place = (697, -20);
target = down;
type = TopGhost;
},
{
horizontal = 1;
place = (840, 64);
place = (840, 64);
type = Stem;
},
{
place = (180, 60);
place = (180, 60);
type = Stem;
},
{
place = (445, 63);
place = (445, 63);
type = Stem;
},
{
place = (668, 79);
place = (668, 79);
type = Stem;
},
{
horizontal = 1;
place = (765, 64);
place = (765, 64);
type = Stem;
},
{
place = (82, 107);
place = (82, 107);
type = Stem;
},
{
place = (498, 107);
place = (498, 107);
type = Stem;
}
);
layerId = m01;
shapes = (
{
closed = 1;
nodes = (
(320,840,o),
(330,765,o),
(409,765,cs),
(469,765,o),
(508,814,o),
(508,901,c),
(445,901,l),
(445,855,o),
(430,829,o),
(410,829,cs),
(369,829,o),
(353,904,o),
(282,904,cs),
(219,904,o),
(180,855,o),
(180,770,c),
(240,770,l),
(240,815,o),
(254,840,o),
(278,840,cs)
);
},
{
closed = 1;
nodes = (
(668,697,l),
(668,647,ls),
(668,609,o),
(655,567,o),
(605,563,c),
(605,697,l),
(498,697,l),
(498,265,ls),
(498,141,o),
(452,91,o),
(343,91,cs),
(234,91,o),
(189,140,o),
(189,264,cs),
(189,697,l),
(82,697,l),
(82,252,ls),
(82,76,o),
(172,-13,o),
(343,-13,cs),
(515,-13,o),
(605,78,o),
(605,257,cs),
(605,494,l),
(706,498,o),
(747,567,o),
(747,655,cs),
(747,697,l)
);
}
);
width = 687;
}
);
note = uni1EEE;
unicode = 7918;
},
{
glyphname = Uhungarumlaut;
kernLeft = U;
kernRight = J;
layers = (
{
hints = (
{
horizontal = 1;
place = (-13, 104);
place = (-13, 104);
type = Stem;
},
{
horizontal = 1;
place = (697, -20);
target = down;
type = TopGhost;
},
{
horizontal = 1;
place = (742, 159);
place = (742, 159);
type = Stem;
},
{
place = (82, 107);
place = (82, 107);
type = Stem;
},
{
place = (498, 107);
place = (498, 107);
type = Stem;
}
);
layerId = m01;
shapes = (
{
closed = 1;
nodes = (
(213,742,l),
(290,742,l),
(416,901,l),
(323,901,l)
);
},
{
closed = 1;
nodes = (
(398,742,l),
(474,742,l),
(618,901,l),
(508,901,l)
);
},
{
closed = 1;
nodes = (
(515,-13,o),
(605,78,o),
(605,257,cs),
(605,697,l),
(498,697,l),
(498,265,ls),
(498,141,o),
(452,91,o),
(343,91,cs),
(234,91,o),
(189,140,o),
(189,264,cs),
(189,697,l),
(82,697,l),
(82,252,ls),
(82,76,o),
(172,-13,o),
(343,-13,cs)
);
}
);
width = 687;
}
);
note = Uhungarumlaut;
unicode = 368;
},
{
glyphname = Umacron;
kernLeft = U;
kernRight = J;
layers = (
{
hints = (
{
horizontal = 1;
place = (-13, 104);
place = (-13, 104);
type = Stem;
},
{
horizontal = 1;
place = (697, -20);
target = down;
type = TopGhost;
},
{
horizontal = 1;
place = (781, 61);
place = (781, 61);
type = Stem;
},
{
place = (82, 107);
place = (82, 107);
type = Stem;
},
{
place = (207, 273);
place = (207, 273);
type = Stem;
},
{
place = (498, 107);
place = (498, 107);
type = Stem;
}
);
layerId = m01;
shapes = (
{
closed = 1;
nodes = (
(207,781,l),
(480,781,l),
(480,842,l),
(207,842,l)
);
},
{
closed = 1;
nodes = (
(515,-13,o),
(605,78,o),
(605,257,cs),
(605,697,l),
(498,697,l),
(498,265,ls),
(498,141,o),
(452,91,o),
(343,91,cs),
(234,91,o),
(189,140,o),
(189,264,cs),
(189,697,l),
(82,697,l),
(82,252,ls),
(82,76,o),
(172,-13,o),
(343,-13,cs)
);
}
);
width = 687;
}
);
note = Umacron;
unicode = 362;
},
{
glyphname = Uogonek;
kernLeft = U;
kernRight = J;
layers = (
{
hints = (
{
horizontal = 1;
place = (-219, 64);
place = (-219, 64);
type = Stem;
},
{
horizontal = 1;
place = (-13, 104);
place = (-13, 104);
type = Stem;
},
{
horizontal = 1;
place = (697, -20);
target = down;
type = TopGhost;
},
{
place = (82, 107);
place = (82, 107);
type = Stem;
},
{
place = (260, 63);
place = (260, 63);
type = Stem;
},
{
place = (498, 107);
place = (498, 107);
type = Stem;
}
);
layerId = m01;
shapes = (
{
closed = 1;
nodes = (
(498,697,l),
(498,265,ls),
(498,141,o),
(452,91,o),
(343,91,cs),
(234,91,o),
(189,140,o),
(189,264,cs),
(189,697,l),
(82,697,l),
(82,252,ls),
(82,83,o),
(165,-6,o),
(323,-13,c),
(292,-36,o),
(260,-73,o),
(260,-124,cs),
(260,-182,o),
(306,-219,o),
(365,-219,cs),
(411,-219,o),
(444,-197,o),
(468,-164,c),
(416,-127,l),
(402,-145,o),
(384,-155,o),
(363,-155,cs),
(341,-155,o),
(323,-145,o),
(323,-114,cs),
(323,-58,o),
(380,-24,o),
(410,-8,c),
(538,14,o),
(605,103,o),
(605,257,cs),
(605,697,l)
);
}
);
width = 687;
}
);
note = Uogonek;
unicode = 370;
},
{
glyphname = Uring;
kernLeft = U;
kernRight = J;
layers = (
{
hints = (
{
horizontal = 1;
place = (-13, 104);
place = (-13, 104);
type = Stem;
},
{
horizontal = 1;
place = (679, 56);
place = (679, 56);
type = Stem;
},
{
horizontal = 1;
place = (839, 57);
place = (839, 57);
type = Stem;
},
{
place = (82, 107);
place = (82, 107);
type = Stem;
},
{
place = (236, 56);
place = (236, 56);
type = Stem;
},
{
place = (396, 57);
place = (396, 57);
type = Stem;
},
{
place = (498, 107);
place = (498, 107);
type = Stem;
},
{
horizontal = 1;
place = (697, -20);
target = down;
type = TopGhost;
}
);
layerId = m01;
shapes = (
{
closed = 1;
nodes = (
(404,679,o),
(453,728,o),
(453,787,cs),
(453,848,o),
(402,896,o),
(344,896,cs),
(285,896,o),
(236,847,o),
(236,787,cs),
(236,729,o),
(284,679,o),
(344,679,cs)
);
},
{
closed = 1;
nodes = (
(315,735,o),
(292,758,o),
(292,788,cs),
(292,818,o),
(313,839,o),
(344,839,cs),
(376,839,o),
(396,818,o),
(396,788,cs),
(396,758,o),
(375,735,o),
(344,735,cs)
);
},
{
closed = 1;
nodes = (
(515,-13,o),
(605,78,o),
(605,257,cs),
(605,697,l),
(498,697,l),
(498,265,ls),
(498,141,o),
(452,91,o),
(343,91,cs),
(234,91,o),
(189,140,o),
(189,264,cs),
(189,697,l),
(82,697,l),
(82,252,ls),
(82,76,o),
(172,-13,o),
(343,-13,cs)
);
}
);
width = 687;
}
);
note = Uring;
unicode = 366;
},
{
glyphname = Utilde;
kernLeft = U;
kernRight = J;
layers = (
{
hints = (
{
horizontal = 1;
place = (-13, 104);
place = (-13, 104);
type = Stem;
},
{
horizontal = 1;
place = (697, -20);
target = down;
type = TopGhost;
},
{
horizontal = 1;
place = (765, 64);
place = (765, 64);
type = Stem;
},
{
horizontal = 1;
place = (840, 64);
place = (840, 64);
type = Stem;
},
{
place = (82, 107);
place = (82, 107);
type = Stem;
},
{
place = (445, 63);
place = (445, 63);
type = Stem;
},
{
place = (180, 60);
place = (180, 60);
type = Stem;
},
{
place = (498, 107);
place = (498, 107);
type = Stem;
}
);
layerId = m01;
shapes = (
{
closed = 1;
nodes = (
(469,765,o),
(508,814,o),
(508,901,c),
(445,901,l),
(445,855,o),
(430,829,o),
(410,829,cs),
(369,829,o),
(353,904,o),
(282,904,cs),
(219,904,o),
(180,855,o),
(180,770,c),
(240,770,l),
(240,815,o),
(254,840,o),
(278,840,cs),
(320,840,o),
(330,765,o),
(409,765,cs)
);
},
{
closed = 1;
nodes = (
(515,-13,o),
(605,78,o),
(605,257,cs),
(605,697,l),
(498,697,l),
(498,265,ls),
(498,141,o),
(452,91,o),
(343,91,cs),
(234,91,o),
(189,140,o),
(189,264,cs),
(189,697,l),
(82,697,l),
(82,252,ls),
(82,76,o),
(172,-13,o),
(343,-13,cs)
);
}
);
width = 687;
}
);
note = Utilde;
unicode = 360;
},
{
glyphname = V;
kernLeft = V;
kernRight = V;
lastChange = "2022-12-26 08:41:47 +0000";
layers = (
{
hints = (
{
horizontal = 1;
place = (0, 21);
target = up;
type = BottomGhost;
},
{
horizontal = 1;
place = (697, -20);
target = down;
type = TopGhost;
},
{
place = (15, 637);
place = (15, 637);
type = Stem;
}
);
layerId = m01;
shapes = (
{
closed = 1;
nodes = (
(543,697,ls),
(537,697,o),
(533,693,o),
(531,688,cs),
(334,173,l),
(133,697,l),
(15,697,l),
(293,0,l),
(375,0,l),
(652,697,l)
);
}
);
width = 666;
}
);
note = V;
unicode = 86;
},
{
glyphname = W;
kernLeft = W;
kernRight = W;
lastChange = "2022-12-26 08:42:24 +0000";
layers = (
{
hints = (
{
horizontal = 1;
place = (0, 21);
target = up;
type = BottomGhost;
},
{
horizontal = 1;
place = (697, -20);
target = down;
type = TopGhost;
},
{
place = (21, 944);
place = (21, 944);
type = Stem;
},
{
horizontal = 1;
place = (0, 163);
place = (0, 163);
type = Stem;
}
);
layerId = m01;
shapes = (
{
closed = 1;
nodes = (
(868,697,ls),
(858,697,o),
(852,693,o),
(849,683,cs),
(700,163,l),
(539,658,l),
(462,658,ls),
(452,658,o),
(445,654,o),
(442,644,cs),
(287,163,l),
(133,697,l),
(21,697,l),
(228,0,l),
(333,0,l),
(493,488,l),
(653,0,l),
(758,0,l),
(965,697,l)
);
}
);
width = 986;
}
);
note = W;
unicode = 87;
},
{
glyphname = Wacute;
kernLeft = W;
kernRight = W;
layers = (
{
hints = (
{
horizontal = 1;
place = (0, 21);
target = up;
type = BottomGhost;
},
{
horizontal = 1;
place = (697, -20);
target = down;
type = TopGhost;
},
{
horizontal = 1;
place = (759, 142);
place = (759, 142);
type = Stem;
},
{
place = (21, 944);
place = (21, 944);
type = Stem;
},
{
horizontal = 1;
place = (0, 163);
place = (0, 163);
type = Stem;
}
);
layerId = m01;
shapes = (
{
closed = 1;
nodes = (
(455,759,l),
(532,759,l),
(676,901,l),
(565,901,l)
);
},
{
closed = 1;
nodes = (
(228,0,l),
(333,0,l),
(493,488,l),
(653,0,l),
(758,0,l),
(965,697,l),
(853,697,l),
(700,163,l),
(539,658,l),
(447,658,l),
(287,163,l),
(133,697,l),
(21,697,l)
);
}
);
width = 986;
}
);
note = Wacute;
unicode = 7810;
},
{
glyphname = Wcircumflex;
kernLeft = W;
kernRight = W;
layers = (
{
hints = (
{
horizontal = 1;
place = (0, 21);
target = up;
type = BottomGhost;
},
{
horizontal = 1;
place = (697, -20);
target = down;
type = TopGhost;
},
{
place = (21, 944);
place = (21, 944);
type = Stem;
},
{
horizontal = 1;
place = (0, 163);
place = (0, 163);
type = Stem;
}
);
layerId = m01;
shapes = (
{
closed = 1;
nodes = (
(339,747,l),
(421,747,l),
(493,828,l),
(566,747,l),
(647,747,l),
(493,916,l)
);
},
{
closed = 1;
nodes = (
(228,0,l),
(333,0,l),
(493,488,l),
(653,0,l),
(758,0,l),
(965,697,l),
(853,697,l),
(700,163,l),
(539,658,l),
(447,658,l),
(287,163,l),
(133,697,l),
(21,697,l)
);
}
);
width = 986;
}
);
note = Wcircumflex;
unicode = 372;
},
{
glyphname = Wdieresis;
kernLeft = W;
kernRight = W;
layers = (
{
hints = (
{
horizontal = 1;
place = (0, 21);
target = up;
type = BottomGhost;
},
{
horizontal = 1;
place = (697, -20);
target = down;
type = TopGhost;
},
{
horizontal = 1;
place = (793, 108);
place = (793, 108);
type = Stem;
},
{
place = (352, 94);
place = (352, 94);
type = Stem;
},
{
place = (542, 94);
place = (542, 94);
type = Stem;
},
{
horizontal = 1;
place = (0, 163);
place = (0, 163);
type = Stem;
}
);
layerId = m01;
shapes = (
{
closed = 1;
nodes = (
(352,793,l),
(446,793,l),
(446,901,l),
(352,901,l)
);
},
{
closed = 1;
nodes = (
(542,793,l),
(636,793,l),
(636,901,l),
(542,901,l)
);
},
{
closed = 1;
nodes = (
(228,0,l),
(333,0,l),
(493,488,l),
(653,0,l),
(758,0,l),
(965,697,l),
(853,697,l),
(700,163,l),
(539,658,l),
(447,658,l),
(287,163,l),
(133,697,l),
(21,697,l)
);
}
);
width = 986;
}
);
note = Wdieresis;
unicode = 7812;
},
{
glyphname = Wgrave;
kernLeft = W;
kernRight = W;
layers = (
{
hints = (
{
horizontal = 1;
place = (0, 21);
target = up;
type = BottomGhost;
},
{
horizontal = 1;
place = (697, -20);
target = down;
type = TopGhost;
},
{
horizontal = 1;
place = (759, 142);
place = (759, 142);
type = Stem;
},
{
place = (21, 944);
place = (21, 944);
type = Stem;
},
{
horizontal = 1;
place = (0, 163);
place = (0, 163);
type = Stem;
}
);
layerId = m01;
shapes = (
{
closed = 1;
nodes = (
(454,759,l),
(532,759,l),
(428,901,l),
(318,901,l)
);
},
{
closed = 1;
nodes = (
(228,0,l),
(333,0,l),
(493,488,l),
(653,0,l),
(758,0,l),
(965,697,l),
(853,697,l),
(700,163,l),
(539,658,l),
(447,658,l),
(287,163,l),
(133,697,l),
(21,697,l)
);
}
);
width = 986;
}
);
note = Wgrave;
unicode = 7808;
},
{
glyphname = X;
kernLeft = X;
kernRight = X;
lastChange = "2022-12-26 08:42:40 +0000";
layers = (
{
hints = (
{
horizontal = 1;
place = (0, 21);
target = up;
type = BottomGhost;
},
{
horizontal = 1;
place = (697, -20);
target = down;
type = TopGhost;
},
{
place = (21, 620);
place = (21, 620);
type = Stem;
}
);
layerId = m01;
shapes = (
{
closed = 1;
nodes = (
(504,12,ls),
(510,4,o),
(517,0,o),
(527,0,cs),
(641,0,l),
(404,349,l),
(638,697,l),
(510,697,l),
(330,424,l),
(159,684,ls),
(153,692,o),
(146,697,o),
(136,697,cs),
(23,697,l),
(257,349,l),
(21,0,l),
(149,0,l),
(329,272,l)
);
}
);
width = 661;
}
);
note = X;
unicode = 88;
},
{
glyphname = Y;
kernLeft = Y;
kernRight = Y;
layers = (
{
hints = (
{
horizontal = 1;
place = (0, 21);
target = up;
type = BottomGhost;
},
{
horizontal = 1;
place = (697, -20);
target = down;
type = TopGhost;
},
{
place = (273, 108);
place = (273, 108);
type = Stem;
}
);
layerId = m01;
shapes = (
{
closed = 1;
nodes = (
(273,0,l),
(381,0,l),
(381,270,l),
(645,697,l),
(518,697,l),
(325,373,l),
(134,697,l),
(8,697,l),
(273,270,l)
);
}
);
width = 653;
}
);
note = Y;
unicode = 89;
},
{
glyphname = Yacute;
kernLeft = Y;
kernRight = Y;
layers = (
{
hints = (
{
horizontal = 1;
place = (0, 21);
target = up;
type = BottomGhost;
},
{
horizontal = 1;
place = (697, -20);
target = down;
type = TopGhost;
},
{
horizontal = 1;
place = (759, 142);
place = (759, 142);
type = Stem;
},
{
place = (273, 108);
place = (273, 108);
type = Stem;
}
);
layerId = m01;
shapes = (
{
closed = 1;
nodes = (
(288,759,l),
(365,759,l),
(509,901,l),
(398,901,l)
);
},
{
closed = 1;
nodes = (
(273,0,l),
(381,0,l),
(381,270,l),
(645,697,l),
(518,697,l),
(325,373,l),
(134,697,l),
(8,697,l),
(273,270,l)
);
}
);
width = 653;
}
);
note = Yacute;
unicode = 221;
},
{
glyphname = Ycircumflex;
kernLeft = Y;
kernRight = Y;
layers = (
{
hints = (
{
horizontal = 1;
place = (0, 21);
target = up;
type = BottomGhost;
},
{
horizontal = 1;
place = (697, -20);
target = down;
type = TopGhost;
},
{
place = (273, 108);
place = (273, 108);
type = Stem;
}
);
layerId = m01;
shapes = (
{
closed = 1;
nodes = (
(173,747,l),
(255,747,l),
(327,828,l),
(400,747,l),
(481,747,l),
(327,916,l)
);
},
{
closed = 1;
nodes = (
(273,0,l),
(381,0,l),
(381,270,l),
(645,697,l),
(518,697,l),
(325,373,l),
(134,697,l),
(8,697,l),
(273,270,l)
);
}
);
width = 653;
}
);
note = Ycircumflex;
unicode = 374;
},
{
glyphname = Ydieresis;
kernLeft = Y;
kernRight = Y;
layers = (
{
hints = (
{
horizontal = 1;
place = (0, 21);
target = up;
type = BottomGhost;
},
{
horizontal = 1;
place = (697, -20);
target = down;
type = TopGhost;
},
{
horizontal = 1;
place = (793, 108);
place = (793, 108);
type = Stem;
},
{
place = (185, 94);
place = (185, 94);
type = Stem;
},
{
place = (375, 94);
place = (375, 94);
type = Stem;
},
{
place = (273, 108);
place = (273, 108);
type = Stem;
}
);
layerId = m01;
shapes = (
{
closed = 1;
nodes = (
(185,793,l),
(279,793,l),
(279,901,l),
(185,901,l)
);
},
{
closed = 1;
nodes = (
(375,793,l),
(469,793,l),
(469,901,l),
(375,901,l)
);
},
{
closed = 1;
nodes = (
(273,0,l),
(381,0,l),
(381,270,l),
(645,697,l),
(518,697,l),
(325,373,l),
(134,697,l),
(8,697,l),
(273,270,l)
);
}
);
width = 653;
}
);
note = Ydieresis;
unicode = 376;
},
{
glyphname = uni1EF4;
kernLeft = Y;
kernRight = Y;
layers = (
{
hints = (
{
horizontal = 1;
place = (-173, 108);
place = (-173, 108);
type = Stem;
},
{
horizontal = 1;
place = (0, 21);
target = up;
type = BottomGhost;
},
{
horizontal = 1;
place = (697, -20);
target = down;
type = TopGhost;
},
{
place = (273, 108);
place = (273, 108);
type = Stem;
},
{
place = (272, 110);
place = (272, 110);
type = Stem;
}
);
layerId = m01;
shapes = (
{
closed = 1;
nodes = (
(273,0,l),
(381,0,l),
(381,270,l),
(645,697,l),
(518,697,l),
(325,373,l),
(134,697,l),
(8,697,l),
(273,270,l)
);
},
{
closed = 1;
nodes = (
(272,-173,l),
(382,-173,l),
(382,-65,l),
(272,-65,l)
);
}
);
width = 653;
}
);
note = uni1EF4;
unicode = 7924;
},
{
glyphname = Ygrave;
kernLeft = Y;
kernRight = Y;
layers = (
{
hints = (
{
horizontal = 1;
place = (0, 21);
target = up;
type = BottomGhost;
},
{
horizontal = 1;
place = (697, -20);
target = down;
type = TopGhost;
},
{
horizontal = 1;
place = (759, 142);
place = (759, 142);
type = Stem;
},
{
place = (273, 108);
place = (273, 108);
type = Stem;
}
);
layerId = m01;
shapes = (
{
closed = 1;
nodes = (
(288,759,l),
(366,759,l),
(262,901,l),
(152,901,l)
);
},
{
closed = 1;
nodes = (
(273,0,l),
(381,0,l),
(381,270,l),
(645,697,l),
(518,697,l),
(325,373,l),
(134,697,l),
(8,697,l),
(273,270,l)
);
}
);
width = 653;
}
);
note = Ygrave;
unicode = 7922;
},
{
glyphname = uni1EF6;
kernLeft = Y;
kernRight = Y;
layers = (
{
hints = (
{
horizontal = 1;
place = (0, 21);
target = up;
type = BottomGhost;
},
{
horizontal = 1;
place = (697, -20);
target = down;
type = TopGhost;
},
{
horizontal = 1;
place = (865, 57);
place = (865, 57);
type = Stem;
},
{
place = (273, 108);
place = (273, 108);
type = Stem;
},
{
place = (372, 66);
place = (372, 66);
type = Stem;
}
);
layerId = m01;
shapes = (
{
closed = 1;
nodes = (
(318,736,l),
(368,745,o),
(438,756,o),
(438,825,cs),
(438,888,o),
(378,922,o),
(292,922,cs),
(277,922,l),
(277,865,l),
(292,865,ls),
(332,865,o),
(372,860,o),
(372,824,cs),
(372,792,o),
(337,786,o),
(305,782,c)
);
},
{
closed = 1;
nodes = (
(273,0,l),
(381,0,l),
(381,270,l),
(645,697,l),
(518,697,l),
(325,373,l),
(134,697,l),
(8,697,l),
(273,270,l)
);
}
);
width = 653;
}
);
note = uni1EF6;
unicode = 7926;
},
{
glyphname = uni1EF8;
kernLeft = Y;
kernRight = Y;
layers = (
{
hints = (
{
horizontal = 1;
place = (0, 21);
target = up;
type = BottomGhost;
},
{
horizontal = 1;
place = (697, -20);
target = down;
type = TopGhost;
},
{
horizontal = 1;
place = (765, 64);
place = (765, 64);
type = Stem;
},
{
horizontal = 1;
place = (840, 64);
place = (840, 64);
type = Stem;
},
{
place = (273, 108);
place = (273, 108);
type = Stem;
},
{
place = (427, 63);
place = (427, 63);
type = Stem;
},
{
place = (162, 60);
place = (162, 60);
type = Stem;
}
);
layerId = m01;
shapes = (
{
closed = 1;
nodes = (
(451,765,o),
(490,814,o),
(490,901,c),
(427,901,l),
(427,855,o),
(412,829,o),
(392,829,cs),
(351,829,o),
(335,904,o),
(264,904,cs),
(201,904,o),
(162,855,o),
(162,770,c),
(222,770,l),
(222,815,o),
(236,840,o),
(260,840,cs),
(302,840,o),
(312,765,o),
(391,765,cs)
);
},
{
closed = 1;
nodes = (
(273,0,l),
(381,0,l),
(381,270,l),
(645,697,l),
(518,697,l),
(325,373,l),
(134,697,l),
(8,697,l),
(273,270,l)
);
}
);
width = 653;
}
);
note = uni1EF8;
unicode = 7928;
},
{
glyphname = Z;
kernLeft = Z;
kernRight = Z;
lastChange = "2022-12-26 08:43:03 +0000";
layers = (
{
hints = (
{
horizontal = 1;
place = (0, 99);
place = (0, 99);
type = Stem;
},
{
horizontal = 1;
place = (598, 99);
place = (598, 99);
type = Stem;
},
{
place = (33, 558);
place = (33, 558);
type = Stem;
}
);
layerId = m01;
shapes = (
{
closed = 1;
nodes = (
(591,84,ls),
(591,94,o),
(586,99,o),
(576,99,cs),
(179,99,l),
(591,618,l),
(591,697,l),
(56,697,l),
(56,598,l),
(449,598,l),
(33,76,l),
(33,0,l),
(591,0,l)
);
}
);
width = 632;
}
);
note = Z;
unicode = 90;
},
{
glyphname = Zacute;
kernLeft = Z;
kernRight = Z;
layers = (
{
hints = (
{
horizontal = 1;
place = (0, 99);
place = (0, 99);
type = Stem;
},
{
horizontal = 1;
place = (598, 99);
place = (598, 99);
type = Stem;
},
{
horizontal = 1;
place = (759, 142);
place = (759, 142);
type = Stem;
},
{
place = (33, 558);
place = (33, 558);
type = Stem;
}
);
layerId = m01;
shapes = (
{
closed = 1;
nodes = (
(499,901,l),
(388,901,l),
(278,759,l),
(355,759,l)
);
},
{
closed = 1;
nodes = (
(591,697,l),
(56,697,l),
(56,598,l),
(449,598,l),
(33,76,l),
(33,0,l),
(591,0,l),
(591,99,l),
(179,99,l),
(591,618,l)
);
}
);
width = 632;
}
);
note = Zacute;
unicode = 377;
},
{
glyphname = Zcaron;
kernLeft = Z;
kernRight = Z;
layers = (
{
hints = (
{
horizontal = 1;
place = (0, 99);
place = (0, 99);
type = Stem;
},
{
horizontal = 1;
place = (598, 99);
place = (598, 99);
type = Stem;
},
{
place = (33, 558);
place = (33, 558);
type = Stem;
}
);
layerId = m01;
shapes = (
{
closed = 1;
nodes = (
(470,901,l),
(389,901,l),
(316,825,l),
(243,901,l),
(162,901,l),
(316,741,l)
);
},
{
closed = 1;
nodes = (
(591,697,l),
(56,697,l),
(56,598,l),
(449,598,l),
(33,76,l),
(33,0,l),
(591,0,l),
(591,99,l),
(179,99,l),
(591,618,l)
);
}
);
width = 632;
}
);
note = Zcaron;
unicode = 381;
},
{
glyphname = Zdotaccent;
kernLeft = Z;
kernRight = Z;
layers = (
{
hints = (
{
horizontal = 1;
place = (0, 99);
place = (0, 99);
type = Stem;
},
{
horizontal = 1;
place = (598, 99);
place = (598, 99);
type = Stem;
},
{
horizontal = 1;
place = (793, 108);
place = (793, 108);
type = Stem;
},
{
place = (261, 110);
place = (261, 110);
type = Stem;
}
);
layerId = m01;
shapes = (
{
closed = 1;
nodes = (
(371,901,l),
(261,901,l),
(261,793,l),
(371,793,l)
);
},
{
closed = 1;
nodes = (
(591,697,l),
(56,697,l),
(56,598,l),
(449,598,l),
(33,76,l),
(33,0,l),
(591,0,l),
(591,99,l),
(179,99,l),
(591,618,l)
);
}
);
width = 632;
}
);
note = Zdotaccent;
unicode = 379;
},
{
glyphname = uni1EB6.ss03;
kernLeft = A;
kernRight = A;
layers = (
{
hints = (
{
horizontal = 1;
place = (0, 21);
target = up;
type = BottomGhost;
},
{
horizontal = 1;
place = (158, 97);
place = (158, 97);
type = Stem;
},
{
horizontal = 1;
place = (697, -20);
target = down;
type = TopGhost;
},
{
horizontal = 1;
place = (769, 60);
place = (769, 60);
type = Stem;
},
{
place = (175, 73);
place = (175, 73);
type = Stem;
},
{
place = (410, 73);
place = (410, 73);
type = Stem;
},
{
horizontal = 1;
place = (-184, 136);
place = (-184, 136);
type = Stem;
},
{
place = (261, 135);
place = (261, 135);
type = Stem;
}
);
layerId = m01;
shapes = (
{
closed = 1;
nodes = (
(430,769,o),
(483,812,o),
(483,901,c),
(410,901,l),
(410,855,o),
(377,829,o),
(329,829,cs),
(283,829,o),
(248,853,o),
(248,901,c),
(175,901,l),
(175,815,o),
(223,769,o),
(329,769,cs)
);
},
{
closed = 1;
nodes = (
(642,0,l),
(370,697,l),
(287,697,l),
(15,0,l),
(131,0,l),
(189,158,l),
(468,158,l),
(525,0,l)
);
},
{
closed = 1;
nodes = (
(224,255,l),
(329,541,l),
(433,255,l)
);
},
{
closed = 1;
nodes = (
(290,-48,o),
(261,-77,o),
(261,-115,cs),
(261,-154,o),
(291,-184,o),
(328,-184,cs),
(367,-184,o),
(396,-154,o),
(396,-115,cs),
(396,-77,o),
(367,-48,o),
(328,-48,cs)
);
}
);
width = 657;
}
);
note = uni1EB6.ss03;
},
{
glyphname = uni1EAC.ss03;
kernLeft = A;
kernRight = A;
layers = (
{
hints = (
{
horizontal = 1;
place = (-184, 136);
place = (-184, 136);
type = Stem;
},
{
horizontal = 1;
place = (0, 21);
target = up;
type = BottomGhost;
},
{
horizontal = 1;
place = (158, 97);
place = (158, 97);
type = Stem;
},
{
horizontal = 1;
place = (697, -20);
target = down;
type = TopGhost;
},
{
place = (261, 135);
place = (261, 135);
type = Stem;
}
);
layerId = m01;
shapes = (
{
closed = 1;
nodes = (
(329,828,l),
(402,747,l),
(483,747,l),
(329,916,l),
(175,747,l),
(257,747,l)
);
},
{
closed = 1;
nodes = (
(642,0,l),
(370,697,l),
(287,697,l),
(15,0,l),
(131,0,l),
(189,158,l),
(468,158,l),
(525,0,l)
);
},
{
closed = 1;
nodes = (
(224,255,l),
(329,541,l),
(433,255,l)
);
},
{
closed = 1;
nodes = (
(290,-48,o),
(261,-77,o),
(261,-115,cs),
(261,-154,o),
(291,-184,o),
(328,-184,cs),
(367,-184,o),
(396,-154,o),
(396,-115,cs),
(396,-77,o),
(367,-48,o),
(328,-48,cs)
);
}
);
width = 657;
}
);
note = uni1EAC.ss03;
},
{
glyphname = Adieresis.ss03;
kernLeft = A;
kernRight = A;
layers = (
{
hints = (
{
horizontal = 1;
place = (0, 21);
target = up;
type = BottomGhost;
},
{
horizontal = 1;
place = (158, 97);
place = (158, 97);
type = Stem;
},
{
horizontal = 1;
place = (697, -20);
target = down;
type = TopGhost;
},
{
horizontal = 1;
place = (774, 136);
place = (774, 136);
type = Stem;
},
{
place = (167, 135);
place = (167, 135);
type = Stem;
},
{
place = (355, 136);
place = (355, 136);
type = Stem;
}
);
layerId = m01;
shapes = (
{
closed = 1;
nodes = (
(273,774,o),
(302,804,o),
(302,842,cs),
(302,881,o),
(273,910,o),
(234,910,cs),
(196,910,o),
(167,881,o),
(167,842,cs),
(167,804,o),
(197,774,o),
(234,774,cs)
);
},
{
closed = 1;
nodes = (
(461,774,o),
(491,804,o),
(491,842,cs),
(491,881,o),
(461,910,o),
(423,910,cs),
(385,910,o),
(355,881,o),
(355,842,cs),
(355,804,o),
(386,774,o),
(423,774,cs)
);
},
{
closed = 1;
nodes = (
(525,0,l),
(642,0,l),
(370,697,l),
(287,697,l),
(15,0,l),
(131,0,l),
(189,158,l),
(468,158,l)
);
},
{
closed = 1;
nodes = (
(224,255,l),
(329,541,l),
(433,255,l)
);
}
);
width = 657;
}
);
note = Adieresis.ss03;
},
{
glyphname = uni1EA0.ss03;
kernLeft = A;
kernRight = A;
layers = (
{
hints = (
{
horizontal = 1;
place = (-184, 136);
place = (-184, 136);
type = Stem;
},
{
horizontal = 1;
place = (0, 21);
target = up;
type = BottomGhost;
},
{
horizontal = 1;
place = (158, 97);
place = (158, 97);
type = Stem;
},
{
horizontal = 1;
place = (697, -20);
target = down;
type = TopGhost;
},
{
place = (261, 135);
place = (261, 135);
type = Stem;
}
);
layerId = m01;
shapes = (
{
closed = 1;
nodes = (
(642,0,l),
(370,697,l),
(287,697,l),
(15,0,l),
(131,0,l),
(189,158,l),
(468,158,l),
(525,0,l)
);
},
{
closed = 1;
nodes = (
(224,255,l),
(329,541,l),
(433,255,l)
);
},
{
closed = 1;
nodes = (
(290,-48,o),
(261,-77,o),
(261,-115,cs),
(261,-154,o),
(291,-184,o),
(328,-184,cs),
(367,-184,o),
(396,-154,o),
(396,-115,cs),
(396,-77,o),
(367,-48,o),
(328,-48,cs)
);
}
);
width = 657;
}
);
note = uni1EA0.ss03;
},
{
glyphname = Cdotaccent.ss03;
kernLeft = C;
kernRight = C;
layers = (
{
hints = (
{
horizontal = 1;
place = (-13, 102);
place = (-13, 102);
type = Stem;
},
{
horizontal = 1;
place = (609, 102);
place = (609, 102);
type = Stem;
},
{
horizontal = 1;
place = (774, 136);
place = (774, 136);
type = Stem;
},
{
place = (49, 107);
place = (49, 107);
type = Stem;
},
{
place = (319, 135);
place = (319, 135);
type = Stem;
}
);
layerId = m01;
shapes = (
{
closed = 1;
nodes = (
(425,774,o),
(454,804,o),
(454,842,cs),
(454,881,o),
(425,910,o),
(386,910,cs),
(348,910,o),
(319,881,o),
(319,842,cs),
(319,804,o),
(349,774,o),
(386,774,cs)
);
},
{
closed = 1;
nodes = (
(526,-13,o),
(635,58,o),
(686,190,c),
(585,228,l),
(552,136,o),
(481,89,o),
(380,89,cs),
(239,89,o),
(156,183,o),
(156,350,cs),
(156,516,o),
(239,609,o),
(382,609,cs),
(482,609,o),
(552,564,o),
(585,473,c),
(684,511,l),
(633,642,o),
(527,711,o),
(382,711,cs),
(178,711,o),
(49,573,o),
(49,349,cs),
(49,126,o),
(177,-13,o),
(380,-13,cs)
);
}
);
width = 717;
}
);
note = Cdotaccent.ss03;
},
{
glyphname = uni1EC6.ss03;
layers = (
{
hints = (
{
horizontal = 1;
place = (-184, 136);
place = (-184, 136);
type = Stem;
},
{
horizontal = 1;
place = (0, 99);
place = (0, 99);
type = Stem;
},
{
horizontal = 1;
place = (308, 99);
place = (308, 99);
type = Stem;
},
{
horizontal = 1;
place = (598, 99);
place = (598, 99);
type = Stem;
},
{
place = (97, 107);
place = (97, 107);
type = Stem;
},
{
place = (260, 135);
place = (260, 135);
type = Stem;
}
);
layerId = m01;
shapes = (
{
closed = 1;
nodes = (
(173,747,l),
(255,747,l),
(327,828,l),
(400,747,l),
(481,747,l),
(327,916,l)
);
},
{
closed = 1;
nodes = (
(97,0,l),
(558,0,l),
(558,99,l),
(204,99,l),
(204,308,l),
(529,308,l),
(529,407,l),
(204,407,l),
(204,598,l),
(558,598,l),
(558,697,l),
(97,697,l)
);
},
{
closed = 1;
nodes = (
(366,-184,o),
(395,-154,o),
(395,-115,cs),
(395,-77,o),
(366,-48,o),
(327,-48,cs),
(289,-48,o),
(260,-77,o),
(260,-115,cs),
(260,-154,o),
(290,-184,o),
(327,-184,cs)
);
}
);
width = 617;
}
);
note = uni1EC6.ss03;
},
{
glyphname = Edieresis.ss03;
layers = (
{
hints = (
{
horizontal = 1;
place = (0, 99);
place = (0, 99);
type = Stem;
},
{
horizontal = 1;
place = (308, 99);
place = (308, 99);
type = Stem;
},
{
horizontal = 1;
place = (598, 99);
place = (598, 99);
type = Stem;
},
{
horizontal = 1;
place = (774, 136);
place = (774, 136);
type = Stem;
},
{
place = (166, 135);
place = (166, 135);
type = Stem;
},
{
place = (354, 136);
place = (354, 136);
type = Stem;
},
{
place = (97, 107);
place = (97, 107);
type = Stem;
}
);
layerId = m01;
shapes = (
{
closed = 1;
nodes = (
(272,774,o),
(301,804,o),
(301,842,cs),
(301,881,o),
(272,910,o),
(233,910,cs),
(195,910,o),
(166,881,o),
(166,842,cs),
(166,804,o),
(196,774,o),
(233,774,cs)
);
},
{
closed = 1;
nodes = (
(460,774,o),
(490,804,o),
(490,842,cs),
(490,881,o),
(460,910,o),
(422,910,cs),
(384,910,o),
(354,881,o),
(354,842,cs),
(354,804,o),
(385,774,o),
(422,774,cs)
);
},
{
closed = 1;
nodes = (
(97,0,l),
(558,0,l),
(558,99,l),
(204,99,l),
(204,308,l),
(529,308,l),
(529,407,l),
(204,407,l),
(204,598,l),
(558,598,l),
(558,697,l),
(97,697,l)
);
}
);
width = 617;
}
);
note = Edieresis.ss03;
},
{
glyphname = Edotaccent.ss03;
layers = (
{
hints = (
{
horizontal = 1;
place = (0, 99);
place = (0, 99);
type = Stem;
},
{
horizontal = 1;
place = (308, 99);
place = (308, 99);
type = Stem;
},
{
horizontal = 1;
place = (598, 99);
place = (598, 99);
type = Stem;
},
{
horizontal = 1;
place = (774, 136);
place = (774, 136);
type = Stem;
},
{
place = (97, 107);
place = (97, 107);
type = Stem;
},
{
place = (260, 135);
place = (260, 135);
type = Stem;
}
);
layerId = m01;
shapes = (
{
closed = 1;
nodes = (
(366,774,o),
(395,804,o),
(395,842,cs),
(395,881,o),
(366,910,o),
(327,910,cs),
(289,910,o),
(260,881,o),
(260,842,cs),
(260,804,o),
(290,774,o),
(327,774,cs)
);
},
{
closed = 1;
nodes = (
(97,0,l),
(558,0,l),
(558,99,l),
(204,99,l),
(204,308,l),
(529,308,l),
(529,407,l),
(204,407,l),
(204,598,l),
(558,598,l),
(558,697,l),
(97,697,l)
);
}
);
width = 617;
}
);
note = Edotaccent.ss03;
},
{
glyphname = uni1EB8.ss03;
layers = (
{
hints = (
{
horizontal = 1;
place = (-184, 136);
place = (-184, 136);
type = Stem;
},
{
horizontal = 1;
place = (0, 99);
place = (0, 99);
type = Stem;
},
{
horizontal = 1;
place = (308, 99);
place = (308, 99);
type = Stem;
},
{
horizontal = 1;
place = (598, 99);
place = (598, 99);
type = Stem;
},
{
place = (97, 107);
place = (97, 107);
type = Stem;
},
{
place = (260, 135);
place = (260, 135);
type = Stem;
}
);
layerId = m01;
shapes = (
{
closed = 1;
nodes = (
(97,0,l),
(558,0,l),
(558,99,l),
(204,99,l),
(204,308,l),
(529,308,l),
(529,407,l),
(204,407,l),
(204,598,l),
(558,598,l),
(558,697,l),
(97,697,l)
);
},
{
closed = 1;
nodes = (
(366,-184,o),
(395,-154,o),
(395,-115,cs),
(395,-77,o),
(366,-48,o),
(327,-48,cs),
(289,-48,o),
(260,-77,o),
(260,-115,cs),
(260,-154,o),
(290,-184,o),
(327,-184,cs)
);
}
);
width = 617;
}
);
note = uni1EB8.ss03;
},
{
glyphname = Gdotaccent.ss03;
kernRight = G;
layers = (
{
hints = (
{
horizontal = 1;
place = (-13, 102);
place = (-13, 102);
type = Stem;
},
{
horizontal = 1;
place = (275, 96);
place = (275, 96);
type = Stem;
},
{
horizontal = 1;
place = (609, 102);
place = (609, 102);
type = Stem;
},
{
horizontal = 1;
place = (774, 136);
place = (774, 136);
type = Stem;
},
{
place = (48, 107);
place = (48, 107);
type = Stem;
},
{
place = (312, 135);
place = (312, 135);
type = Stem;
},
{
place = (582, 105);
place = (582, 105);
type = Stem;
},
{
horizontal = 1;
place = (0, 21);
target = up;
type = BottomGhost;
}
);
layerId = m01;
shapes = (
{
closed = 1;
nodes = (
(418,774,o),
(447,804,o),
(447,842,cs),
(447,881,o),
(418,910,o),
(379,910,cs),
(341,910,o),
(312,881,o),
(312,842,cs),
(312,804,o),
(342,774,o),
(379,774,cs)
);
},
{
closed = 1;
nodes = (
(422,371,l),
(422,275,l),
(582,275,l),
(582,262,ls),
(582,146,o),
(503,89,o),
(388,89,cs),
(236,89,o),
(155,190,o),
(155,352,cs),
(155,511,o),
(235,609,o),
(381,609,cs),
(482,609,o),
(551,562,o),
(584,473,c),
(682,511,l),
(633,639,o),
(526,711,o),
(382,711,cs),
(171,711,o),
(48,557,o),
(48,350,cs),
(48,133,o),
(184,-13,o),
(381,-13,cs),
(477,-13,o),
(555,21,o),
(595,82,c),
(609,0,l),
(687,0,l),
(687,371,l)
);
}
);
width = 759;
}
);
note = Gdotaccent.ss03;
},
{
glyphname = Idieresis.ss03;
layers = (
{
hints = (
{
horizontal = 1;
place = (0, 21);
target = up;
type = BottomGhost;
},
{
horizontal = 1;
place = (697, -20);
target = down;
type = TopGhost;
},
{
horizontal = 1;
place = (774, 136);
place = (774, 136);
type = Stem;
},
{
place = (-11, 135);
place = (-11, 135);
type = Stem;
},
{
place = (177, 136);
place = (177, 136);
type = Stem;
},
{
place = (97, 107);
place = (97, 107);
type = Stem;
}
);
layerId = m01;
shapes = (
{
closed = 1;
nodes = (
(95,774,o),
(124,804,o),
(124,842,cs),
(124,881,o),
(95,910,o),
(56,910,cs),
(18,910,o),
(-11,881,o),
(-11,842,cs),
(-11,804,o),
(19,774,o),
(56,774,cs)
);
},
{
closed = 1;
nodes = (
(283,774,o),
(313,804,o),
(313,842,cs),
(313,881,o),
(283,910,o),
(245,910,cs),
(207,910,o),
(177,881,o),
(177,842,cs),
(177,804,o),
(208,774,o),
(245,774,cs)
);
},
{
closed = 1;
nodes = (
(97,0,l),
(204,0,l),
(204,697,l),
(97,697,l)
);
}
);
width = 300;
}
);
note = Idieresis.ss03;
},
{
glyphname = uni1ECA.ss03;
layers = (
{
hints = (
{
horizontal = 1;
place = (-184, 136);
place = (-184, 136);
type = Stem;
},
{
horizontal = 1;
place = (0, 21);
target = up;
type = BottomGhost;
},
{
horizontal = 1;
place = (697, -20);
target = down;
type = TopGhost;
},
{
place = (97, 107);
place = (97, 107);
type = Stem;
}
);
layerId = m01;
shapes = (
{
closed = 1;
nodes = (
(97,0,l),
(204,0,l),
(204,697,l),
(97,697,l)
);
},
{
closed = 1;
nodes = (
(189,-184,o),
(218,-154,o),
(218,-115,cs),
(218,-77,o),
(189,-48,o),
(150,-48,cs),
(112,-48,o),
(83,-77,o),
(83,-115,cs),
(83,-154,o),
(113,-184,o),
(150,-184,cs)
);
}
);
width = 300;
}
);
note = uni1ECA.ss03;
},
{
glyphname = uni1ED8.ss03;
layers = (
{
hints = (
{
horizontal = 1;
place = (-184, 136);
place = (-184, 136);
type = Stem;
},
{
horizontal = 1;
place = (-13, 102);
place = (-13, 102);
type = Stem;
},
{
horizontal = 1;
place = (608, 102);
place = (608, 102);
type = Stem;
},
{
place = (48, 107);
place = (48, 107);
type = Stem;
},
{
place = (309, 135);
place = (309, 135);
type = Stem;
},
{
place = (598, 107);
place = (598, 107);
type = Stem;
}
);
layerId = m01;
shapes = (
{
closed = 1;
nodes = (
(223,747,l),
(305,747,l),
(377,828,l),
(450,747,l),
(531,747,l),
(377,916,l)
);
},
{
closed = 1;
nodes = (
(572,-13,o),
(705,131,o),
(705,348,cs),
(705,566,o),
(573,710,o),
(377,710,cs),
(181,710,o),
(48,566,o),
(48,348,cs),
(48,131,o),
(181,-13,o),
(377,-13,cs)
);
},
{
closed = 1;
nodes = (
(242,89,o),
(155,188,o),
(155,348,cs),
(155,509,o),
(242,608,o),
(377,608,cs),
(512,608,o),
(598,508,o),
(598,348,cs),
(598,189,o),
(512,89,o),
(377,89,cs)
);
},
{
closed = 1;
nodes = (
(415,-184,o),
(444,-154,o),
(444,-115,cs),
(444,-77,o),
(415,-48,o),
(376,-48,cs),
(338,-48,o),
(309,-77,o),
(309,-115,cs),
(309,-154,o),
(339,-184,o),
(376,-184,cs)
);
}
);
width = 753;
}
);
note = uni1ED8.ss03;
},
{
glyphname = Odieresis.ss03;
layers = (
{
hints = (
{
horizontal = 1;
place = (-13, 102);
place = (-13, 102);
type = Stem;
},
{
horizontal = 1;
place = (608, 102);
place = (608, 102);
type = Stem;
},
{
horizontal = 1;
place = (774, 136);
place = (774, 136);
type = Stem;
},
{
place = (48, 107);
place = (48, 107);
type = Stem;
},
{
place = (215, 135);
place = (215, 135);
type = Stem;
},
{
place = (403, 136);
place = (403, 136);
type = Stem;
},
{
place = (598, 107);
place = (598, 107);
type = Stem;
}
);
layerId = m01;
shapes = (
{
closed = 1;
nodes = (
(321,774,o),
(350,804,o),
(350,842,cs),
(350,881,o),
(321,910,o),
(282,910,cs),
(244,910,o),
(215,881,o),
(215,842,cs),
(215,804,o),
(245,774,o),
(282,774,cs)
);
},
{
closed = 1;
nodes = (
(509,774,o),
(539,804,o),
(539,842,cs),
(539,881,o),
(509,910,o),
(471,910,cs),
(433,910,o),
(403,881,o),
(403,842,cs),
(403,804,o),
(434,774,o),
(471,774,cs)
);
},
{
closed = 1;
nodes = (
(572,-13,o),
(705,131,o),
(705,348,cs),
(705,566,o),
(573,710,o),
(377,710,cs),
(181,710,o),
(48,566,o),
(48,348,cs),
(48,131,o),
(181,-13,o),
(377,-13,cs)
);
},
{
closed = 1;
nodes = (
(242,89,o),
(155,188,o),
(155,348,cs),
(155,509,o),
(242,608,o),
(377,608,cs),
(512,608,o),
(598,508,o),
(598,348,cs),
(598,189,o),
(512,89,o),
(377,89,cs)
);
}
);
width = 753;
}
);
note = Odieresis.ss03;
},
{
glyphname = uni1ECC.ss03;
layers = (
{
hints = (
{
horizontal = 1;
place = (-184, 136);
place = (-184, 136);
type = Stem;
},
{
horizontal = 1;
place = (-13, 102);
place = (-13, 102);
type = Stem;
},
{
horizontal = 1;
place = (608, 102);
place = (608, 102);
type = Stem;
},
{
place = (48, 107);
place = (48, 107);
type = Stem;
},
{
place = (309, 135);
place = (309, 135);
type = Stem;
},
{
place = (598, 107);
place = (598, 107);
type = Stem;
}
);
layerId = m01;
shapes = (
{
closed = 1;
nodes = (
(572,-13,o),
(705,131,o),
(705,348,cs),
(705,566,o),
(573,710,o),
(377,710,cs),
(181,710,o),
(48,566,o),
(48,348,cs),
(48,131,o),
(181,-13,o),
(377,-13,cs)
);
},
{
closed = 1;
nodes = (
(242,89,o),
(155,188,o),
(155,348,cs),
(155,509,o),
(242,608,o),
(377,608,cs),
(512,608,o),
(598,508,o),
(598,348,cs),
(598,189,o),
(512,89,o),
(377,89,cs)
);
},
{
closed = 1;
nodes = (
(415,-184,o),
(444,-154,o),
(444,-115,cs),
(444,-77,o),
(415,-48,o),
(376,-48,cs),
(338,-48,o),
(309,-77,o),
(309,-115,cs),
(309,-154,o),
(339,-184,o),
(376,-184,cs)
);
}
);
width = 753;
}
);
note = uni1ECC.ss03;
},
{
glyphname = uni1EE2.ss03;
layers = (
{
hints = (
{
horizontal = 1;
place = (-184, 136);
place = (-184, 136);
type = Stem;
},
{
horizontal = 1;
place = (-13, 102);
place = (-13, 102);
type = Stem;
},
{
horizontal = 1;
place = (503, -20);
target = down;
type = TopGhost;
},
{
horizontal = 1;
place = (697, -20);
target = down;
type = TopGhost;
},
{
place = (48, 107);
place = (48, 107);
type = Stem;
},
{
place = (690, 79);
place = (690, 79);
type = Stem;
},
{
horizontal = 1;
place = (608, 102);
place = (608, 102);
type = Stem;
},
{
place = (598, 107);
place = (598, 107);
type = Stem;
},
{
place = (309, 135);
place = (309, 135);
type = Stem;
}
);
layerId = m01;
shapes = (
{
closed = 1;
nodes = (
(690,697,l),
(690,647,ls),
(690,615,o),
(681,580,o),
(647,568,c),
(591,657,o),
(496,710,o),
(377,710,cs),
(181,710,o),
(48,566,o),
(48,348,cs),
(48,131,o),
(181,-13,o),
(377,-13,cs),
(572,-13,o),
(705,131,o),
(705,348,cs),
(705,405,o),
(696,457,o),
(679,503,c),
(742,525,o),
(769,584,o),
(769,655,cs),
(769,697,l)
);
},
{
closed = 1;
nodes = (
(242,89,o),
(155,188,o),
(155,348,cs),
(155,509,o),
(242,608,o),
(377,608,cs),
(512,608,o),
(598,508,o),
(598,348,cs),
(598,189,o),
(512,89,o),
(377,89,cs)
);
},
{
closed = 1;
nodes = (
(338,-48,o),
(309,-77,o),
(309,-115,cs),
(309,-154,o),
(339,-184,o),
(376,-184,cs),
(415,-184,o),
(444,-154,o),
(444,-115,cs),
(444,-77,o),
(415,-48,o),
(376,-48,cs)
);
}
);
width = 753;
}
);
note = uni1EE2.ss03;
},
{
glyphname = Udieresis.ss03;
kernLeft = U;
layers = (
{
hints = (
{
horizontal = 1;
place = (-13, 104);
place = (-13, 104);
type = Stem;
},
{
horizontal = 1;
place = (697, -20);
target = down;
type = TopGhost;
},
{
horizontal = 1;
place = (774, 136);
place = (774, 136);
type = Stem;
},
{
place = (182, 135);
place = (182, 135);
type = Stem;
},
{
place = (370, 136);
place = (370, 136);
type = Stem;
},
{
place = (82, 107);
place = (82, 107);
type = Stem;
},
{
place = (498, 107);
place = (498, 107);
type = Stem;
}
);
layerId = m01;
shapes = (
{
closed = 1;
nodes = (
(288,774,o),
(317,804,o),
(317,842,cs),
(317,881,o),
(288,910,o),
(249,910,cs),
(211,910,o),
(182,881,o),
(182,842,cs),
(182,804,o),
(212,774,o),
(249,774,cs)
);
},
{
closed = 1;
nodes = (
(476,774,o),
(506,804,o),
(506,842,cs),
(506,881,o),
(476,910,o),
(438,910,cs),
(400,910,o),
(370,881,o),
(370,842,cs),
(370,804,o),
(401,774,o),
(438,774,cs)
);
},
{
closed = 1;
nodes = (
(515,-13,o),
(605,78,o),
(605,257,cs),
(605,697,l),
(498,697,l),
(498,265,ls),
(498,141,o),
(452,91,o),
(343,91,cs),
(234,91,o),
(189,140,o),
(189,264,cs),
(189,697,l),
(82,697,l),
(82,252,ls),
(82,76,o),
(172,-13,o),
(343,-13,cs)
);
}
);
width = 687;
}
);
note = Udieresis.ss03;
},
{
glyphname = uni01D7.ss03;
kernLeft = U;
layers = (
{
hints = (
{
horizontal = 1;
place = (-13, 104);
place = (-13, 104);
type = Stem;
},
{
horizontal = 1;
place = (697, -20);
target = down;
type = TopGhost;
},
{
horizontal = 1;
place = (774, 136);
place = (774, 136);
type = Stem;
},
{
horizontal = 1;
place = (972, 142);
place = (972, 142);
type = Stem;
},
{
place = (82, 107);
place = (82, 107);
type = Stem;
},
{
place = (498, 107);
place = (498, 107);
type = Stem;
},
{
place = (182, 135);
place = (182, 135);
type = Stem;
},
{
place = (370, 136);
place = (370, 136);
type = Stem;
}
);
layerId = m01;
shapes = (
{
closed = 1;
nodes = (
(306,972,l),
(383,972,l),
(527,1114,l),
(416,1114,l)
);
},
{
closed = 1;
nodes = (
(288,774,o),
(317,804,o),
(317,842,cs),
(317,881,o),
(288,910,o),
(249,910,cs),
(211,910,o),
(182,881,o),
(182,842,cs),
(182,804,o),
(212,774,o),
(249,774,cs)
);
},
{
closed = 1;
nodes = (
(476,774,o),
(506,804,o),
(506,842,cs),
(506,881,o),
(476,910,o),
(438,910,cs),
(400,910,o),
(370,881,o),
(370,842,cs),
(370,804,o),
(401,774,o),
(438,774,cs)
);
},
{
closed = 1;
nodes = (
(515,-13,o),
(605,78,o),
(605,257,cs),
(605,697,l),
(498,697,l),
(498,265,ls),
(498,141,o),
(452,91,o),
(343,91,cs),
(234,91,o),
(189,140,o),
(189,264,cs),
(189,697,l),
(82,697,l),
(82,252,ls),
(82,76,o),
(172,-13,o),
(343,-13,cs)
);
}
);
width = 687;
}
);
note = uni01D7.ss03;
},
{
glyphname = uni01D9.ss03;
kernLeft = U;
layers = (
{
hints = (
{
horizontal = 1;
place = (-13, 104);
place = (-13, 104);
type = Stem;
},
{
horizontal = 1;
place = (697, -20);
target = down;
type = TopGhost;
},
{
horizontal = 1;
place = (774, 136);
place = (774, 136);
type = Stem;
},
{
place = (82, 107);
place = (82, 107);
type = Stem;
},
{
place = (498, 107);
place = (498, 107);
type = Stem;
},
{
place = (182, 135);
place = (182, 135);
type = Stem;
},
{
place = (370, 136);
place = (370, 136);
type = Stem;
}
);
layerId = m01;
shapes = (
{
closed = 1;
nodes = (
(344,954,l),
(498,1114,l),
(417,1114,l),
(344,1038,l),
(271,1114,l),
(190,1114,l)
);
},
{
closed = 1;
nodes = (
(288,774,o),
(317,804,o),
(317,842,cs),
(317,881,o),
(288,910,o),
(249,910,cs),
(211,910,o),
(182,881,o),
(182,842,cs),
(182,804,o),
(212,774,o),
(249,774,cs)
);
},
{
closed = 1;
nodes = (
(476,774,o),
(506,804,o),
(506,842,cs),
(506,881,o),
(476,910,o),
(438,910,cs),
(400,910,o),
(370,881,o),
(370,842,cs),
(370,804,o),
(401,774,o),
(438,774,cs)
);
},
{
closed = 1;
nodes = (
(515,-13,o),
(605,78,o),
(605,257,cs),
(605,697,l),
(498,697,l),
(498,265,ls),
(498,141,o),
(452,91,o),
(343,91,cs),
(234,91,o),
(189,140,o),
(189,264,cs),
(189,697,l),
(82,697,l),
(82,252,ls),
(82,76,o),
(172,-13,o),
(343,-13,cs)
);
}
);
width = 687;
}
);
note = uni01D9.ss03;
},
{
glyphname = uni01DB.ss03;
kernLeft = U;
layers = (
{
hints = (
{
horizontal = 1;
place = (-13, 104);
place = (-13, 104);
type = Stem;
},
{
horizontal = 1;
place = (697, -20);
target = down;
type = TopGhost;
},
{
horizontal = 1;
place = (774, 136);
place = (774, 136);
type = Stem;
},
{
horizontal = 1;
place = (972, 142);
place = (972, 142);
type = Stem;
},
{
place = (82, 107);
place = (82, 107);
type = Stem;
},
{
place = (498, 107);
place = (498, 107);
type = Stem;
},
{
place = (182, 135);
place = (182, 135);
type = Stem;
},
{
place = (370, 136);
place = (370, 136);
type = Stem;
}
);
layerId = m01;
shapes = (
{
closed = 1;
nodes = (
(305,972,l),
(383,972,l),
(279,1114,l),
(169,1114,l)
);
},
{
closed = 1;
nodes = (
(288,774,o),
(317,804,o),
(317,842,cs),
(317,881,o),
(288,910,o),
(249,910,cs),
(211,910,o),
(182,881,o),
(182,842,cs),
(182,804,o),
(212,774,o),
(249,774,cs)
);
},
{
closed = 1;
nodes = (
(476,774,o),
(506,804,o),
(506,842,cs),
(506,881,o),
(476,910,o),
(438,910,cs),
(400,910,o),
(370,881,o),
(370,842,cs),
(370,804,o),
(401,774,o),
(438,774,cs)
);
},
{
closed = 1;
nodes = (
(515,-13,o),
(605,78,o),
(605,257,cs),
(605,697,l),
(498,697,l),
(498,265,ls),
(498,141,o),
(452,91,o),
(343,91,cs),
(234,91,o),
(189,140,o),
(189,264,cs),
(189,697,l),
(82,697,l),
(82,252,ls),
(82,76,o),
(172,-13,o),
(343,-13,cs)
);
}
);
width = 687;
}
);
note = uni01DB.ss03;
},
{
glyphname = uni01D5.ss03;
kernLeft = U;
layers = (
{
hints = (
{
horizontal = 1;
place = (-13, 104);
place = (-13, 104);
type = Stem;
},
{
horizontal = 1;
place = (697, -20);
target = down;
type = TopGhost;
},
{
horizontal = 1;
place = (774, 136);
place = (774, 136);
type = Stem;
},
{
horizontal = 1;
place = (994, 61);
place = (994, 61);
type = Stem;
},
{
place = (82, 107);
place = (82, 107);
type = Stem;
},
{
place = (207, 273);
place = (207, 273);
type = Stem;
},
{
place = (498, 107);
place = (498, 107);
type = Stem;
},
{
place = (182, 135);
place = (182, 135);
type = Stem;
},
{
place = (370, 136);
place = (370, 136);
type = Stem;
}
);
layerId = m01;
shapes = (
{
closed = 1;
nodes = (
(207,994,l),
(480,994,l),
(480,1055,l),
(207,1055,l)
);
},
{
closed = 1;
nodes = (
(288,774,o),
(317,804,o),
(317,842,cs),
(317,881,o),
(288,910,o),
(249,910,cs),
(211,910,o),
(182,881,o),
(182,842,cs),
(182,804,o),
(212,774,o),
(249,774,cs)
);
},
{
closed = 1;
nodes = (
(476,774,o),
(506,804,o),
(506,842,cs),
(506,881,o),
(476,910,o),
(438,910,cs),
(400,910,o),
(370,881,o),
(370,842,cs),
(370,804,o),
(401,774,o),
(438,774,cs)
);
},
{
closed = 1;
nodes = (
(515,-13,o),
(605,78,o),
(605,257,cs),
(605,697,l),
(498,697,l),
(498,265,ls),
(498,141,o),
(452,91,o),
(343,91,cs),
(234,91,o),
(189,140,o),
(189,264,cs),
(189,697,l),
(82,697,l),
(82,252,ls),
(82,76,o),
(172,-13,o),
(343,-13,cs)
);
}
);
width = 687;
}
);
note = uni01D5.ss03;
},
{
glyphname = uni1EE4.ss03;
kernLeft = U;
layers = (
{
hints = (
{
horizontal = 1;
place = (-184, 136);
place = (-184, 136);
type = Stem;
},
{
horizontal = 1;
place = (-13, 104);
place = (-13, 104);
type = Stem;
},
{
horizontal = 1;
place = (697, -20);
target = down;
type = TopGhost;
},
{
place = (82, 107);
place = (82, 107);
type = Stem;
},
{
place = (277, 135);
place = (277, 135);
type = Stem;
},
{
place = (498, 107);
place = (498, 107);
type = Stem;
}
);
layerId = m01;
shapes = (
{
closed = 1;
nodes = (
(515,-13,o),
(605,78,o),
(605,257,cs),
(605,697,l),
(498,697,l),
(498,265,ls),
(498,141,o),
(452,91,o),
(343,91,cs),
(234,91,o),
(189,140,o),
(189,264,cs),
(189,697,l),
(82,697,l),
(82,252,ls),
(82,76,o),
(172,-13,o),
(343,-13,cs)
);
},
{
closed = 1;
nodes = (
(383,-184,o),
(412,-154,o),
(412,-115,cs),
(412,-77,o),
(383,-48,o),
(344,-48,cs),
(306,-48,o),
(277,-77,o),
(277,-115,cs),
(277,-154,o),
(307,-184,o),
(344,-184,cs)
);
}
);
width = 687;
}
);
note = uni1EE4.ss03;
},
{
glyphname = uni1EF0.ss03;
kernLeft = U;
layers = (
{
hints = (
{
horizontal = 1;
place = (-184, 136);
place = (-184, 136);
type = Stem;
},
{
horizontal = 1;
place = (-13, 104);
place = (-13, 104);
type = Stem;
},
{
horizontal = 1;
place = (697, -20);
target = down;
type = TopGhost;
},
{
place = (82, 107);
place = (82, 107);
type = Stem;
},
{
place = (277, 135);
place = (277, 135);
type = Stem;
},
{
place = (498, 107);
place = (498, 107);
type = Stem;
},
{
place = (668, 79);
place = (668, 79);
type = Stem;
}
);
layerId = m01;
shapes = (
{
closed = 1;
nodes = (
(668,697,l),
(668,647,ls),
(668,609,o),
(655,567,o),
(605,563,c),
(605,697,l),
(498,697,l),
(498,265,ls),
(498,141,o),
(452,91,o),
(343,91,cs),
(234,91,o),
(189,140,o),
(189,264,cs),
(189,697,l),
(82,697,l),
(82,252,ls),
(82,76,o),
(172,-13,o),
(343,-13,cs),
(515,-13,o),
(605,78,o),
(605,257,cs),
(605,494,l),
(706,498,o),
(747,567,o),
(747,655,cs),
(747,697,l)
);
},
{
closed = 1;
nodes = (
(306,-48,o),
(277,-77,o),
(277,-115,cs),
(277,-154,o),
(307,-184,o),
(344,-184,cs),
(383,-184,o),
(412,-154,o),
(412,-115,cs),
(412,-77,o),
(383,-48,o),
(344,-48,cs)
);
}
);
width = 687;
}
);
note = uni1EF0.ss03;
},
{
glyphname = Wdieresis.ss03;
kernLeft = W;
kernRight = W;
layers = (
{
hints = (
{
horizontal = 1;
place = (0, 21);
target = up;
type = BottomGhost;
},
{
horizontal = 1;
place = (697, -20);
target = down;
type = TopGhost;
},
{
horizontal = 1;
place = (774, 136);
place = (774, 136);
type = Stem;
},
{
place = (332, 135);
place = (332, 135);
type = Stem;
},
{
place = (520, 136);
place = (520, 136);
type = Stem;
},
{
horizontal = 1;
place = (0, 163);
place = (0, 163);
type = Stem;
}
);
layerId = m01;
shapes = (
{
closed = 1;
nodes = (
(438,774,o),
(467,804,o),
(467,842,cs),
(467,881,o),
(438,910,o),
(399,910,cs),
(361,910,o),
(332,881,o),
(332,842,cs),
(332,804,o),
(362,774,o),
(399,774,cs)
);
},
{
closed = 1;
nodes = (
(626,774,o),
(656,804,o),
(656,842,cs),
(656,881,o),
(626,910,o),
(588,910,cs),
(550,910,o),
(520,881,o),
(520,842,cs),
(520,804,o),
(551,774,o),
(588,774,cs)
);
},
{
closed = 1;
nodes = (
(228,0,l),
(333,0,l),
(493,488,l),
(653,0,l),
(758,0,l),
(965,697,l),
(853,697,l),
(700,163,l),
(539,658,l),
(447,658,l),
(287,163,l),
(133,697,l),
(21,697,l)
);
}
);
width = 986;
}
);
note = Wdieresis.ss03;
},
{
glyphname = Ydieresis.ss03;
kernLeft = Y;
kernRight = Y;
layers = (
{
hints = (
{
horizontal = 1;
place = (0, 21);
target = up;
type = BottomGhost;
},
{
horizontal = 1;
place = (697, -20);
target = down;
type = TopGhost;
},
{
horizontal = 1;
place = (774, 136);
place = (774, 136);
type = Stem;
},
{
place = (165, 135);
place = (165, 135);
type = Stem;
},
{
place = (353, 136);
place = (353, 136);
type = Stem;
},
{
place = (273, 108);
place = (273, 108);
type = Stem;
}
);
layerId = m01;
shapes = (
{
closed = 1;
nodes = (
(271,774,o),
(300,804,o),
(300,842,cs),
(300,881,o),
(271,910,o),
(232,910,cs),
(194,910,o),
(165,881,o),
(165,842,cs),
(165,804,o),
(195,774,o),
(232,774,cs)
);
},
{
closed = 1;
nodes = (
(459,774,o),
(489,804,o),
(489,842,cs),
(489,881,o),
(459,910,o),
(421,910,cs),
(383,910,o),
(353,881,o),
(353,842,cs),
(353,804,o),
(384,774,o),
(421,774,cs)
);
},
{
closed = 1;
nodes = (
(273,0,l),
(381,0,l),
(381,270,l),
(645,697,l),
(518,697,l),
(325,373,l),
(134,697,l),
(8,697,l),
(273,270,l)
);
}
);
width = 653;
}
);
note = Ydieresis.ss03;
},
{
glyphname = uni1EF4.ss03;
kernLeft = Y;
kernRight = Y;
layers = (
{
hints = (
{
horizontal = 1;
place = (-184, 136);
place = (-184, 136);
type = Stem;
},
{
horizontal = 1;
place = (0, 21);
target = up;
type = BottomGhost;
},
{
horizontal = 1;
place = (697, -20);
target = down;
type = TopGhost;
},
{
place = (273, 108);
place = (273, 108);
type = Stem;
},
{
place = (259, 135);
place = (259, 135);
type = Stem;
}
);
layerId = m01;
shapes = (
{
closed = 1;
nodes = (
(273,0,l),
(381,0,l),
(381,270,l),
(645,697,l),
(518,697,l),
(325,373,l),
(134,697,l),
(8,697,l),
(273,270,l)
);
},
{
closed = 1;
nodes = (
(365,-184,o),
(394,-154,o),
(394,-115,cs),
(394,-77,o),
(365,-48,o),
(326,-48,cs),
(288,-48,o),
(259,-77,o),
(259,-115,cs),
(259,-154,o),
(289,-184,o),
(326,-184,cs)
);
}
);
width = 653;
}
);
note = uni1EF4.ss03;
},
{
glyphname = Zdotaccent.ss03;
kernLeft = Z;
kernRight = Z;
layers = (
{
hints = (
{
horizontal = 1;
place = (0, 99);
place = (0, 99);
type = Stem;
},
{
horizontal = 1;
place = (598, 99);
place = (598, 99);
type = Stem;
},
{
horizontal = 1;
place = (774, 136);
place = (774, 136);
type = Stem;
},
{
place = (249, 135);
place = (249, 135);
type = Stem;
}
);
layerId = m01;
shapes = (
{
closed = 1;
nodes = (
(355,774,o),
(384,804,o),
(384,842,cs),
(384,881,o),
(355,910,o),
(316,910,cs),
(278,910,o),
(249,881,o),
(249,842,cs),
(249,804,o),
(279,774,o),
(316,774,cs)
);
},
{
closed = 1;
nodes = (
(591,697,l),
(56,697,l),
(56,598,l),
(449,598,l),
(33,76,l),
(33,0,l),
(591,0,l),
(591,99,l),
(179,99,l),
(591,618,l)
);
}
);
width = 632;
}
);
note = Zdotaccent.ss03;
},
{
glyphname = a;
kernLeft = a;
kernRight = a;
lastChange = "2022-12-26 06:26:19 +0000";
layers = (
{
hints = (
{
horizontal = 1;
place = (-9, 87);
place = (-9, 87);
type = Stem;
},
{
horizontal = 1;
place = (214, 79);
place = (214, 79);
type = Stem;
},
{
horizontal = 1;
place = (412, 90);
place = (412, 90);
type = Stem;
},
{
place = (31, 103);
place = (31, 103);
type = Stem;
},
{
place = (364, 103);
place = (364, 103);
type = Stem;
},
{
place = (369, 98);
place = (369, 98);
type = Stem;
},
{
horizontal = 1;
place = (0, 21);
target = up;
type = BottomGhost;
}
);
layerId = m01;
shapes = (
{
closed = 1;
nodes = (
(178,502,o),
(111,472,o),
(56,410,cs),
(50,403,o),
(51,393,o),
(58,388,cs),
(121,335,l),
(158,386,o),
(206,412,o),
(260,412,cs),
(325,412,o),
(364,374,o),
(364,310,cs),
(364,293,l),
(249,293,ls),
(179,293,o),
(133,285,o),
(99,268,cs),
(55,246,o),
(31,204,o),
(31,148,cs),
(31,54,o),
(101,-9,o),
(206,-9,cs),
(276,-9,o),
(333,20,o),
(365,70,c),
(384,0,l),
(428,0,l),
(467,75,l),
(467,310,ls),
(467,430,o),
(389,502,o),
(261,502,cs)
);
},
{
closed = 1;
nodes = (
(169,78,o),
(134,104,o),
(134,146,cs),
(134,167,o),
(141,184,o),
(156,194,cs),
(175,209,o),
(204,214,o),
(261,214,cs),
(364,214,l),
(364,212,ls),
(364,134,o),
(305,78,o),
(225,78,cs)
);
}
);
width = 530;
}
);
note = a;
unicode = 97;
},
{
glyphname = aacute;
kernLeft = a;
kernRight = a;
layers = (
{
hints = (
{
horizontal = 1;
place = (-9, 87);
place = (-9, 87);
type = Stem;
},
{
horizontal = 1;
place = (214, 79);
place = (214, 79);
type = Stem;
},
{
horizontal = 1;
place = (412, 90);
place = (412, 90);
type = Stem;
},
{
horizontal = 1;
place = (555, 142);
place = (555, 142);
type = Stem;
},
{
place = (31, 103);
place = (31, 103);
type = Stem;
},
{
place = (364, 103);
place = (364, 103);
type = Stem;
},
{
place = (369, 98);
place = (369, 98);
type = Stem;
},
{
horizontal = 1;
place = (0, 21);
target = up;
type = BottomGhost;
}
);
layerId = m01;
shapes = (
{
closed = 1;
nodes = (
(443,697,l),
(332,697,l),
(222,555,l),
(299,555,l)
);
},
{
closed = 1;
nodes = (
(173,502,o),
(103,468,o),
(46,398,c),
(121,335,l),
(158,386,o),
(206,412,o),
(260,412,cs),
(325,412,o),
(364,374,o),
(364,310,cs),
(364,293,l),
(249,293,ls),
(179,293,o),
(133,285,o),
(99,268,cs),
(55,246,o),
(31,204,o),
(31,148,cs),
(31,54,o),
(101,-9,o),
(206,-9,cs),
(276,-9,o),
(333,20,o),
(365,70,c),
(373,0,l),
(467,0,l),
(467,310,ls),
(467,430,o),
(389,502,o),
(261,502,cs)
);
},
{
closed = 1;
nodes = (
(169,78,o),
(134,104,o),
(134,146,cs),
(134,167,o),
(141,184,o),
(156,194,cs),
(175,209,o),
(204,214,o),
(261,214,cs),
(364,214,l),
(364,212,ls),
(364,134,o),
(305,78,o),
(225,78,cs)
);
}
);
width = 530;
}
);
note = aacute;
unicode = 225;
},
{
glyphname = abreve;
kernLeft = a;
kernRight = a;
layers = (
{
hints = (
{
horizontal = 1;
place = (-9, 87);
place = (-9, 87);
type = Stem;
},
{
horizontal = 1;
place = (214, 79);
place = (214, 79);
type = Stem;
},
{
horizontal = 1;
place = (412, 90);
place = (412, 90);
type = Stem;
},
{
horizontal = 1;
place = (565, 132);
place = (565, 132);
type = Stem;
},
{
place = (106, 73);
place = (106, 73);
type = Stem;
},
{
place = (364, 103);
place = (364, 103);
type = Stem;
},
{
place = (341, 73);
place = (341, 73);
type = Stem;
},
{
horizontal = 1;
place = (565, 60);
place = (565, 60);
type = Stem;
},
{
place = (31, 103);
place = (31, 103);
type = Stem;
},
{
place = (369, 98);
place = (369, 98);
type = Stem;
},
{
horizontal = 1;
place = (0, 21);
target = up;
type = BottomGhost;
}
);
layerId = m01;
shapes = (
{
closed = 1;
nodes = (
(361,565,o),
(414,608,o),
(414,697,c),
(341,697,l),
(341,651,o),
(308,625,o),
(260,625,cs),
(214,625,o),
(179,649,o),
(179,697,c),
(106,697,l),
(106,611,o),
(154,565,o),
(260,565,cs)
);
},
{
closed = 1;
nodes = (
(173,502,o),
(103,468,o),
(46,398,c),
(121,335,l),
(158,386,o),
(206,412,o),
(260,412,cs),
(325,412,o),
(364,374,o),
(364,310,cs),
(364,293,l),
(249,293,ls),
(179,293,o),
(133,285,o),
(99,268,cs),
(55,246,o),
(31,204,o),
(31,148,cs),
(31,54,o),
(101,-9,o),
(206,-9,cs),
(276,-9,o),
(333,20,o),
(365,70,c),
(373,0,l),
(467,0,l),
(467,310,ls),
(467,430,o),
(389,502,o),
(261,502,cs)
);
},
{
closed = 1;
nodes = (
(169,78,o),
(134,104,o),
(134,146,cs),
(134,167,o),
(141,184,o),
(156,194,cs),
(175,209,o),
(204,214,o),
(261,214,cs),
(364,214,l),
(364,212,ls),
(364,134,o),
(305,78,o),
(225,78,cs)
);
}
);
width = 530;
}
);
note = abreve;
unicode = 259;
},
{
glyphname = uni1EAF;
kernLeft = a;
kernRight = a;
layers = (
{
hints = (
{
horizontal = 1;
place = (-9, 87);
place = (-9, 87);
type = Stem;
},
{
horizontal = 1;
place = (214, 79);
place = (214, 79);
type = Stem;
},
{
horizontal = 1;
place = (412, 90);
place = (412, 90);
type = Stem;
},
{
horizontal = 1;
place = (565, 132);
place = (565, 132);
type = Stem;
},
{
horizontal = 1;
place = (759, 142);
place = (759, 142);
type = Stem;
},
{
place = (106, 73);
place = (106, 73);
type = Stem;
},
{
place = (364, 103);
place = (364, 103);
type = Stem;
},
{
place = (341, 73);
place = (341, 73);
type = Stem;
},
{
horizontal = 1;
place = (565, 60);
place = (565, 60);
type = Stem;
},
{
place = (31, 103);
place = (31, 103);
type = Stem;
},
{
place = (369, 98);
place = (369, 98);
type = Stem;
},
{
horizontal = 1;
place = (0, 21);
target = up;
type = BottomGhost;
}
);
layerId = m01;
shapes = (
{
closed = 1;
nodes = (
(443,901,l),
(332,901,l),
(222,759,l),
(299,759,l)
);
},
{
closed = 1;
nodes = (
(361,565,o),
(414,608,o),
(414,697,c),
(341,697,l),
(341,651,o),
(308,625,o),
(260,625,cs),
(214,625,o),
(179,649,o),
(179,697,c),
(106,697,l),
(106,611,o),
(154,565,o),
(260,565,cs)
);
},
{
closed = 1;
nodes = (
(173,502,o),
(103,468,o),
(46,398,c),
(121,335,l),
(158,386,o),
(206,412,o),
(260,412,cs),
(325,412,o),
(364,374,o),
(364,310,cs),
(364,293,l),
(249,293,ls),
(179,293,o),
(133,285,o),
(99,268,cs),
(55,246,o),
(31,204,o),
(31,148,cs),
(31,54,o),
(101,-9,o),
(206,-9,cs),
(276,-9,o),
(333,20,o),
(365,70,c),
(373,0,l),
(467,0,l),
(467,310,ls),
(467,430,o),
(389,502,o),
(261,502,cs)
);
},
{
closed = 1;
nodes = (
(169,78,o),
(134,104,o),
(134,146,cs),
(134,167,o),
(141,184,o),
(156,194,cs),
(175,209,o),
(204,214,o),
(261,214,cs),
(364,214,l),
(364,212,ls),
(364,134,o),
(305,78,o),
(225,78,cs)
);
}
);
width = 530;
}
);
note = uni1EAF;
unicode = 7855;
},
{
glyphname = uni1EB7;
kernLeft = a;
kernRight = a;
layers = (
{
hints = (
{
horizontal = 1;
place = (-173, 108);
place = (-173, 108);
type = Stem;
},
{
horizontal = 1;
place = (-9, 87);
place = (-9, 87);
type = Stem;
},
{
horizontal = 1;
place = (214, 79);
place = (214, 79);
type = Stem;
},
{
horizontal = 1;
place = (412, 90);
place = (412, 90);
type = Stem;
},
{
horizontal = 1;
place = (565, 132);
place = (565, 132);
type = Stem;
},
{
place = (106, 73);
place = (106, 73);
type = Stem;
},
{
place = (205, 110);
place = (205, 110);
type = Stem;
},
{
place = (341, 73);
place = (341, 73);
type = Stem;
},
{
horizontal = 1;
place = (565, 60);
place = (565, 60);
type = Stem;
},
{
place = (31, 103);
place = (31, 103);
type = Stem;
},
{
place = (364, 103);
place = (364, 103);
type = Stem;
},
{
place = (369, 98);
place = (369, 98);
type = Stem;
},
{
horizontal = 1;
place = (0, 21);
target = up;
type = BottomGhost;
}
);
layerId = m01;
shapes = (
{
closed = 1;
nodes = (
(361,565,o),
(414,608,o),
(414,697,c),
(341,697,l),
(341,651,o),
(308,625,o),
(260,625,cs),
(214,625,o),
(179,649,o),
(179,697,c),
(106,697,l),
(106,611,o),
(154,565,o),
(260,565,cs)
);
},
{
closed = 1;
nodes = (
(173,502,o),
(103,468,o),
(46,398,c),
(121,335,l),
(158,386,o),
(206,412,o),
(260,412,cs),
(325,412,o),
(364,374,o),
(364,310,cs),
(364,293,l),
(249,293,ls),
(179,293,o),
(133,285,o),
(99,268,cs),
(55,246,o),
(31,204,o),
(31,148,cs),
(31,54,o),
(101,-9,o),
(206,-9,cs),
(276,-9,o),
(333,20,o),
(365,70,c),
(373,0,l),
(467,0,l),
(467,310,ls),
(467,430,o),
(389,502,o),
(261,502,cs)
);
},
{
closed = 1;
nodes = (
(169,78,o),
(134,104,o),
(134,146,cs),
(134,167,o),
(141,184,o),
(156,194,cs),
(175,209,o),
(204,214,o),
(261,214,cs),
(364,214,l),
(364,212,ls),
(364,134,o),
(305,78,o),
(225,78,cs)
);
},
{
closed = 1;
nodes = (
(205,-173,l),
(315,-173,l),
(315,-65,l),
(205,-65,l)
);
}
);
width = 530;
}
);
note = uni1EB7;
unicode = 7863;
},
{
glyphname = uni1EB1;
kernLeft = a;
kernRight = a;
layers = (
{
hints = (
{
horizontal = 1;
place = (-9, 87);
place = (-9, 87);
type = Stem;
},
{
horizontal = 1;
place = (214, 79);
place = (214, 79);
type = Stem;
},
{
horizontal = 1;
place = (412, 90);
place = (412, 90);
type = Stem;
},
{
horizontal = 1;
place = (565, 132);
place = (565, 132);
type = Stem;
},
{
horizontal = 1;
place = (759, 142);
place = (759, 142);
type = Stem;
},
{
place = (106, 73);
place = (106, 73);
type = Stem;
},
{
place = (364, 103);
place = (364, 103);
type = Stem;
},
{
place = (341, 73);
place = (341, 73);
type = Stem;
},
{
horizontal = 1;
place = (565, 60);
place = (565, 60);
type = Stem;
},
{
place = (31, 103);
place = (31, 103);
type = Stem;
},
{
place = (369, 98);
place = (369, 98);
type = Stem;
},
{
horizontal = 1;
place = (0, 21);
target = up;
type = BottomGhost;
}
);
layerId = m01;
shapes = (
{
closed = 1;
nodes = (
(299,759,l),
(195,901,l),
(85,901,l),
(221,759,l)
);
},
{
closed = 1;
nodes = (
(106,697,l),
(106,611,o),
(154,565,o),
(260,565,cs),
(361,565,o),
(414,608,o),
(414,697,c),
(341,697,l),
(341,651,o),
(308,625,o),
(260,625,cs),
(214,625,o),
(179,649,o),
(179,697,c)
);
},
{
closed = 1;
nodes = (
(173,502,o),
(103,468,o),
(46,398,c),
(121,335,l),
(158,386,o),
(206,412,o),
(260,412,cs),
(325,412,o),
(364,374,o),
(364,310,cs),
(364,293,l),
(249,293,ls),
(179,293,o),
(133,285,o),
(99,268,cs),
(55,246,o),
(31,204,o),
(31,148,cs),
(31,54,o),
(101,-9,o),
(206,-9,cs),
(276,-9,o),
(333,20,o),
(365,70,c),
(373,0,l),
(467,0,l),
(467,310,ls),
(467,430,o),
(389,502,o),
(261,502,cs)
);
},
{
closed = 1;
nodes = (
(169,78,o),
(134,104,o),
(134,146,cs),
(134,167,o),
(141,184,o),
(156,194,cs),
(175,209,o),
(204,214,o),
(261,214,cs),
(364,214,l),
(364,212,ls),
(364,134,o),
(305,78,o),
(225,78,cs)
);
}
);
width = 530;
}
);
note = uni1EB1;
unicode = 7857;
},
{
glyphname = uni1EB3;
kernLeft = a;
kernRight = a;
layers = (
{
hints = (
{
horizontal = 1;
place = (-9, 87);
place = (-9, 87);
type = Stem;
},
{
horizontal = 1;
place = (214, 79);
place = (214, 79);
type = Stem;
},
{
horizontal = 1;
place = (412, 90);
place = (412, 90);
type = Stem;
},
{
horizontal = 1;
place = (565, 132);
place = (565, 132);
type = Stem;
},
{
horizontal = 1;
place = (865, 57);
place = (865, 57);
type = Stem;
},
{
place = (106, 73);
place = (106, 73);
type = Stem;
},
{
place = (305, 66);
place = (305, 66);
type = Stem;
},
{
place = (341, 73);
place = (341, 73);
type = Stem;
},
{
horizontal = 1;
place = (565, 60);
place = (565, 60);
type = Stem;
},
{
place = (364, 103);
place = (364, 103);
type = Stem;
},
{
place = (31, 103);
place = (31, 103);
type = Stem;
},
{
place = (369, 98);
place = (369, 98);
type = Stem;
},
{
horizontal = 1;
place = (0, 21);
target = up;
type = BottomGhost;
}
);
layerId = m01;
shapes = (
{
closed = 1;
nodes = (
(305,792,o),
(270,786,o),
(238,782,c),
(251,736,l),
(301,745,o),
(371,756,o),
(371,825,cs),
(371,888,o),
(311,922,o),
(225,922,cs),
(210,922,l),
(210,865,l),
(225,865,ls),
(265,865,o),
(305,860,o),
(305,824,cs)
);
},
{
closed = 1;
nodes = (
(361,565,o),
(414,608,o),
(414,697,c),
(341,697,l),
(341,651,o),
(308,625,o),
(260,625,cs),
(214,625,o),
(179,649,o),
(179,697,c),
(106,697,l),
(106,611,o),
(154,565,o),
(260,565,cs)
);
},
{
closed = 1;
nodes = (
(173,502,o),
(103,468,o),
(46,398,c),
(121,335,l),
(158,386,o),
(206,412,o),
(260,412,cs),
(325,412,o),
(364,374,o),
(364,310,cs),
(364,293,l),
(249,293,ls),
(179,293,o),
(133,285,o),
(99,268,cs),
(55,246,o),
(31,204,o),
(31,148,cs),
(31,54,o),
(101,-9,o),
(206,-9,cs),
(276,-9,o),
(333,20,o),
(365,70,c),
(373,0,l),
(467,0,l),
(467,310,ls),
(467,430,o),
(389,502,o),
(261,502,cs)
);
},
{
closed = 1;
nodes = (
(169,78,o),
(134,104,o),
(134,146,cs),
(134,167,o),
(141,184,o),
(156,194,cs),
(175,209,o),
(204,214,o),
(261,214,cs),
(364,214,l),
(364,212,ls),
(364,134,o),
(305,78,o),
(225,78,cs)
);
}
);
width = 530;
}
);
note = uni1EB3;
unicode = 7859;
},
